<ttFont>
    <TTGlyph name="A" xMin="5" yMin="0" xMax="502" yMax="695">
      <contour>
        <pt x="94" y="0" on="1"/>
        <pt x="5" y="0" on="1"/>
        <pt x="201" y="695" on="1"/>
        <pt x="306" y="695" on="1"/>
        <pt x="502" y="0" on="1"/>
        <pt x="412" y="0" on="1"/>
        <pt x="364" y="186" on="1"/>
        <pt x="143" y="186" on="1"/>
      </contour>
      <contour>
        <pt x="348" y="256" on="1"/>
        <pt x="256" y="627" on="1"/>
        <pt x="250" y="627" on="1"/>
        <pt x="158" y="256" on="1"/>
      </contour>
    </TTGlyph>
    <TTGlyph name="AE" xMin="-3" yMin="0" xMax="697" yMax="695">
      <contour>
        <pt x="356" y="0" on="1"/>
        <pt x="356" y="183" on="1"/>
        <pt x="164" y="183" on="1"/>
        <pt x="86" y="0" on="1"/>
        <pt x="-3" y="0" on="1"/>
        <pt x="296" y="695" on="1"/>
        <pt x="697" y="695" on="1"/>
        <pt x="697" y="619" on="1"/>
        <pt x="439" y="622" on="1"/>
        <pt x="435" y="389" on="1"/>
        <pt x="673" y="389" on="1"/>
        <pt x="673" y="318" on="1"/>
        <pt x="435" y="318" on="1"/>
        <pt x="439" y="73" on="1"/>
        <pt x="697" y="75" on="1"/>
        <pt x="697" y="0" on="1"/>
      </contour>
      <contour>
        <pt x="356" y="256" on="1"/>
        <pt x="356" y="627" on="1"/>
        <pt x="338" y="627" on="1"/>
        <pt x="185" y="256" on="1"/>
      </contour>
    </TTGlyph>
    <TTGlyph name="Aacute" xMin="5" yMin="0" xMax="502" yMax="869">
      <contour>
        <pt x="94" y="0" on="1"/>
        <pt x="5" y="0" on="1"/>
        <pt x="201" y="695" on="1"/>
        <pt x="306" y="695" on="1"/>
        <pt x="502" y="0" on="1"/>
        <pt x="412" y="0" on="1"/>
        <pt x="364" y="186" on="1"/>
        <pt x="143" y="186" on="1"/>
      </contour>
      <contour>
        <pt x="348" y="256" on="1"/>
        <pt x="256" y="627" on="1"/>
        <pt x="250" y="627" on="1"/>
        <pt x="158" y="256" on="1"/>
      </contour>
      <contour>
        <pt x="365" y="869" on="1"/>
        <pt x="393" y="796" on="1"/>
        <pt x="158" y="736" on="1"/>
        <pt x="140" y="787" on="1"/>
      </contour>
    </TTGlyph>
    <TTGlyph name="Acircumflex" xMin="5" yMin="0" xMax="502" yMax="866">
      <contour>
        <pt x="94" y="0" on="1"/>
        <pt x="5" y="0" on="1"/>
        <pt x="201" y="695" on="1"/>
        <pt x="306" y="695" on="1"/>
        <pt x="502" y="0" on="1"/>
        <pt x="412" y="0" on="1"/>
        <pt x="364" y="186" on="1"/>
        <pt x="143" y="186" on="1"/>
      </contour>
      <contour>
        <pt x="348" y="256" on="1"/>
        <pt x="256" y="627" on="1"/>
        <pt x="250" y="627" on="1"/>
        <pt x="158" y="256" on="1"/>
      </contour>
      <contour>
        <pt x="399" y="771" on="1"/>
        <pt x="371" y="733" on="1"/>
        <pt x="256" y="794" on="1"/>
        <pt x="249" y="794" on="1"/>
        <pt x="134" y="733" on="1"/>
        <pt x="106" y="771" on="1"/>
        <pt x="227" y="866" on="1"/>
        <pt x="278" y="866" on="1"/>
      </contour>
    </TTGlyph>
    <TTGlyph name="Adieresis" xMin="5" yMin="0" xMax="502" yMax="844">
      <contour>
        <pt x="94" y="0" on="1"/>
        <pt x="5" y="0" on="1"/>
        <pt x="201" y="695" on="1"/>
        <pt x="306" y="695" on="1"/>
        <pt x="502" y="0" on="1"/>
        <pt x="412" y="0" on="1"/>
        <pt x="364" y="186" on="1"/>
        <pt x="143" y="186" on="1"/>
      </contour>
      <contour>
        <pt x="348" y="256" on="1"/>
        <pt x="256" y="627" on="1"/>
        <pt x="250" y="627" on="1"/>
        <pt x="158" y="256" on="1"/>
      </contour>
      <contour>
        <pt x="211" y="762" on="1"/>
        <pt x="112" y="762" on="1"/>
        <pt x="112" y="844" on="1"/>
        <pt x="211" y="844" on="1"/>
      </contour>
      <contour>
        <pt x="397" y="762" on="1"/>
        <pt x="299" y="762" on="1"/>
        <pt x="299" y="844" on="1"/>
        <pt x="397" y="844" on="1"/>
      </contour>
    </TTGlyph>
    <TTGlyph name="Agrave" xMin="5" yMin="0" xMax="502" yMax="868">
      <contour>
        <pt x="94" y="0" on="1"/>
        <pt x="5" y="0" on="1"/>
        <pt x="201" y="695" on="1"/>
        <pt x="306" y="695" on="1"/>
        <pt x="502" y="0" on="1"/>
        <pt x="412" y="0" on="1"/>
        <pt x="364" y="186" on="1"/>
        <pt x="143" y="186" on="1"/>
      </contour>
      <contour>
        <pt x="348" y="256" on="1"/>
        <pt x="256" y="627" on="1"/>
        <pt x="250" y="627" on="1"/>
        <pt x="158" y="256" on="1"/>
      </contour>
      <contour>
        <pt x="122" y="797" on="1"/>
        <pt x="148" y="868" on="1"/>
        <pt x="374" y="787" on="1"/>
        <pt x="354" y="736" on="1"/>
      </contour>
    </TTGlyph>
    <TTGlyph name="Aring" xMin="5" yMin="0" xMax="502" yMax="887">
      <contour>
        <pt x="94" y="0" on="1"/>
        <pt x="5" y="0" on="1"/>
        <pt x="201" y="695" on="1"/>
        <pt x="306" y="695" on="1"/>
        <pt x="502" y="0" on="1"/>
        <pt x="412" y="0" on="1"/>
        <pt x="364" y="186" on="1"/>
        <pt x="143" y="186" on="1"/>
      </contour>
      <contour>
        <pt x="348" y="256" on="1"/>
        <pt x="256" y="627" on="1"/>
        <pt x="250" y="627" on="1"/>
        <pt x="158" y="256" on="1"/>
      </contour>
      <contour>
        <pt x="217" y="887" on="0"/>
        <pt x="289" y="887" on="0"/>
        <pt x="337" y="848" on="0"/>
        <pt x="337" y="761" on="0"/>
        <pt x="289" y="722" on="0"/>
        <pt x="217" y="722" on="0"/>
        <pt x="169" y="761" on="0"/>
        <pt x="169" y="848" on="0"/>
      </contour>
      <contour>
        <pt x="272" y="841" on="0"/>
        <pt x="234" y="841" on="0"/>
        <pt x="217" y="826" on="0"/>
        <pt x="217" y="783" on="0"/>
        <pt x="234" y="768" on="0"/>
        <pt x="272" y="768" on="0"/>
        <pt x="287" y="782" on="0"/>
        <pt x="287" y="826" on="0"/>
      </contour>
    </TTGlyph>
    <TTGlyph name="Atilde" xMin="5" yMin="0" xMax="502" yMax="857">
      <contour>
        <pt x="94" y="0" on="1"/>
        <pt x="5" y="0" on="1"/>
        <pt x="201" y="695" on="1"/>
        <pt x="306" y="695" on="1"/>
        <pt x="502" y="0" on="1"/>
        <pt x="412" y="0" on="1"/>
        <pt x="364" y="186" on="1"/>
        <pt x="143" y="186" on="1"/>
      </contour>
      <contour>
        <pt x="348" y="256" on="1"/>
        <pt x="256" y="627" on="1"/>
        <pt x="250" y="627" on="1"/>
        <pt x="158" y="256" on="1"/>
      </contour>
      <contour>
        <pt x="83" y="756" on="1"/>
        <pt x="83" y="857" on="0"/>
        <pt x="151" y="857" on="1"/>
        <pt x="182" y="857" on="0"/>
        <pt x="343" y="811" on="0"/>
        <pt x="350" y="811" on="1"/>
        <pt x="362" y="811" on="0"/>
        <pt x="376" y="854" on="1"/>
        <pt x="429" y="847" on="1"/>
        <pt x="429" y="793" on="0"/>
        <pt x="393" y="746" on="0"/>
        <pt x="332" y="746" on="0"/>
        <pt x="168" y="794" on="0"/>
        <pt x="162" y="794" on="1"/>
        <pt x="151" y="794" on="0"/>
        <pt x="135" y="750" on="1"/>
      </contour>
    </TTGlyph>
    <TTGlyph name="B" xMin="105" yMin="-13" xMax="530" yMax="708">
      <contour>
        <pt x="316" y="708" on="1"/>
        <pt x="512" y="708" on="0"/>
        <pt x="512" y="523" on="1"/>
        <pt x="512" y="482" on="0"/>
        <pt x="489" y="418" on="0"/>
        <pt x="472" y="402" on="1"/>
        <pt x="439" y="371" on="0"/>
        <pt x="412" y="366" on="1"/>
        <pt x="400" y="364" on="1"/>
        <pt x="400" y="361" on="1"/>
        <pt x="438" y="359" on="0"/>
        <pt x="479" y="329" on="1"/>
        <pt x="501" y="313" on="0"/>
        <pt x="530" y="247" on="0"/>
        <pt x="530" y="141" on="0"/>
        <pt x="495" y="53" on="0"/>
        <pt x="464" y="30" on="1"/>
        <pt x="407" y="-13" on="0"/>
        <pt x="323" y="-13" on="1"/>
        <pt x="237" y="-13" on="0"/>
        <pt x="105" y="3" on="1"/>
        <pt x="110" y="323" on="1"/>
        <pt x="105" y="696" on="1"/>
        <pt x="221" y="708" on="0"/>
      </contour>
      <contour>
        <pt x="191" y="63" on="1"/>
        <pt x="269" y="52" on="0"/>
        <pt x="396" y="52" on="0"/>
        <pt x="440" y="119" on="0"/>
        <pt x="440" y="270" on="0"/>
        <pt x="375" y="329" on="0"/>
        <pt x="312" y="329" on="1"/>
        <pt x="189" y="329" on="1"/>
      </contour>
      <contour>
        <pt x="189" y="395" on="1"/>
        <pt x="257" y="394" on="0"/>
        <pt x="380" y="394" on="0"/>
        <pt x="425" y="451" on="0"/>
        <pt x="425" y="590" on="0"/>
        <pt x="374" y="646" on="0"/>
        <pt x="313" y="646" on="1"/>
        <pt x="255" y="646" on="0"/>
        <pt x="189" y="638" on="1"/>
      </contour>
    </TTGlyph>
    <TTGlyph name="C" xMin="72" yMin="-13" xMax="526" yMax="708">
      <contour>
        <pt x="336" y="632" on="1"/>
        <pt x="236" y="632" on="0"/>
        <pt x="214" y="605" on="1"/>
        <pt x="163" y="543" on="0"/>
        <pt x="163" y="337" on="1"/>
        <pt x="163" y="239" on="0"/>
        <pt x="200" y="106" on="0"/>
        <pt x="249" y="58" on="0"/>
        <pt x="347" y="58" on="0"/>
        <pt x="444" y="86" on="0"/>
        <pt x="470" y="100" on="1"/>
        <pt x="497" y="114" on="1"/>
        <pt x="526" y="48" on="1"/>
        <pt x="516" y="41" on="0"/>
        <pt x="481" y="21" on="0"/>
        <pt x="369" y="-13" on="0"/>
        <pt x="312" y="-13" on="1"/>
        <pt x="72" y="-13" on="0"/>
        <pt x="72" y="340" on="1"/>
        <pt x="72" y="590" on="0"/>
        <pt x="176" y="666" on="1"/>
        <pt x="209" y="690" on="0"/>
        <pt x="282" y="708" on="0"/>
        <pt x="431" y="708" on="0"/>
        <pt x="497" y="692" on="1"/>
        <pt x="487" y="620" on="1"/>
        <pt x="395" y="632" on="0"/>
      </contour>
    </TTGlyph>
    <TTGlyph name="Ccedilla" xMin="72" yMin="-179" xMax="526" yMax="708">
      <contour>
        <pt x="336" y="632" on="1"/>
        <pt x="236" y="632" on="0"/>
        <pt x="214" y="605" on="1"/>
        <pt x="163" y="543" on="0"/>
        <pt x="163" y="337" on="1"/>
        <pt x="163" y="239" on="0"/>
        <pt x="200" y="106" on="0"/>
        <pt x="249" y="58" on="0"/>
        <pt x="347" y="58" on="0"/>
        <pt x="444" y="86" on="0"/>
        <pt x="470" y="100" on="1"/>
        <pt x="497" y="114" on="1"/>
        <pt x="526" y="48" on="1"/>
        <pt x="470" y="8" on="0"/>
        <pt x="381" y="-7" on="1"/>
        <pt x="394" y="-50" on="0"/>
        <pt x="394" y="-79" on="1"/>
        <pt x="394" y="-125" on="0"/>
        <pt x="333" y="-179" on="0"/>
        <pt x="285" y="-179" on="1"/>
        <pt x="257" y="-179" on="0"/>
        <pt x="212" y="-170" on="1"/>
        <pt x="212" y="-108" on="1"/>
        <pt x="256" y="-113" on="0"/>
        <pt x="308" y="-113" on="0"/>
        <pt x="330" y="-101" on="0"/>
        <pt x="330" y="-45" on="0"/>
        <pt x="322" y="-13" on="1"/>
        <pt x="312" y="-13" on="1"/>
        <pt x="72" y="-13" on="0"/>
        <pt x="72" y="340" on="1"/>
        <pt x="72" y="590" on="0"/>
        <pt x="176" y="666" on="1"/>
        <pt x="209" y="690" on="0"/>
        <pt x="282" y="708" on="0"/>
        <pt x="431" y="708" on="0"/>
        <pt x="497" y="692" on="1"/>
        <pt x="487" y="620" on="1"/>
        <pt x="395" y="632" on="0"/>
      </contour>
    </TTGlyph>
    <TTGlyph name="D" xMin="105" yMin="-13" xMax="559" yMax="708">
      <contour>
        <pt x="105" y="696" on="1"/>
        <pt x="237" y="708" on="0"/>
        <pt x="373" y="708" on="0"/>
        <pt x="462" y="670" on="0"/>
        <pt x="515" y="607" on="0"/>
        <pt x="532" y="560" on="1"/>
        <pt x="559" y="482" on="0"/>
        <pt x="559" y="356" on="1"/>
        <pt x="559" y="-13" on="0"/>
        <pt x="302" y="-13" on="1"/>
        <pt x="105" y="0" on="1"/>
      </contour>
      <contour>
        <pt x="291" y="61" on="1"/>
        <pt x="382" y="61" on="0"/>
        <pt x="410" y="89" on="1"/>
        <pt x="465" y="144" on="0"/>
        <pt x="465" y="569" on="0"/>
        <pt x="412" y="615" on="1"/>
        <pt x="389" y="635" on="0"/>
        <pt x="315" y="635" on="1"/>
        <pt x="188" y="628" on="1"/>
        <pt x="189" y="71" on="1"/>
        <pt x="253" y="61" on="0"/>
      </contour>
    </TTGlyph>
    <TTGlyph name="E" xMin="105" yMin="0" xMax="446" yMax="695">
      <contour>
        <pt x="105" y="0" on="1"/>
        <pt x="105" y="695" on="1"/>
        <pt x="446" y="695" on="1"/>
        <pt x="446" y="620" on="1"/>
        <pt x="189" y="623" on="1"/>
        <pt x="184" y="389" on="1"/>
        <pt x="422" y="389" on="1"/>
        <pt x="422" y="318" on="1"/>
        <pt x="184" y="318" on="1"/>
        <pt x="189" y="73" on="1"/>
        <pt x="446" y="75" on="1"/>
        <pt x="446" y="0" on="1"/>
      </contour>
    </TTGlyph>
    <TTGlyph name="Eacute" xMin="105" yMin="0" xMax="446" yMax="869">
      <contour>
        <pt x="105" y="0" on="1"/>
        <pt x="105" y="695" on="1"/>
        <pt x="446" y="695" on="1"/>
        <pt x="446" y="620" on="1"/>
        <pt x="189" y="623" on="1"/>
        <pt x="184" y="389" on="1"/>
        <pt x="422" y="389" on="1"/>
        <pt x="422" y="318" on="1"/>
        <pt x="184" y="318" on="1"/>
        <pt x="189" y="73" on="1"/>
        <pt x="446" y="75" on="1"/>
        <pt x="446" y="0" on="1"/>
      </contour>
      <contour>
        <pt x="404" y="869" on="1"/>
        <pt x="432" y="796" on="1"/>
        <pt x="197" y="736" on="1"/>
        <pt x="179" y="787" on="1"/>
      </contour>
    </TTGlyph>
    <TTGlyph name="Ecircumflex" xMin="105" yMin="0" xMax="446" yMax="866">
      <contour>
        <pt x="105" y="0" on="1"/>
        <pt x="105" y="695" on="1"/>
        <pt x="446" y="695" on="1"/>
        <pt x="446" y="620" on="1"/>
        <pt x="189" y="623" on="1"/>
        <pt x="184" y="389" on="1"/>
        <pt x="422" y="389" on="1"/>
        <pt x="422" y="318" on="1"/>
        <pt x="184" y="318" on="1"/>
        <pt x="189" y="73" on="1"/>
        <pt x="446" y="75" on="1"/>
        <pt x="446" y="0" on="1"/>
      </contour>
      <contour>
        <pt x="427" y="771" on="1"/>
        <pt x="399" y="733" on="1"/>
        <pt x="284" y="794" on="1"/>
        <pt x="277" y="794" on="1"/>
        <pt x="162" y="733" on="1"/>
        <pt x="134" y="771" on="1"/>
        <pt x="255" y="866" on="1"/>
        <pt x="306" y="866" on="1"/>
      </contour>
    </TTGlyph>
    <TTGlyph name="Edieresis" xMin="105" yMin="0" xMax="446" yMax="844">
      <contour>
        <pt x="105" y="0" on="1"/>
        <pt x="105" y="695" on="1"/>
        <pt x="446" y="695" on="1"/>
        <pt x="446" y="620" on="1"/>
        <pt x="189" y="623" on="1"/>
        <pt x="184" y="389" on="1"/>
        <pt x="422" y="389" on="1"/>
        <pt x="422" y="318" on="1"/>
        <pt x="184" y="318" on="1"/>
        <pt x="189" y="73" on="1"/>
        <pt x="446" y="75" on="1"/>
        <pt x="446" y="0" on="1"/>
      </contour>
      <contour>
        <pt x="236" y="762" on="1"/>
        <pt x="137" y="762" on="1"/>
        <pt x="137" y="844" on="1"/>
        <pt x="236" y="844" on="1"/>
      </contour>
      <contour>
        <pt x="422" y="762" on="1"/>
        <pt x="324" y="762" on="1"/>
        <pt x="324" y="844" on="1"/>
        <pt x="422" y="844" on="1"/>
      </contour>
    </TTGlyph>
    <TTGlyph name="Egrave" xMin="105" yMin="0" xMax="446" yMax="868">
      <contour>
        <pt x="105" y="0" on="1"/>
        <pt x="105" y="695" on="1"/>
        <pt x="446" y="695" on="1"/>
        <pt x="446" y="620" on="1"/>
        <pt x="189" y="623" on="1"/>
        <pt x="184" y="389" on="1"/>
        <pt x="422" y="389" on="1"/>
        <pt x="422" y="318" on="1"/>
        <pt x="184" y="318" on="1"/>
        <pt x="189" y="73" on="1"/>
        <pt x="446" y="75" on="1"/>
        <pt x="446" y="0" on="1"/>
      </contour>
      <contour>
        <pt x="144" y="797" on="1"/>
        <pt x="170" y="868" on="1"/>
        <pt x="396" y="787" on="1"/>
        <pt x="376" y="736" on="1"/>
      </contour>
    </TTGlyph>
    <TTGlyph name="Eth" xMin="52" yMin="-13" xMax="571" yMax="708">
      <contour>
        <pt x="52" y="321" on="1"/>
        <pt x="52" y="391" on="1"/>
        <pt x="118" y="391" on="1"/>
        <pt x="118" y="696" on="1"/>
        <pt x="249" y="708" on="0"/>
        <pt x="385" y="708" on="0"/>
        <pt x="474" y="670" on="0"/>
        <pt x="527" y="607" on="0"/>
        <pt x="544" y="560" on="1"/>
        <pt x="571" y="482" on="0"/>
        <pt x="571" y="356" on="1"/>
        <pt x="571" y="-13" on="0"/>
        <pt x="314" y="-13" on="1"/>
        <pt x="280" y="-13" on="0"/>
        <pt x="118" y="0" on="1"/>
        <pt x="118" y="321" on="1"/>
      </contour>
      <contour>
        <pt x="200" y="391" on="1"/>
        <pt x="308" y="391" on="1"/>
        <pt x="308" y="321" on="1"/>
        <pt x="200" y="321" on="1"/>
        <pt x="200" y="71" on="1"/>
        <pt x="265" y="61" on="0"/>
        <pt x="303" y="61" on="1"/>
        <pt x="394" y="61" on="0"/>
        <pt x="422" y="89" on="1"/>
        <pt x="477" y="144" on="0"/>
        <pt x="477" y="571" on="0"/>
        <pt x="424" y="615" on="1"/>
        <pt x="402" y="635" on="0"/>
        <pt x="327" y="635" on="1"/>
        <pt x="200" y="628" on="1"/>
      </contour>
    </TTGlyph>
    <TTGlyph name="Euro" xMin="46" yMin="-13" xMax="556" yMax="708">
      <contour>
        <pt x="46" y="256" on="1"/>
        <pt x="46" y="322" on="1"/>
        <pt x="493" y="322" on="1"/>
        <pt x="493" y="256" on="1"/>
        <pt x="196" y="256" on="1"/>
        <pt x="208" y="129" on="0"/>
        <pt x="254" y="83" on="1"/>
        <pt x="279" y="58" on="0"/>
        <pt x="377" y="58" on="0"/>
        <pt x="475" y="86" on="0"/>
        <pt x="501" y="100" on="1"/>
        <pt x="527" y="114" on="1"/>
        <pt x="556" y="48" on="1"/>
        <pt x="546" y="41" on="0"/>
        <pt x="510" y="21" on="0"/>
        <pt x="400" y="-13" on="0"/>
        <pt x="346" y="-13" on="1"/>
        <pt x="244" y="-13" on="0"/>
        <pt x="120" y="113" on="0"/>
        <pt x="106" y="256" on="1"/>
      </contour>
      <contour>
        <pt x="46" y="379" on="1"/>
        <pt x="46" y="445" on="1"/>
        <pt x="107" y="445" on="1"/>
        <pt x="123" y="600" on="0"/>
        <pt x="194" y="657" on="1"/>
        <pt x="256" y="708" on="0"/>
        <pt x="462" y="708" on="0"/>
        <pt x="526" y="692" on="1"/>
        <pt x="517" y="620" on="1"/>
        <pt x="413" y="632" on="0"/>
        <pt x="268" y="632" on="0"/>
        <pt x="244" y="605" on="1"/>
        <pt x="207" y="564" on="0"/>
        <pt x="196" y="445" on="1"/>
        <pt x="493" y="445" on="1"/>
        <pt x="493" y="379" on="1"/>
      </contour>
    </TTGlyph>
    <TTGlyph name="F" xMin="105" yMin="0" xMax="446" yMax="695">
      <contour>
        <pt x="415" y="318" on="1"/>
        <pt x="184" y="318" on="1"/>
        <pt x="189" y="0" on="1"/>
        <pt x="105" y="0" on="1"/>
        <pt x="105" y="695" on="1"/>
        <pt x="446" y="695" on="1"/>
        <pt x="446" y="619" on="1"/>
        <pt x="188" y="622" on="1"/>
        <pt x="184" y="388" on="1"/>
        <pt x="415" y="389" on="1"/>
      </contour>
    </TTGlyph>
    <TTGlyph name="G" xMin="72" yMin="-13" xMax="519" yMax="708">
      <contour>
        <pt x="215" y="92" on="1"/>
        <pt x="243" y="60" on="0"/>
        <pt x="402" y="60" on="0"/>
        <pt x="439" y="75" on="1"/>
        <pt x="439" y="295" on="1"/>
        <pt x="333" y="300" on="1"/>
        <pt x="333" y="362" on="1"/>
        <pt x="519" y="362" on="1"/>
        <pt x="519" y="26" on="1"/>
        <pt x="443" y="-13" on="0"/>
        <pt x="331" y="-13" on="1"/>
        <pt x="286" y="-13" on="0"/>
        <pt x="214" y="4" on="0"/>
        <pt x="145" y="52" on="0"/>
        <pt x="122" y="92" on="1"/>
        <pt x="72" y="180" on="0"/>
        <pt x="72" y="350" on="1"/>
        <pt x="72" y="565" on="0"/>
        <pt x="148" y="641" on="1"/>
        <pt x="186" y="679" on="0"/>
        <pt x="278" y="708" on="0"/>
        <pt x="447" y="708" on="0"/>
        <pt x="515" y="691" on="1"/>
        <pt x="505" y="619" on="1"/>
        <pt x="392" y="632" on="0"/>
        <pt x="338" y="632" on="1"/>
        <pt x="239" y="632" on="0"/>
        <pt x="213" y="605" on="1"/>
        <pt x="163" y="553" on="0"/>
        <pt x="162" y="352" on="1"/>
        <pt x="163" y="150" on="0"/>
      </contour>
    </TTGlyph>
    <TTGlyph name="H" xMin="105" yMin="0" xMax="560" yMax="695">
      <contour>
        <pt x="105" y="0" on="1"/>
        <pt x="105" y="695" on="1"/>
        <pt x="189" y="695" on="1"/>
        <pt x="186" y="391" on="1"/>
        <pt x="479" y="391" on="1"/>
        <pt x="477" y="695" on="1"/>
        <pt x="560" y="695" on="1"/>
        <pt x="560" y="0" on="1"/>
        <pt x="477" y="0" on="1"/>
        <pt x="480" y="317" on="1"/>
        <pt x="186" y="317" on="1"/>
        <pt x="189" y="0" on="1"/>
      </contour>
    </TTGlyph>
    <TTGlyph name="I" xMin="105" yMin="-1" xMax="190" yMax="695">
      <contour>
        <pt x="185" y="388" on="1"/>
        <pt x="190" y="0" on="1"/>
        <pt x="105" y="-1" on="1"/>
        <pt x="109" y="318" on="1"/>
        <pt x="105" y="695" on="1"/>
        <pt x="190" y="695" on="1"/>
      </contour>
    </TTGlyph>
    <TTGlyph name="IJ" xMin="105" yMin="-13" xMax="483" yMax="695">
      <contour>
        <pt x="185" y="388" on="1"/>
        <pt x="190" y="0" on="1"/>
        <pt x="105" y="0" on="1"/>
        <pt x="109" y="318" on="1"/>
        <pt x="105" y="695" on="1"/>
        <pt x="190" y="695" on="1"/>
      </contour>
      <contour>
        <pt x="483" y="236" on="1"/>
        <pt x="483" y="-13" on="0"/>
        <pt x="319" y="-13" on="1"/>
        <pt x="299" y="-13" on="0"/>
        <pt x="256" y="-6" on="1"/>
        <pt x="265" y="66" on="1"/>
        <pt x="313" y="60" on="0"/>
        <pt x="358" y="60" on="0"/>
        <pt x="370" y="69" on="1"/>
        <pt x="399" y="90" on="0"/>
        <pt x="399" y="223" on="1"/>
        <pt x="399" y="695" on="1"/>
        <pt x="483" y="695" on="1"/>
      </contour>
    </TTGlyph>
    <TTGlyph name="Iacute" xMin="53" yMin="-1" xMax="292" yMax="869">
      <contour>
        <pt x="264" y="869" on="1"/>
        <pt x="292" y="794" on="1"/>
        <pt x="71" y="736" on="1"/>
        <pt x="53" y="789" on="1"/>
      </contour>
      <contour>
        <pt x="185" y="388" on="1"/>
        <pt x="190" y="0" on="1"/>
        <pt x="105" y="-1" on="1"/>
        <pt x="109" y="318" on="1"/>
        <pt x="105" y="695" on="1"/>
        <pt x="190" y="695" on="1"/>
      </contour>
    </TTGlyph>
    <TTGlyph name="Icircumflex" xMin="8" yMin="-1" xMax="287" yMax="866">
      <contour>
        <pt x="287" y="773" on="1"/>
        <pt x="261" y="733" on="1"/>
        <pt x="151" y="794" on="1"/>
        <pt x="144" y="794" on="1"/>
        <pt x="34" y="733" on="1"/>
        <pt x="8" y="773" on="1"/>
        <pt x="122" y="866" on="1"/>
        <pt x="173" y="866" on="1"/>
      </contour>
      <contour>
        <pt x="185" y="388" on="1"/>
        <pt x="190" y="0" on="1"/>
        <pt x="105" y="-1" on="1"/>
        <pt x="109" y="318" on="1"/>
        <pt x="105" y="695" on="1"/>
        <pt x="190" y="695" on="1"/>
      </contour>
    </TTGlyph>
    <TTGlyph name="Idieresis" xMin="17" yMin="-1" xMax="278" yMax="844">
      <contour>
        <pt x="116" y="762" on="1"/>
        <pt x="17" y="762" on="1"/>
        <pt x="17" y="844" on="1"/>
        <pt x="116" y="844" on="1"/>
      </contour>
      <contour>
        <pt x="278" y="762" on="1"/>
        <pt x="180" y="762" on="1"/>
        <pt x="180" y="844" on="1"/>
        <pt x="278" y="844" on="1"/>
      </contour>
      <contour>
        <pt x="185" y="388" on="1"/>
        <pt x="190" y="0" on="1"/>
        <pt x="105" y="-1" on="1"/>
        <pt x="109" y="318" on="1"/>
        <pt x="105" y="695" on="1"/>
        <pt x="190" y="695" on="1"/>
      </contour>
    </TTGlyph>
    <TTGlyph name="Igrave" xMin="7" yMin="-1" xMax="247" yMax="868">
      <contour>
        <pt x="7" y="795" on="1"/>
        <pt x="33" y="868" on="1"/>
        <pt x="247" y="789" on="1"/>
        <pt x="227" y="736" on="1"/>
      </contour>
      <contour>
        <pt x="185" y="388" on="1"/>
        <pt x="190" y="0" on="1"/>
        <pt x="105" y="-1" on="1"/>
        <pt x="109" y="318" on="1"/>
        <pt x="105" y="695" on="1"/>
        <pt x="190" y="695" on="1"/>
      </contour>
    </TTGlyph>
    <TTGlyph name="Itilde" xMin="0" yMin="-1" xMax="296" yMax="857">
      <contour>
        <pt x="0" y="756" on="1"/>
        <pt x="0" y="857" on="0"/>
        <pt x="68" y="857" on="1"/>
        <pt x="99" y="857" on="0"/>
        <pt x="210" y="812" on="0"/>
        <pt x="216" y="812" on="1"/>
        <pt x="229" y="812" on="0"/>
        <pt x="243" y="854" on="1"/>
        <pt x="296" y="847" on="1"/>
        <pt x="296" y="793" on="0"/>
        <pt x="260" y="746" on="0"/>
        <pt x="199" y="746" on="0"/>
        <pt x="85" y="792" on="0"/>
        <pt x="79" y="792" on="1"/>
        <pt x="68" y="792" on="0"/>
        <pt x="52" y="750" on="1"/>
      </contour>
      <contour>
        <pt x="185" y="388" on="1"/>
        <pt x="190" y="0" on="1"/>
        <pt x="105" y="-1" on="1"/>
        <pt x="109" y="318" on="1"/>
        <pt x="105" y="695" on="1"/>
        <pt x="190" y="695" on="1"/>
      </contour>
    </TTGlyph>
    <TTGlyph name="J" xMin="-7" yMin="-13" xMax="220" yMax="695">
      <contour>
        <pt x="220" y="695" on="1"/>
        <pt x="220" y="236" on="1"/>
        <pt x="220" y="-13" on="0"/>
        <pt x="56" y="-13" on="1"/>
        <pt x="-7" y="-6" on="1"/>
        <pt x="2" y="66" on="1"/>
        <pt x="50" y="60" on="0"/>
        <pt x="95" y="60" on="0"/>
        <pt x="108" y="69" on="1"/>
        <pt x="136" y="90" on="0"/>
        <pt x="136" y="223" on="1"/>
        <pt x="136" y="695" on="1"/>
      </contour>
    </TTGlyph>
    <TTGlyph name="Jcircumflex" xMin="-7" yMin="-13" xMax="318" yMax="866">
      <contour>
        <pt x="318" y="773" on="1"/>
        <pt x="292" y="733" on="1"/>
        <pt x="182" y="794" on="1"/>
        <pt x="175" y="794" on="1"/>
        <pt x="65" y="733" on="1"/>
        <pt x="39" y="773" on="1"/>
        <pt x="153" y="866" on="1"/>
        <pt x="204" y="866" on="1"/>
      </contour>
      <contour>
        <pt x="220" y="236" on="1"/>
        <pt x="220" y="-13" on="0"/>
        <pt x="56" y="-13" on="1"/>
        <pt x="36" y="-13" on="0"/>
        <pt x="-7" y="-6" on="1"/>
        <pt x="2" y="66" on="1"/>
        <pt x="50" y="60" on="0"/>
        <pt x="95" y="60" on="0"/>
        <pt x="108" y="69" on="1"/>
        <pt x="136" y="90" on="0"/>
        <pt x="136" y="223" on="1"/>
        <pt x="136" y="695" on="1"/>
        <pt x="220" y="695" on="1"/>
      </contour>
    </TTGlyph>
    <TTGlyph name="K" xMin="105" yMin="0" xMax="579" yMax="695">
      <contour>
        <pt x="472" y="0" on="1"/>
        <pt x="191" y="352" on="1"/>
        <pt x="455" y="695" on="1"/>
        <pt x="553" y="695" on="1"/>
        <pt x="283" y="357" on="1"/>
        <pt x="283" y="351" on="1"/>
        <pt x="579" y="0" on="1"/>
      </contour>
      <contour>
        <pt x="190" y="695" on="1"/>
        <pt x="190" y="0" on="1"/>
        <pt x="105" y="0" on="1"/>
        <pt x="110" y="353" on="1"/>
        <pt x="105" y="695" on="1"/>
      </contour>
    </TTGlyph>
    <TTGlyph name="L" xMin="105" yMin="0" xMax="435" yMax="695">
      <contour>
        <pt x="105" y="0" on="1"/>
        <pt x="105" y="695" on="1"/>
        <pt x="189" y="695" on="1"/>
        <pt x="184" y="75" on="1"/>
        <pt x="435" y="77" on="1"/>
        <pt x="435" y="0" on="1"/>
      </contour>
    </TTGlyph>
    <TTGlyph name="Ldotaccent" xMin="105" yMin="0" xMax="435" yMax="695">
      <contour>
        <pt x="105" y="0" on="1"/>
        <pt x="105" y="695" on="1"/>
        <pt x="189" y="695" on="1"/>
        <pt x="184" y="75" on="1"/>
        <pt x="435" y="77" on="1"/>
        <pt x="435" y="0" on="1"/>
      </contour>
      <contour>
        <pt x="275" y="333" on="1"/>
        <pt x="275" y="420" on="1"/>
        <pt x="373" y="420" on="1"/>
        <pt x="373" y="333" on="1"/>
      </contour>
    </TTGlyph>
    <TTGlyph name="Lslash" xMin="41" yMin="0" xMax="433" yMax="695">
      <contour>
        <pt x="102" y="695" on="1"/>
        <pt x="186" y="695" on="1"/>
        <pt x="183" y="389" on="1"/>
        <pt x="346" y="502" on="1"/>
        <pt x="346" y="419" on="1"/>
        <pt x="183" y="306" on="1"/>
        <pt x="181" y="75" on="1"/>
        <pt x="433" y="77" on="1"/>
        <pt x="433" y="0" on="1"/>
        <pt x="102" y="0" on="1"/>
        <pt x="102" y="251" on="1"/>
        <pt x="41" y="209" on="1"/>
        <pt x="41" y="291" on="1"/>
        <pt x="102" y="333" on="1"/>
      </contour>
    </TTGlyph>
    <TTGlyph name="M" xMin="101" yMin="0" xMax="693" yMax="695">
      <contour>
        <pt x="445" y="181" on="1"/>
        <pt x="350" y="181" on="1"/>
        <pt x="195" y="630" on="1"/>
        <pt x="189" y="630" on="1"/>
        <pt x="185" y="0" on="1"/>
        <pt x="101" y="0" on="1"/>
        <pt x="122" y="695" on="1"/>
        <pt x="246" y="695" on="1"/>
        <pt x="394" y="246" on="1"/>
        <pt x="399" y="246" on="1"/>
        <pt x="546" y="695" on="1"/>
        <pt x="670" y="695" on="1"/>
        <pt x="693" y="0" on="1"/>
        <pt x="609" y="0" on="1"/>
        <pt x="603" y="630" on="1"/>
        <pt x="598" y="630" on="1"/>
      </contour>
    </TTGlyph>
    <TTGlyph name="N" xMin="105" yMin="0" xMax="572" yMax="695">
      <contour>
        <pt x="105" y="695" on="1"/>
        <pt x="222" y="695" on="1"/>
        <pt x="500" y="79" on="1"/>
        <pt x="505" y="79" on="1"/>
        <pt x="490" y="695" on="1"/>
        <pt x="572" y="695" on="1"/>
        <pt x="572" y="0" on="1"/>
        <pt x="455" y="0" on="1"/>
        <pt x="178" y="616" on="1"/>
        <pt x="174" y="616" on="1"/>
        <pt x="187" y="0" on="1"/>
        <pt x="105" y="0" on="1"/>
      </contour>
    </TTGlyph>
    <TTGlyph name="Nacute" xMin="105" yMin="0" xMax="572" yMax="869">
      <contour>
        <pt x="488" y="869" on="1"/>
        <pt x="516" y="796" on="1"/>
        <pt x="281" y="736" on="1"/>
        <pt x="263" y="787" on="1"/>
      </contour>
      <contour>
        <pt x="105" y="695" on="1"/>
        <pt x="222" y="695" on="1"/>
        <pt x="500" y="79" on="1"/>
        <pt x="505" y="79" on="1"/>
        <pt x="490" y="695" on="1"/>
        <pt x="572" y="695" on="1"/>
        <pt x="572" y="0" on="1"/>
        <pt x="455" y="0" on="1"/>
        <pt x="178" y="616" on="1"/>
        <pt x="174" y="616" on="1"/>
        <pt x="187" y="0" on="1"/>
        <pt x="105" y="0" on="1"/>
      </contour>
    </TTGlyph>
    <TTGlyph name="Ntilde" xMin="105" yMin="0" xMax="572" yMax="857">
      <contour>
        <pt x="105" y="695" on="1"/>
        <pt x="222" y="695" on="1"/>
        <pt x="500" y="79" on="1"/>
        <pt x="505" y="79" on="1"/>
        <pt x="490" y="695" on="1"/>
        <pt x="572" y="695" on="1"/>
        <pt x="572" y="0" on="1"/>
        <pt x="455" y="0" on="1"/>
        <pt x="178" y="616" on="1"/>
        <pt x="174" y="616" on="1"/>
        <pt x="187" y="0" on="1"/>
        <pt x="105" y="0" on="1"/>
      </contour>
      <contour>
        <pt x="172" y="756" on="1"/>
        <pt x="172" y="857" on="0"/>
        <pt x="240" y="857" on="1"/>
        <pt x="271" y="857" on="0"/>
        <pt x="432" y="811" on="0"/>
        <pt x="438" y="811" on="1"/>
        <pt x="451" y="811" on="0"/>
        <pt x="465" y="854" on="1"/>
        <pt x="518" y="847" on="1"/>
        <pt x="518" y="793" on="0"/>
        <pt x="482" y="746" on="0"/>
        <pt x="421" y="746" on="0"/>
        <pt x="257" y="794" on="0"/>
        <pt x="251" y="794" on="1"/>
        <pt x="240" y="794" on="0"/>
        <pt x="224" y="750" on="1"/>
      </contour>
    </TTGlyph>
    <TTGlyph name="O" xMin="72" yMin="-13" xMax="584" yMax="708">
      <contour>
        <pt x="385" y="-13" on="0"/>
        <pt x="271" y="-13" on="0"/>
        <pt x="185" y="19" on="0"/>
        <pt x="148" y="58" on="1"/>
        <pt x="72" y="137" on="0"/>
        <pt x="72" y="349" on="1"/>
        <pt x="72" y="560" on="0"/>
        <pt x="148" y="638" on="1"/>
        <pt x="185" y="676" on="0"/>
        <pt x="271" y="708" on="0"/>
        <pt x="385" y="708" on="0"/>
        <pt x="471" y="676" on="0"/>
        <pt x="508" y="638" on="1"/>
        <pt x="584" y="560" on="0"/>
        <pt x="584" y="349" on="1"/>
        <pt x="584" y="137" on="0"/>
        <pt x="508" y="58" on="1"/>
        <pt x="471" y="19" on="0"/>
      </contour>
      <contour>
        <pt x="198" y="594" on="0"/>
        <pt x="162" y="469" on="0"/>
        <pt x="162" y="253" on="0"/>
        <pt x="180" y="141" on="0"/>
        <pt x="225" y="82" on="0"/>
        <pt x="281" y="64" on="0"/>
        <pt x="391" y="64" on="0"/>
        <pt x="424" y="82" on="1"/>
        <pt x="495" y="121" on="0"/>
        <pt x="495" y="346" on="1"/>
        <pt x="495" y="573" on="0"/>
        <pt x="425" y="613" on="1"/>
        <pt x="392" y="632" on="0"/>
        <pt x="264" y="632" on="0"/>
      </contour>
    </TTGlyph>
    <TTGlyph name="OE" xMin="72" yMin="-13" xMax="841" yMax="708">
      <contour>
        <pt x="499" y="642" on="1"/>
        <pt x="499" y="695" on="1"/>
        <pt x="841" y="695" on="1"/>
        <pt x="841" y="619" on="1"/>
        <pt x="583" y="622" on="1"/>
        <pt x="578" y="389" on="1"/>
        <pt x="817" y="389" on="1"/>
        <pt x="817" y="318" on="1"/>
        <pt x="578" y="318" on="1"/>
        <pt x="583" y="73" on="1"/>
        <pt x="841" y="75" on="1"/>
        <pt x="841" y="0" on="1"/>
        <pt x="499" y="0" on="1"/>
        <pt x="499" y="54" on="1"/>
        <pt x="495" y="54" on="1"/>
        <pt x="437" y="-13" on="0"/>
        <pt x="328" y="-13" on="1"/>
        <pt x="271" y="-13" on="0"/>
        <pt x="185" y="19" on="0"/>
        <pt x="148" y="58" on="1"/>
        <pt x="72" y="137" on="0"/>
        <pt x="72" y="349" on="1"/>
        <pt x="72" y="560" on="0"/>
        <pt x="148" y="638" on="1"/>
        <pt x="185" y="676" on="0"/>
        <pt x="271" y="708" on="0"/>
        <pt x="328" y="708" on="1"/>
        <pt x="435" y="708" on="0"/>
        <pt x="495" y="642" on="1"/>
      </contour>
      <contour>
        <pt x="198" y="594" on="0"/>
        <pt x="162" y="469" on="0"/>
        <pt x="162" y="253" on="0"/>
        <pt x="180" y="141" on="0"/>
        <pt x="225" y="82" on="0"/>
        <pt x="281" y="64" on="0"/>
        <pt x="391" y="64" on="0"/>
        <pt x="424" y="82" on="1"/>
        <pt x="495" y="121" on="0"/>
        <pt x="495" y="346" on="1"/>
        <pt x="495" y="573" on="0"/>
        <pt x="425" y="613" on="1"/>
        <pt x="392" y="632" on="0"/>
        <pt x="264" y="632" on="0"/>
      </contour>
    </TTGlyph>
    <TTGlyph name="Oacute" xMin="72" yMin="-13" xMax="584" yMax="869">
      <contour>
        <pt x="385" y="-13" on="0"/>
        <pt x="271" y="-13" on="0"/>
        <pt x="185" y="19" on="0"/>
        <pt x="148" y="58" on="1"/>
        <pt x="72" y="137" on="0"/>
        <pt x="72" y="349" on="1"/>
        <pt x="72" y="560" on="0"/>
        <pt x="148" y="638" on="1"/>
        <pt x="185" y="676" on="0"/>
        <pt x="271" y="708" on="0"/>
        <pt x="385" y="708" on="0"/>
        <pt x="471" y="676" on="0"/>
        <pt x="508" y="638" on="1"/>
        <pt x="584" y="560" on="0"/>
        <pt x="584" y="349" on="1"/>
        <pt x="584" y="137" on="0"/>
        <pt x="508" y="58" on="1"/>
        <pt x="471" y="19" on="0"/>
      </contour>
      <contour>
        <pt x="162" y="253" on="0"/>
        <pt x="180" y="141" on="0"/>
        <pt x="225" y="82" on="0"/>
        <pt x="281" y="64" on="0"/>
        <pt x="391" y="64" on="0"/>
        <pt x="424" y="82" on="1"/>
        <pt x="495" y="121" on="0"/>
        <pt x="495" y="346" on="1"/>
        <pt x="495" y="573" on="0"/>
        <pt x="425" y="613" on="1"/>
        <pt x="392" y="632" on="0"/>
        <pt x="264" y="632" on="0"/>
        <pt x="198" y="594" on="0"/>
        <pt x="162" y="469" on="0"/>
      </contour>
      <contour>
        <pt x="472" y="869" on="1"/>
        <pt x="500" y="796" on="1"/>
        <pt x="265" y="736" on="1"/>
        <pt x="247" y="787" on="1"/>
      </contour>
    </TTGlyph>
    <TTGlyph name="Ocircumflex" xMin="72" yMin="-13" xMax="584" yMax="866">
      <contour>
        <pt x="385" y="-13" on="0"/>
        <pt x="271" y="-13" on="0"/>
        <pt x="185" y="19" on="0"/>
        <pt x="148" y="58" on="1"/>
        <pt x="72" y="137" on="0"/>
        <pt x="72" y="349" on="1"/>
        <pt x="72" y="560" on="0"/>
        <pt x="148" y="638" on="1"/>
        <pt x="185" y="676" on="0"/>
        <pt x="271" y="708" on="0"/>
        <pt x="385" y="708" on="0"/>
        <pt x="471" y="676" on="0"/>
        <pt x="508" y="638" on="1"/>
        <pt x="584" y="560" on="0"/>
        <pt x="584" y="349" on="1"/>
        <pt x="584" y="137" on="0"/>
        <pt x="508" y="58" on="1"/>
        <pt x="471" y="19" on="0"/>
      </contour>
      <contour>
        <pt x="162" y="253" on="0"/>
        <pt x="180" y="141" on="0"/>
        <pt x="225" y="82" on="0"/>
        <pt x="281" y="64" on="0"/>
        <pt x="391" y="64" on="0"/>
        <pt x="424" y="82" on="1"/>
        <pt x="495" y="121" on="0"/>
        <pt x="495" y="346" on="1"/>
        <pt x="495" y="573" on="0"/>
        <pt x="425" y="613" on="1"/>
        <pt x="392" y="632" on="0"/>
        <pt x="264" y="632" on="0"/>
        <pt x="198" y="594" on="0"/>
        <pt x="162" y="469" on="0"/>
      </contour>
      <contour>
        <pt x="481" y="771" on="1"/>
        <pt x="453" y="733" on="1"/>
        <pt x="338" y="794" on="1"/>
        <pt x="331" y="794" on="1"/>
        <pt x="216" y="733" on="1"/>
        <pt x="188" y="771" on="1"/>
        <pt x="309" y="866" on="1"/>
        <pt x="360" y="866" on="1"/>
      </contour>
    </TTGlyph>
    <TTGlyph name="Odieresis" xMin="72" yMin="-13" xMax="584" yMax="844">
      <contour>
        <pt x="385" y="-13" on="0"/>
        <pt x="271" y="-13" on="0"/>
        <pt x="185" y="19" on="0"/>
        <pt x="148" y="58" on="1"/>
        <pt x="72" y="137" on="0"/>
        <pt x="72" y="349" on="1"/>
        <pt x="72" y="560" on="0"/>
        <pt x="148" y="638" on="1"/>
        <pt x="185" y="676" on="0"/>
        <pt x="271" y="708" on="0"/>
        <pt x="385" y="708" on="0"/>
        <pt x="471" y="676" on="0"/>
        <pt x="508" y="638" on="1"/>
        <pt x="584" y="560" on="0"/>
        <pt x="584" y="349" on="1"/>
        <pt x="584" y="137" on="0"/>
        <pt x="508" y="58" on="1"/>
        <pt x="471" y="19" on="0"/>
      </contour>
      <contour>
        <pt x="198" y="594" on="0"/>
        <pt x="162" y="469" on="0"/>
        <pt x="162" y="253" on="0"/>
        <pt x="180" y="141" on="0"/>
        <pt x="225" y="82" on="0"/>
        <pt x="281" y="64" on="0"/>
        <pt x="391" y="64" on="0"/>
        <pt x="424" y="82" on="1"/>
        <pt x="495" y="121" on="0"/>
        <pt x="495" y="346" on="1"/>
        <pt x="495" y="573" on="0"/>
        <pt x="425" y="613" on="1"/>
        <pt x="392" y="632" on="0"/>
        <pt x="264" y="632" on="0"/>
      </contour>
      <contour>
        <pt x="289" y="762" on="1"/>
        <pt x="190" y="762" on="1"/>
        <pt x="190" y="844" on="1"/>
        <pt x="289" y="844" on="1"/>
      </contour>
      <contour>
        <pt x="475" y="762" on="1"/>
        <pt x="377" y="762" on="1"/>
        <pt x="377" y="844" on="1"/>
        <pt x="475" y="844" on="1"/>
      </contour>
    </TTGlyph>
    <TTGlyph name="Ograve" xMin="72" yMin="-13" xMax="584" yMax="868">
      <contour>
        <pt x="385" y="-13" on="0"/>
        <pt x="271" y="-13" on="0"/>
        <pt x="185" y="19" on="0"/>
        <pt x="148" y="58" on="1"/>
        <pt x="72" y="137" on="0"/>
        <pt x="72" y="349" on="1"/>
        <pt x="72" y="560" on="0"/>
        <pt x="148" y="638" on="1"/>
        <pt x="185" y="676" on="0"/>
        <pt x="271" y="708" on="0"/>
        <pt x="385" y="708" on="0"/>
        <pt x="471" y="676" on="0"/>
        <pt x="508" y="638" on="1"/>
        <pt x="584" y="560" on="0"/>
        <pt x="584" y="349" on="1"/>
        <pt x="584" y="137" on="0"/>
        <pt x="508" y="58" on="1"/>
        <pt x="471" y="19" on="0"/>
      </contour>
      <contour>
        <pt x="198" y="594" on="0"/>
        <pt x="162" y="469" on="0"/>
        <pt x="162" y="253" on="0"/>
        <pt x="180" y="141" on="0"/>
        <pt x="225" y="82" on="0"/>
        <pt x="281" y="64" on="0"/>
        <pt x="391" y="64" on="0"/>
        <pt x="424" y="82" on="1"/>
        <pt x="495" y="121" on="0"/>
        <pt x="495" y="346" on="1"/>
        <pt x="495" y="573" on="0"/>
        <pt x="425" y="613" on="1"/>
        <pt x="392" y="632" on="0"/>
        <pt x="264" y="632" on="0"/>
      </contour>
      <contour>
        <pt x="211" y="797" on="1"/>
        <pt x="237" y="868" on="1"/>
        <pt x="463" y="787" on="1"/>
        <pt x="443" y="736" on="1"/>
      </contour>
    </TTGlyph>
    <TTGlyph name="Oslash" xMin="72" yMin="-39" xMax="584" yMax="729">
      <contour>
        <pt x="471" y="19" on="0"/>
        <pt x="385" y="-13" on="0"/>
        <pt x="263" y="-13" on="0"/>
        <pt x="214" y="8" on="1"/>
        <pt x="193" y="-39" on="1"/>
        <pt x="113" y="-39" on="1"/>
        <pt x="156" y="49" on="1"/>
        <pt x="72" y="133" on="0"/>
        <pt x="72" y="349" on="1"/>
        <pt x="72" y="560" on="0"/>
        <pt x="148" y="638" on="1"/>
        <pt x="185" y="676" on="0"/>
        <pt x="271" y="708" on="0"/>
        <pt x="400" y="708" on="0"/>
        <pt x="451" y="682" on="1"/>
        <pt x="472" y="729" on="1"/>
        <pt x="551" y="729" on="1"/>
        <pt x="508" y="638" on="1"/>
        <pt x="584" y="552" on="0"/>
        <pt x="584" y="349" on="1"/>
        <pt x="584" y="137" on="0"/>
        <pt x="508" y="58" on="1"/>
      </contour>
      <contour>
        <pt x="198" y="594" on="0"/>
        <pt x="162" y="469" on="0"/>
        <pt x="162" y="187" on="0"/>
        <pt x="193" y="126" on="1"/>
        <pt x="306" y="359" on="1"/>
        <pt x="421" y="615" on="1"/>
        <pt x="388" y="632" on="0"/>
        <pt x="264" y="632" on="0"/>
      </contour>
      <contour>
        <pt x="245" y="76" on="1"/>
        <pt x="276" y="64" on="0"/>
        <pt x="391" y="64" on="0"/>
        <pt x="424" y="82" on="1"/>
        <pt x="495" y="121" on="0"/>
        <pt x="495" y="346" on="1"/>
        <pt x="495" y="495" on="0"/>
        <pt x="469" y="557" on="1"/>
        <pt x="360" y="328" on="1"/>
      </contour>
    </TTGlyph>
    <TTGlyph name="Otilde" xMin="72" yMin="-13" xMax="584" yMax="857">
      <contour>
        <pt x="385" y="-13" on="0"/>
        <pt x="271" y="-13" on="0"/>
        <pt x="185" y="19" on="0"/>
        <pt x="148" y="58" on="1"/>
        <pt x="72" y="137" on="0"/>
        <pt x="72" y="349" on="1"/>
        <pt x="72" y="560" on="0"/>
        <pt x="148" y="638" on="1"/>
        <pt x="185" y="676" on="0"/>
        <pt x="271" y="708" on="0"/>
        <pt x="385" y="708" on="0"/>
        <pt x="471" y="676" on="0"/>
        <pt x="508" y="638" on="1"/>
        <pt x="584" y="560" on="0"/>
        <pt x="584" y="349" on="1"/>
        <pt x="584" y="137" on="0"/>
        <pt x="508" y="58" on="1"/>
        <pt x="471" y="19" on="0"/>
      </contour>
      <contour>
        <pt x="162" y="253" on="0"/>
        <pt x="180" y="141" on="0"/>
        <pt x="225" y="82" on="0"/>
        <pt x="281" y="64" on="0"/>
        <pt x="391" y="64" on="0"/>
        <pt x="424" y="82" on="1"/>
        <pt x="495" y="121" on="0"/>
        <pt x="495" y="346" on="1"/>
        <pt x="495" y="573" on="0"/>
        <pt x="425" y="613" on="1"/>
        <pt x="392" y="632" on="0"/>
        <pt x="264" y="632" on="0"/>
        <pt x="198" y="594" on="0"/>
        <pt x="162" y="469" on="0"/>
      </contour>
      <contour>
        <pt x="157" y="756" on="1"/>
        <pt x="157" y="857" on="0"/>
        <pt x="225" y="857" on="1"/>
        <pt x="256" y="857" on="0"/>
        <pt x="417" y="811" on="0"/>
        <pt x="424" y="811" on="1"/>
        <pt x="436" y="811" on="0"/>
        <pt x="450" y="854" on="1"/>
        <pt x="503" y="847" on="1"/>
        <pt x="503" y="793" on="0"/>
        <pt x="467" y="746" on="0"/>
        <pt x="406" y="746" on="0"/>
        <pt x="242" y="794" on="0"/>
        <pt x="236" y="794" on="1"/>
        <pt x="225" y="794" on="0"/>
        <pt x="209" y="750" on="1"/>
      </contour>
    </TTGlyph>
    <TTGlyph name="P" xMin="105" yMin="0" xMax="522" yMax="708">
      <contour>
        <pt x="189" y="0" on="1"/>
        <pt x="105" y="0" on="1"/>
        <pt x="109" y="322" on="1"/>
        <pt x="105" y="694" on="1"/>
        <pt x="228" y="708" on="0"/>
        <pt x="326" y="708" on="1"/>
        <pt x="522" y="708" on="0"/>
        <pt x="522" y="475" on="1"/>
        <pt x="522" y="231" on="0"/>
        <pt x="314" y="231" on="1"/>
        <pt x="189" y="237" on="1"/>
      </contour>
      <contour>
        <pt x="189" y="314" on="1"/>
        <pt x="260" y="302" on="0"/>
        <pt x="385" y="302" on="0"/>
        <pt x="404" y="321" on="1"/>
        <pt x="433" y="351" on="0"/>
        <pt x="433" y="605" on="0"/>
        <pt x="399" y="628" on="1"/>
        <pt x="376" y="644" on="0"/>
        <pt x="242" y="644" on="0"/>
        <pt x="189" y="633" on="1"/>
      </contour>
    </TTGlyph>
    <TTGlyph name="Q" xMin="72" yMin="-92" xMax="619" yMax="708">
      <contour>
        <pt x="415" y="-2" on="1"/>
        <pt x="378" y="-13" on="0"/>
        <pt x="271" y="-13" on="0"/>
        <pt x="185" y="19" on="0"/>
        <pt x="148" y="58" on="1"/>
        <pt x="72" y="137" on="0"/>
        <pt x="72" y="349" on="1"/>
        <pt x="72" y="560" on="0"/>
        <pt x="148" y="638" on="1"/>
        <pt x="185" y="676" on="0"/>
        <pt x="271" y="708" on="0"/>
        <pt x="385" y="708" on="0"/>
        <pt x="471" y="676" on="0"/>
        <pt x="508" y="638" on="1"/>
        <pt x="584" y="560" on="0"/>
        <pt x="584" y="119" on="0"/>
        <pt x="482" y="37" on="1"/>
        <pt x="482" y="31" on="1"/>
        <pt x="619" y="-14" on="1"/>
        <pt x="586" y="-92" on="1"/>
      </contour>
      <contour>
        <pt x="198" y="594" on="0"/>
        <pt x="162" y="469" on="0"/>
        <pt x="162" y="253" on="0"/>
        <pt x="180" y="141" on="0"/>
        <pt x="225" y="82" on="0"/>
        <pt x="281" y="64" on="0"/>
        <pt x="391" y="64" on="0"/>
        <pt x="424" y="82" on="1"/>
        <pt x="495" y="121" on="0"/>
        <pt x="495" y="346" on="1"/>
        <pt x="495" y="573" on="0"/>
        <pt x="425" y="613" on="1"/>
        <pt x="392" y="632" on="0"/>
        <pt x="264" y="632" on="0"/>
      </contour>
    </TTGlyph>
    <TTGlyph name="R" xMin="105" yMin="0" xMax="559" yMax="708">
      <contour>
        <pt x="190" y="0" on="1"/>
        <pt x="105" y="0" on="1"/>
        <pt x="110" y="329" on="1"/>
        <pt x="107" y="695" on="1"/>
        <pt x="204" y="708" on="0"/>
        <pt x="328" y="708" on="1"/>
        <pt x="550" y="708" on="0"/>
        <pt x="550" y="492" on="1"/>
        <pt x="550" y="321" on="0"/>
        <pt x="402" y="286" on="1"/>
        <pt x="402" y="282" on="1"/>
        <pt x="559" y="0" on="1"/>
        <pt x="459" y="0" on="1"/>
        <pt x="316" y="276" on="1"/>
        <pt x="190" y="281" on="1"/>
      </contour>
      <contour>
        <pt x="189" y="356" on="1"/>
        <pt x="283" y="346" on="0"/>
        <pt x="409" y="346" on="0"/>
        <pt x="461" y="413" on="0"/>
        <pt x="461" y="493" on="1"/>
        <pt x="461" y="607" on="0"/>
        <pt x="422" y="630" on="1"/>
        <pt x="399" y="644" on="0"/>
        <pt x="274" y="644" on="0"/>
        <pt x="191" y="633" on="1"/>
      </contour>
    </TTGlyph>
    <TTGlyph name="Racute" xMin="105" yMin="0" xMax="559" yMax="877">
      <contour>
        <pt x="190" y="0" on="1"/>
        <pt x="105" y="0" on="1"/>
        <pt x="110" y="329" on="1"/>
        <pt x="107" y="695" on="1"/>
        <pt x="204" y="708" on="0"/>
        <pt x="328" y="708" on="1"/>
        <pt x="550" y="708" on="0"/>
        <pt x="550" y="492" on="1"/>
        <pt x="550" y="321" on="0"/>
        <pt x="402" y="286" on="1"/>
        <pt x="402" y="282" on="1"/>
        <pt x="559" y="0" on="1"/>
        <pt x="459" y="0" on="1"/>
        <pt x="316" y="276" on="1"/>
        <pt x="190" y="281" on="1"/>
      </contour>
      <contour>
        <pt x="189" y="356" on="1"/>
        <pt x="283" y="346" on="0"/>
        <pt x="409" y="346" on="0"/>
        <pt x="461" y="413" on="0"/>
        <pt x="461" y="493" on="1"/>
        <pt x="461" y="607" on="0"/>
        <pt x="422" y="630" on="1"/>
        <pt x="399" y="644" on="0"/>
        <pt x="274" y="644" on="0"/>
        <pt x="191" y="633" on="1"/>
      </contour>
      <contour>
        <pt x="431" y="877" on="1"/>
        <pt x="462" y="810" on="1"/>
        <pt x="229" y="732" on="1"/>
        <pt x="209" y="782" on="1"/>
      </contour>
    </TTGlyph>
    <TTGlyph name="Rcaron" xMin="105" yMin="0" xMax="559" yMax="879">
      <contour>
        <pt x="190" y="0" on="1"/>
        <pt x="105" y="0" on="1"/>
        <pt x="110" y="329" on="1"/>
        <pt x="107" y="695" on="1"/>
        <pt x="204" y="708" on="0"/>
        <pt x="328" y="708" on="1"/>
        <pt x="550" y="708" on="0"/>
        <pt x="550" y="492" on="1"/>
        <pt x="550" y="321" on="0"/>
        <pt x="402" y="286" on="1"/>
        <pt x="402" y="282" on="1"/>
        <pt x="559" y="0" on="1"/>
        <pt x="459" y="0" on="1"/>
        <pt x="316" y="276" on="1"/>
        <pt x="190" y="281" on="1"/>
      </contour>
      <contour>
        <pt x="189" y="356" on="1"/>
        <pt x="283" y="346" on="0"/>
        <pt x="409" y="346" on="0"/>
        <pt x="461" y="413" on="0"/>
        <pt x="461" y="493" on="1"/>
        <pt x="461" y="607" on="0"/>
        <pt x="422" y="630" on="1"/>
        <pt x="399" y="644" on="0"/>
        <pt x="274" y="644" on="0"/>
        <pt x="191" y="633" on="1"/>
      </contour>
      <contour>
        <pt x="437" y="879" on="1"/>
        <pt x="465" y="841" on="1"/>
        <pt x="344" y="746" on="1"/>
        <pt x="293" y="746" on="1"/>
        <pt x="172" y="841" on="1"/>
        <pt x="200" y="879" on="1"/>
        <pt x="315" y="818" on="1"/>
        <pt x="322" y="818" on="1"/>
      </contour>
    </TTGlyph>
    <TTGlyph name="Rcommaaccent" xMin="105" yMin="-233" xMax="559" yMax="708">
      <contour>
        <pt x="279" y="-55" on="1"/>
        <pt x="362" y="-55" on="1"/>
        <pt x="360" y="-147" on="0"/>
        <pt x="325" y="-186" on="1"/>
        <pt x="297" y="-217" on="0"/>
        <pt x="254" y="-233" on="1"/>
        <pt x="232" y="-192" on="1"/>
        <pt x="264" y="-176" on="0"/>
        <pt x="279" y="-126" on="0"/>
      </contour>
      <contour>
        <pt x="190" y="0" on="1"/>
        <pt x="105" y="0" on="1"/>
        <pt x="110" y="329" on="1"/>
        <pt x="107" y="695" on="1"/>
        <pt x="204" y="708" on="0"/>
        <pt x="328" y="708" on="1"/>
        <pt x="550" y="708" on="0"/>
        <pt x="550" y="492" on="1"/>
        <pt x="550" y="321" on="0"/>
        <pt x="402" y="286" on="1"/>
        <pt x="402" y="282" on="1"/>
        <pt x="559" y="0" on="1"/>
        <pt x="459" y="0" on="1"/>
        <pt x="316" y="276" on="1"/>
        <pt x="190" y="281" on="1"/>
      </contour>
      <contour>
        <pt x="189" y="356" on="1"/>
        <pt x="283" y="346" on="0"/>
        <pt x="409" y="346" on="0"/>
        <pt x="461" y="413" on="0"/>
        <pt x="461" y="493" on="1"/>
        <pt x="461" y="607" on="0"/>
        <pt x="422" y="630" on="1"/>
        <pt x="399" y="644" on="0"/>
        <pt x="274" y="644" on="0"/>
        <pt x="191" y="633" on="1"/>
      </contour>
    </TTGlyph>
    <TTGlyph name="S" xMin="36" yMin="-13" xMax="455" yMax="708">
      <contour>
        <pt x="36" y="51" on="1"/>
        <pt x="66" y="119" on="1"/>
        <pt x="105" y="98" on="0"/>
        <pt x="220" y="64" on="0"/>
        <pt x="305" y="64" on="0"/>
        <pt x="326" y="77" on="1"/>
        <pt x="368" y="106" on="0"/>
        <pt x="368" y="179" on="1"/>
        <pt x="368" y="230" on="0"/>
        <pt x="307" y="290" on="0"/>
        <pt x="215" y="329" on="0"/>
        <pt x="184" y="342" on="0"/>
        <pt x="126" y="373" on="0"/>
        <pt x="101" y="400" on="0"/>
        <pt x="86" y="420" on="1"/>
        <pt x="58" y="457" on="0"/>
        <pt x="58" y="605" on="0"/>
        <pt x="165" y="708" on="0"/>
        <pt x="264" y="708" on="1"/>
        <pt x="341" y="708" on="0"/>
        <pt x="427" y="686" on="1"/>
        <pt x="413" y="614" on="1"/>
        <pt x="329" y="632" on="0"/>
        <pt x="204" y="632" on="0"/>
        <pt x="182" y="619" on="1"/>
        <pt x="146" y="599" on="0"/>
        <pt x="146" y="533" on="1"/>
        <pt x="146" y="489" on="0"/>
        <pt x="175" y="456" on="1"/>
        <pt x="196" y="433" on="0"/>
        <pt x="248" y="410" on="1"/>
        <pt x="261" y="404" on="0"/>
        <pt x="330" y="376" on="0"/>
        <pt x="376" y="350" on="0"/>
        <pt x="402" y="327" on="1"/>
        <pt x="455" y="281" on="0"/>
        <pt x="455" y="99" on="0"/>
        <pt x="339" y="-13" on="0"/>
        <pt x="246" y="-13" on="1"/>
        <pt x="197" y="-13" on="0"/>
        <pt x="92" y="19" on="0"/>
        <pt x="64" y="35" on="1"/>
      </contour>
    </TTGlyph>
    <TTGlyph name="T" xMin="2" yMin="0" xMax="472" yMax="695">
      <contour>
        <pt x="2" y="695" on="1"/>
        <pt x="472" y="695" on="1"/>
        <pt x="472" y="619" on="1"/>
        <pt x="277" y="622" on="1"/>
        <pt x="279" y="0" on="1"/>
        <pt x="196" y="0" on="1"/>
        <pt x="198" y="622" on="1"/>
        <pt x="2" y="619" on="1"/>
      </contour>
    </TTGlyph>
    <TTGlyph name="Thorn" xMin="103" yMin="0" xMax="532" yMax="695">
      <contour>
        <pt x="337" y="611" on="1"/>
        <pt x="431" y="611" on="0"/>
        <pt x="532" y="494" on="0"/>
        <pt x="532" y="379" on="1"/>
        <pt x="532" y="239" on="0"/>
        <pt x="462" y="184" on="1"/>
        <pt x="402" y="137" on="0"/>
        <pt x="313" y="137" on="1"/>
        <pt x="186" y="143" on="1"/>
        <pt x="187" y="0" on="1"/>
        <pt x="103" y="0" on="1"/>
        <pt x="106" y="325" on="1"/>
        <pt x="103" y="695" on="1"/>
        <pt x="187" y="695" on="1"/>
        <pt x="186" y="604" on="1"/>
        <pt x="291" y="611" on="0"/>
      </contour>
      <contour>
        <pt x="185" y="220" on="1"/>
        <pt x="259" y="208" on="0"/>
        <pt x="392" y="208" on="0"/>
        <pt x="412" y="227" on="1"/>
        <pt x="443" y="257" on="0"/>
        <pt x="443" y="509" on="0"/>
        <pt x="407" y="531" on="1"/>
        <pt x="380" y="547" on="0"/>
        <pt x="247" y="547" on="0"/>
        <pt x="185" y="536" on="1"/>
      </contour>
    </TTGlyph>
    <TTGlyph name="U" xMin="105" yMin="-13" xMax="556" yMax="695">
      <contour>
        <pt x="472" y="695" on="1"/>
        <pt x="556" y="695" on="1"/>
        <pt x="556" y="311" on="1"/>
        <pt x="556" y="128" on="0"/>
        <pt x="446" y="-13" on="0"/>
        <pt x="215" y="-13" on="0"/>
        <pt x="105" y="126" on="0"/>
        <pt x="105" y="302" on="1"/>
        <pt x="105" y="695" on="1"/>
        <pt x="189" y="695" on="1"/>
        <pt x="189" y="329" on="1"/>
        <pt x="189" y="207" on="0"/>
        <pt x="213" y="98" on="0"/>
        <pt x="267" y="63" on="0"/>
        <pt x="368" y="63" on="0"/>
        <pt x="413" y="74" on="0"/>
        <pt x="449" y="103" on="0"/>
        <pt x="456" y="134" on="1"/>
        <pt x="472" y="198" on="0"/>
        <pt x="472" y="329" on="1"/>
      </contour>
    </TTGlyph>
    <TTGlyph name="Uacute" xMin="105" yMin="-13" xMax="556" yMax="869">
      <contour>
        <pt x="556" y="695" on="1"/>
        <pt x="556" y="311" on="1"/>
        <pt x="556" y="128" on="0"/>
        <pt x="446" y="-13" on="0"/>
        <pt x="215" y="-13" on="0"/>
        <pt x="105" y="126" on="0"/>
        <pt x="105" y="302" on="1"/>
        <pt x="105" y="695" on="1"/>
        <pt x="189" y="695" on="1"/>
        <pt x="189" y="329" on="1"/>
        <pt x="189" y="207" on="0"/>
        <pt x="213" y="98" on="0"/>
        <pt x="267" y="63" on="0"/>
        <pt x="368" y="63" on="0"/>
        <pt x="390" y="68" on="1"/>
        <pt x="444" y="82" on="0"/>
        <pt x="456" y="134" on="1"/>
        <pt x="472" y="198" on="0"/>
        <pt x="472" y="329" on="1"/>
        <pt x="472" y="695" on="1"/>
      </contour>
      <contour>
        <pt x="468" y="869" on="1"/>
        <pt x="496" y="796" on="1"/>
        <pt x="261" y="736" on="1"/>
        <pt x="243" y="787" on="1"/>
      </contour>
    </TTGlyph>
    <TTGlyph name="Ucircumflex" xMin="105" yMin="-13" xMax="556" yMax="866">
      <contour>
        <pt x="556" y="695" on="1"/>
        <pt x="556" y="311" on="1"/>
        <pt x="556" y="128" on="0"/>
        <pt x="446" y="-13" on="0"/>
        <pt x="215" y="-13" on="0"/>
        <pt x="105" y="126" on="0"/>
        <pt x="105" y="302" on="1"/>
        <pt x="105" y="695" on="1"/>
        <pt x="189" y="695" on="1"/>
        <pt x="189" y="329" on="1"/>
        <pt x="189" y="207" on="0"/>
        <pt x="213" y="98" on="0"/>
        <pt x="267" y="63" on="0"/>
        <pt x="368" y="63" on="0"/>
        <pt x="390" y="68" on="1"/>
        <pt x="444" y="82" on="0"/>
        <pt x="456" y="134" on="1"/>
        <pt x="472" y="198" on="0"/>
        <pt x="472" y="329" on="1"/>
        <pt x="472" y="695" on="1"/>
      </contour>
      <contour>
        <pt x="478" y="771" on="1"/>
        <pt x="450" y="733" on="1"/>
        <pt x="335" y="794" on="1"/>
        <pt x="328" y="794" on="1"/>
        <pt x="213" y="733" on="1"/>
        <pt x="185" y="771" on="1"/>
        <pt x="306" y="866" on="1"/>
        <pt x="357" y="866" on="1"/>
      </contour>
    </TTGlyph>
    <TTGlyph name="Udieresis" xMin="105" yMin="-13" xMax="556" yMax="841">
      <contour>
        <pt x="472" y="695" on="1"/>
        <pt x="556" y="695" on="1"/>
        <pt x="556" y="311" on="1"/>
        <pt x="556" y="128" on="0"/>
        <pt x="446" y="-13" on="0"/>
        <pt x="215" y="-13" on="0"/>
        <pt x="105" y="126" on="0"/>
        <pt x="105" y="302" on="1"/>
        <pt x="105" y="695" on="1"/>
        <pt x="189" y="695" on="1"/>
        <pt x="189" y="329" on="1"/>
        <pt x="189" y="207" on="0"/>
        <pt x="213" y="98" on="0"/>
        <pt x="267" y="63" on="0"/>
        <pt x="368" y="63" on="0"/>
        <pt x="413" y="74" on="0"/>
        <pt x="449" y="103" on="0"/>
        <pt x="456" y="134" on="1"/>
        <pt x="472" y="198" on="0"/>
        <pt x="472" y="329" on="1"/>
      </contour>
      <contour>
        <pt x="287" y="759" on="1"/>
        <pt x="188" y="759" on="1"/>
        <pt x="188" y="841" on="1"/>
        <pt x="287" y="841" on="1"/>
      </contour>
      <contour>
        <pt x="473" y="759" on="1"/>
        <pt x="375" y="759" on="1"/>
        <pt x="375" y="841" on="1"/>
        <pt x="473" y="841" on="1"/>
      </contour>
    </TTGlyph>
    <TTGlyph name="Ugrave" xMin="105" yMin="-13" xMax="556" yMax="868">
      <contour>
        <pt x="472" y="695" on="1"/>
        <pt x="556" y="695" on="1"/>
        <pt x="556" y="311" on="1"/>
        <pt x="556" y="128" on="0"/>
        <pt x="446" y="-13" on="0"/>
        <pt x="215" y="-13" on="0"/>
        <pt x="105" y="126" on="0"/>
        <pt x="105" y="302" on="1"/>
        <pt x="105" y="695" on="1"/>
        <pt x="189" y="695" on="1"/>
        <pt x="189" y="329" on="1"/>
        <pt x="189" y="207" on="0"/>
        <pt x="213" y="98" on="0"/>
        <pt x="267" y="63" on="0"/>
        <pt x="368" y="63" on="0"/>
        <pt x="413" y="74" on="0"/>
        <pt x="449" y="103" on="0"/>
        <pt x="456" y="134" on="1"/>
        <pt x="472" y="198" on="0"/>
        <pt x="472" y="329" on="1"/>
      </contour>
      <contour>
        <pt x="170" y="797" on="1"/>
        <pt x="196" y="868" on="1"/>
        <pt x="422" y="787" on="1"/>
        <pt x="402" y="736" on="1"/>
      </contour>
    </TTGlyph>
    <TTGlyph name="V" xMin="19" yMin="0" xMax="503" yMax="695">
      <contour>
        <pt x="264" y="67" on="1"/>
        <pt x="413" y="695" on="1"/>
        <pt x="503" y="695" on="1"/>
        <pt x="315" y="0" on="1"/>
        <pt x="206" y="0" on="1"/>
        <pt x="19" y="695" on="1"/>
        <pt x="108" y="695" on="1"/>
        <pt x="258" y="67" on="1"/>
      </contour>
    </TTGlyph>
    <TTGlyph name="W" xMin="33" yMin="0" xMax="705" yMax="695">
      <contour>
        <pt x="312" y="527" on="1"/>
        <pt x="426" y="527" on="1"/>
        <pt x="541" y="74" on="1"/>
        <pt x="547" y="74" on="1"/>
        <pt x="619" y="695" on="1"/>
        <pt x="705" y="695" on="1"/>
        <pt x="603" y="0" on="1"/>
        <pt x="489" y="0" on="1"/>
        <pt x="372" y="455" on="1"/>
        <pt x="367" y="455" on="1"/>
        <pt x="252" y="0" on="1"/>
        <pt x="132" y="0" on="1"/>
        <pt x="33" y="695" on="1"/>
        <pt x="119" y="695" on="1"/>
        <pt x="192" y="74" on="1"/>
        <pt x="197" y="74" on="1"/>
      </contour>
    </TTGlyph>
    <TTGlyph name="X" xMin="10" yMin="0" xMax="514" yMax="695">
      <contour>
        <pt x="10" y="0" on="1"/>
        <pt x="210" y="344" on="1"/>
        <pt x="15" y="695" on="1"/>
        <pt x="113" y="695" on="1"/>
        <pt x="257" y="400" on="1"/>
        <pt x="263" y="400" on="1"/>
        <pt x="411" y="695" on="1"/>
        <pt x="508" y="695" on="1"/>
        <pt x="314" y="341" on="1"/>
        <pt x="514" y="0" on="1"/>
        <pt x="417" y="0" on="1"/>
        <pt x="266" y="284" on="1"/>
        <pt x="261" y="284" on="1"/>
        <pt x="107" y="0" on="1"/>
      </contour>
    </TTGlyph>
    <TTGlyph name="Y" xMin="5" yMin="0" xMax="496" yMax="695">
      <contour>
        <pt x="207" y="0" on="1"/>
        <pt x="209" y="259" on="1"/>
        <pt x="5" y="695" on="1"/>
        <pt x="99" y="695" on="1"/>
        <pt x="248" y="329" on="1"/>
        <pt x="252" y="329" on="1"/>
        <pt x="402" y="695" on="1"/>
        <pt x="496" y="695" on="1"/>
        <pt x="291" y="258" on="1"/>
        <pt x="293" y="0" on="1"/>
      </contour>
    </TTGlyph>
    <TTGlyph name="Yacute" xMin="5" yMin="0" xMax="496" yMax="869">
      <contour>
        <pt x="207" y="0" on="1"/>
        <pt x="209" y="259" on="1"/>
        <pt x="5" y="695" on="1"/>
        <pt x="99" y="695" on="1"/>
        <pt x="248" y="329" on="1"/>
        <pt x="252" y="329" on="1"/>
        <pt x="402" y="695" on="1"/>
        <pt x="496" y="695" on="1"/>
        <pt x="291" y="258" on="1"/>
        <pt x="293" y="0" on="1"/>
      </contour>
      <contour>
        <pt x="392" y="869" on="1"/>
        <pt x="420" y="796" on="1"/>
        <pt x="185" y="736" on="1"/>
        <pt x="167" y="787" on="1"/>
      </contour>
    </TTGlyph>
    <TTGlyph name="Z" xMin="29" yMin="0" xMax="489" yMax="695">
      <contour>
        <pt x="29" y="0" on="1"/>
        <pt x="29" y="76" on="1"/>
        <pt x="391" y="617" on="1"/>
        <pt x="391" y="623" on="1"/>
        <pt x="49" y="619" on="1"/>
        <pt x="49" y="695" on="1"/>
        <pt x="485" y="695" on="1"/>
        <pt x="485" y="617" on="1"/>
        <pt x="127" y="78" on="1"/>
        <pt x="127" y="73" on="1"/>
        <pt x="489" y="76" on="1"/>
        <pt x="489" y="0" on="1"/>
      </contour>
    </TTGlyph>
    <TTGlyph name="a" xMin="54" yMin="-13" xMax="473" yMax="595">
      <contour>
        <pt x="284" y="358" on="1"/>
        <pt x="390" y="358" on="1"/>
        <pt x="390" y="475" on="0"/>
        <pt x="355" y="523" on="0"/>
        <pt x="261" y="523" on="0"/>
        <pt x="156" y="498" on="0"/>
        <pt x="96" y="473" on="1"/>
        <pt x="67" y="538" on="1"/>
        <pt x="80" y="544" on="0"/>
        <pt x="123" y="563" on="0"/>
        <pt x="241" y="595" on="0"/>
        <pt x="290" y="595" on="1"/>
        <pt x="473" y="595" on="0"/>
        <pt x="473" y="383" on="1"/>
        <pt x="473" y="0" on="1"/>
        <pt x="419" y="0" on="1"/>
        <pt x="407" y="61" on="1"/>
        <pt x="401" y="61" on="1"/>
        <pt x="391" y="53" on="0"/>
        <pt x="355" y="28" on="0"/>
        <pt x="255" y="-13" on="0"/>
        <pt x="211" y="-13" on="1"/>
        <pt x="140" y="-13" on="0"/>
        <pt x="54" y="84" on="0"/>
        <pt x="54" y="273" on="0"/>
        <pt x="172" y="358" on="0"/>
      </contour>
      <contour>
        <pt x="390" y="281" on="1"/>
        <pt x="347" y="288" on="0"/>
        <pt x="190" y="288" on="0"/>
        <pt x="168" y="269" on="1"/>
        <pt x="141" y="248" on="0"/>
        <pt x="141" y="113" on="0"/>
        <pt x="180" y="61" on="0"/>
        <pt x="259" y="61" on="0"/>
        <pt x="341" y="88" on="0"/>
        <pt x="390" y="115" on="1"/>
      </contour>
    </TTGlyph>
    <TTGlyph name="aacute" xMin="54" yMin="-13" xMax="473" yMax="802">
      <contour>
        <pt x="390" y="358" on="1"/>
        <pt x="390" y="475" on="0"/>
        <pt x="355" y="523" on="0"/>
        <pt x="307" y="523" on="1"/>
        <pt x="204" y="523" on="0"/>
        <pt x="96" y="473" on="1"/>
        <pt x="67" y="538" on="1"/>
        <pt x="98" y="552" on="1"/>
        <pt x="129" y="566" on="0"/>
        <pt x="241" y="595" on="0"/>
        <pt x="290" y="595" on="1"/>
        <pt x="473" y="595" on="0"/>
        <pt x="473" y="383" on="1"/>
        <pt x="473" y="0" on="1"/>
        <pt x="419" y="0" on="1"/>
        <pt x="407" y="61" on="1"/>
        <pt x="401" y="61" on="1"/>
        <pt x="376" y="42" on="1"/>
        <pt x="350" y="24" on="0"/>
        <pt x="255" y="-13" on="0"/>
        <pt x="211" y="-13" on="1"/>
        <pt x="140" y="-13" on="0"/>
        <pt x="54" y="84" on="0"/>
        <pt x="54" y="273" on="0"/>
        <pt x="172" y="358" on="0"/>
        <pt x="284" y="358" on="1"/>
      </contour>
      <contour>
        <pt x="225" y="61" on="1"/>
        <pt x="301" y="61" on="0"/>
        <pt x="390" y="115" on="1"/>
        <pt x="390" y="281" on="1"/>
        <pt x="332" y="288" on="0"/>
        <pt x="283" y="288" on="1"/>
        <pt x="190" y="288" on="0"/>
        <pt x="168" y="269" on="1"/>
        <pt x="141" y="248" on="0"/>
        <pt x="141" y="113" on="0"/>
        <pt x="180" y="61" on="0"/>
      </contour>
      <contour>
        <pt x="371" y="802" on="1"/>
        <pt x="402" y="735" on="1"/>
        <pt x="169" y="657" on="1"/>
        <pt x="149" y="707" on="1"/>
      </contour>
    </TTGlyph>
    <TTGlyph name="acircumflex" xMin="54" yMin="-13" xMax="473" yMax="802">
      <contour>
        <pt x="390" y="358" on="1"/>
        <pt x="390" y="475" on="0"/>
        <pt x="355" y="523" on="0"/>
        <pt x="307" y="523" on="1"/>
        <pt x="204" y="523" on="0"/>
        <pt x="96" y="473" on="1"/>
        <pt x="67" y="538" on="1"/>
        <pt x="98" y="552" on="1"/>
        <pt x="129" y="566" on="0"/>
        <pt x="241" y="595" on="0"/>
        <pt x="290" y="595" on="1"/>
        <pt x="473" y="595" on="0"/>
        <pt x="473" y="383" on="1"/>
        <pt x="473" y="0" on="1"/>
        <pt x="419" y="0" on="1"/>
        <pt x="407" y="61" on="1"/>
        <pt x="401" y="61" on="1"/>
        <pt x="376" y="42" on="1"/>
        <pt x="350" y="24" on="0"/>
        <pt x="255" y="-13" on="0"/>
        <pt x="211" y="-13" on="1"/>
        <pt x="140" y="-13" on="0"/>
        <pt x="54" y="84" on="0"/>
        <pt x="54" y="273" on="0"/>
        <pt x="172" y="358" on="0"/>
        <pt x="284" y="358" on="1"/>
      </contour>
      <contour>
        <pt x="225" y="61" on="1"/>
        <pt x="301" y="61" on="0"/>
        <pt x="390" y="115" on="1"/>
        <pt x="390" y="281" on="1"/>
        <pt x="332" y="288" on="0"/>
        <pt x="283" y="288" on="1"/>
        <pt x="190" y="288" on="0"/>
        <pt x="168" y="269" on="1"/>
        <pt x="141" y="248" on="0"/>
        <pt x="141" y="113" on="0"/>
        <pt x="180" y="61" on="0"/>
      </contour>
      <contour>
        <pt x="418" y="693" on="1"/>
        <pt x="389" y="659" on="1"/>
        <pt x="275" y="730" on="1"/>
        <pt x="268" y="730" on="1"/>
        <pt x="154" y="659" on="1"/>
        <pt x="125" y="693" on="1"/>
        <pt x="246" y="802" on="1"/>
        <pt x="297" y="802" on="1"/>
      </contour>
    </TTGlyph>
    <TTGlyph name="acute" xMin="175" yMin="657" xMax="428" yMax="802">
      <contour>
        <pt x="397" y="802" on="1"/>
        <pt x="428" y="735" on="1"/>
        <pt x="195" y="657" on="1"/>
        <pt x="175" y="707" on="1"/>
      </contour>
    </TTGlyph>
    <TTGlyph name="acute.cap" xMin="160" yMin="736" xMax="413" yMax="869">
      <contour>
        <pt x="385" y="869" on="1"/>
        <pt x="413" y="796" on="1"/>
        <pt x="178" y="736" on="1"/>
        <pt x="160" y="787" on="1"/>
      </contour>
    </TTGlyph>
    <TTGlyph name="adieresis" xMin="54" yMin="-13" xMax="473" yMax="766">
      <contour>
        <pt x="284" y="358" on="1"/>
        <pt x="390" y="358" on="1"/>
        <pt x="390" y="475" on="0"/>
        <pt x="355" y="523" on="0"/>
        <pt x="261" y="523" on="0"/>
        <pt x="156" y="498" on="0"/>
        <pt x="96" y="473" on="1"/>
        <pt x="67" y="538" on="1"/>
        <pt x="80" y="544" on="0"/>
        <pt x="123" y="563" on="0"/>
        <pt x="241" y="595" on="0"/>
        <pt x="290" y="595" on="1"/>
        <pt x="473" y="595" on="0"/>
        <pt x="473" y="383" on="1"/>
        <pt x="473" y="0" on="1"/>
        <pt x="419" y="0" on="1"/>
        <pt x="407" y="61" on="1"/>
        <pt x="401" y="61" on="1"/>
        <pt x="391" y="53" on="0"/>
        <pt x="355" y="28" on="0"/>
        <pt x="255" y="-13" on="0"/>
        <pt x="211" y="-13" on="1"/>
        <pt x="140" y="-13" on="0"/>
        <pt x="54" y="84" on="0"/>
        <pt x="54" y="273" on="0"/>
        <pt x="172" y="358" on="0"/>
      </contour>
      <contour>
        <pt x="390" y="281" on="1"/>
        <pt x="347" y="288" on="0"/>
        <pt x="190" y="288" on="0"/>
        <pt x="168" y="269" on="1"/>
        <pt x="141" y="248" on="0"/>
        <pt x="141" y="113" on="0"/>
        <pt x="180" y="61" on="0"/>
        <pt x="259" y="61" on="0"/>
        <pt x="341" y="88" on="0"/>
        <pt x="390" y="115" on="1"/>
      </contour>
      <contour>
        <pt x="225" y="684" on="1"/>
        <pt x="126" y="684" on="1"/>
        <pt x="126" y="766" on="1"/>
        <pt x="225" y="766" on="1"/>
      </contour>
      <contour>
        <pt x="411" y="684" on="1"/>
        <pt x="313" y="684" on="1"/>
        <pt x="313" y="766" on="1"/>
        <pt x="411" y="766" on="1"/>
      </contour>
    </TTGlyph>
    <TTGlyph name="ae" xMin="54" yMin="-13" xMax="818" yMax="595">
      <contour>
        <pt x="615" y="-13" on="1"/>
        <pt x="490" y="-13" on="0"/>
        <pt x="437" y="68" on="1"/>
        <pt x="432" y="68" on="1"/>
        <pt x="419" y="59" on="0"/>
        <pt x="376" y="32" on="0"/>
        <pt x="262" y="-13" on="0"/>
        <pt x="215" y="-13" on="1"/>
        <pt x="140" y="-13" on="0"/>
        <pt x="54" y="79" on="0"/>
        <pt x="54" y="171" on="1"/>
        <pt x="54" y="342" on="0"/>
        <pt x="284" y="342" on="1"/>
        <pt x="390" y="342" on="1"/>
        <pt x="390" y="471" on="0"/>
        <pt x="355" y="523" on="0"/>
        <pt x="261" y="523" on="0"/>
        <pt x="156" y="498" on="0"/>
        <pt x="96" y="473" on="1"/>
        <pt x="67" y="538" on="1"/>
        <pt x="186" y="595" on="0"/>
        <pt x="279" y="595" on="1"/>
        <pt x="400" y="595" on="0"/>
        <pt x="443" y="519" on="1"/>
        <pt x="447" y="519" on="1"/>
        <pt x="503" y="595" on="0"/>
        <pt x="717" y="595" on="0"/>
        <pt x="818" y="471" on="0"/>
        <pt x="818" y="329" on="1"/>
        <pt x="818" y="270" on="1"/>
        <pt x="475" y="270" on="1"/>
        <pt x="475" y="234" on="1"/>
        <pt x="479" y="124" on="0"/>
        <pt x="517" y="84" on="1"/>
        <pt x="544" y="60" on="0"/>
        <pt x="606" y="60" on="1"/>
        <pt x="671" y="60" on="0"/>
        <pt x="754" y="88" on="1"/>
        <pt x="781" y="98" on="1"/>
        <pt x="802" y="30" on="1"/>
        <pt x="720" y="-13" on="0"/>
      </contour>
      <contour>
        <pt x="390" y="265" on="1"/>
        <pt x="349" y="272" on="0"/>
        <pt x="190" y="272" on="0"/>
        <pt x="168" y="253" on="1"/>
        <pt x="141" y="235" on="0"/>
        <pt x="141" y="107" on="0"/>
        <pt x="181" y="61" on="0"/>
        <pt x="220" y="61" on="1"/>
        <pt x="290" y="61" on="0"/>
        <pt x="365" y="98" on="1"/>
        <pt x="390" y="111" on="1"/>
      </contour>
      <contour>
        <pt x="710" y="496" on="1"/>
        <pt x="692" y="523" on="0"/>
        <pt x="537" y="523" on="0"/>
        <pt x="474" y="445" on="0"/>
        <pt x="474" y="336" on="1"/>
        <pt x="733" y="341" on="1"/>
        <pt x="733" y="458" on="0"/>
      </contour>
    </TTGlyph>
    <TTGlyph name="agrave" xMin="54" yMin="-13" xMax="473" yMax="802">
      <contour>
        <pt x="284" y="358" on="1"/>
        <pt x="390" y="358" on="1"/>
        <pt x="390" y="475" on="0"/>
        <pt x="355" y="523" on="0"/>
        <pt x="261" y="523" on="0"/>
        <pt x="156" y="498" on="0"/>
        <pt x="96" y="473" on="1"/>
        <pt x="67" y="538" on="1"/>
        <pt x="80" y="544" on="0"/>
        <pt x="123" y="563" on="0"/>
        <pt x="241" y="595" on="0"/>
        <pt x="290" y="595" on="1"/>
        <pt x="473" y="595" on="0"/>
        <pt x="473" y="383" on="1"/>
        <pt x="473" y="0" on="1"/>
        <pt x="419" y="0" on="1"/>
        <pt x="407" y="61" on="1"/>
        <pt x="401" y="61" on="1"/>
        <pt x="391" y="53" on="0"/>
        <pt x="355" y="28" on="0"/>
        <pt x="255" y="-13" on="0"/>
        <pt x="211" y="-13" on="1"/>
        <pt x="140" y="-13" on="0"/>
        <pt x="54" y="84" on="0"/>
        <pt x="54" y="273" on="0"/>
        <pt x="172" y="358" on="0"/>
      </contour>
      <contour>
        <pt x="390" y="281" on="1"/>
        <pt x="347" y="288" on="0"/>
        <pt x="190" y="288" on="0"/>
        <pt x="168" y="269" on="1"/>
        <pt x="141" y="248" on="0"/>
        <pt x="141" y="113" on="0"/>
        <pt x="180" y="61" on="0"/>
        <pt x="259" y="61" on="0"/>
        <pt x="341" y="88" on="0"/>
        <pt x="390" y="115" on="1"/>
      </contour>
      <contour>
        <pt x="151" y="735" on="1"/>
        <pt x="181" y="802" on="1"/>
        <pt x="403" y="707" on="1"/>
        <pt x="383" y="657" on="1"/>
      </contour>
    </TTGlyph>
    <TTGlyph name="ampersand" xMin="39" yMin="-13" xMax="619" yMax="708">
      <contour>
        <pt x="251" y="-13" on="1"/>
        <pt x="156" y="-13" on="0"/>
        <pt x="39" y="109" on="0"/>
        <pt x="39" y="257" on="0"/>
        <pt x="130" y="360" on="0"/>
        <pt x="183" y="382" on="1"/>
        <pt x="89" y="440" on="0"/>
        <pt x="89" y="540" on="1"/>
        <pt x="89" y="613" on="0"/>
        <pt x="185" y="708" on="0"/>
        <pt x="357" y="708" on="0"/>
        <pt x="446" y="611" on="0"/>
        <pt x="446" y="544" on="1"/>
        <pt x="446" y="436" on="0"/>
        <pt x="334" y="379" on="1"/>
        <pt x="418" y="319" on="0"/>
        <pt x="484" y="241" on="1"/>
        <pt x="523" y="308" on="0"/>
        <pt x="547" y="375" on="1"/>
        <pt x="618" y="352" on="1"/>
        <pt x="586" y="265" on="0"/>
        <pt x="530" y="178" on="1"/>
        <pt x="579" y="101" on="0"/>
        <pt x="619" y="-10" on="1"/>
        <pt x="539" y="-13" on="1"/>
        <pt x="520" y="42" on="0"/>
        <pt x="480" y="110" on="1"/>
        <pt x="375" y="-13" on="0"/>
      </contour>
      <contour>
        <pt x="254" y="59" on="1"/>
        <pt x="351" y="59" on="0"/>
        <pt x="439" y="174" on="1"/>
        <pt x="362" y="279" on="0"/>
        <pt x="259" y="340" on="1"/>
        <pt x="203" y="320" on="0"/>
        <pt x="127" y="233" on="0"/>
        <pt x="127" y="129" on="0"/>
        <pt x="198" y="59" on="0"/>
      </contour>
      <contour>
        <pt x="266" y="639" on="1"/>
        <pt x="173" y="639" on="0"/>
        <pt x="173" y="545" on="1"/>
        <pt x="173" y="460" on="0"/>
        <pt x="264" y="414" on="1"/>
        <pt x="306" y="431" on="0"/>
        <pt x="361" y="498" on="0"/>
        <pt x="361" y="587" on="0"/>
        <pt x="315" y="639" on="0"/>
      </contour>
    </TTGlyph>
    <TTGlyph name="aring" xMin="54" yMin="-13" xMax="473" yMax="814">
      <contour>
        <pt x="284" y="358" on="1"/>
        <pt x="390" y="358" on="1"/>
        <pt x="390" y="475" on="0"/>
        <pt x="355" y="523" on="0"/>
        <pt x="261" y="523" on="0"/>
        <pt x="156" y="498" on="0"/>
        <pt x="96" y="473" on="1"/>
        <pt x="67" y="538" on="1"/>
        <pt x="80" y="544" on="0"/>
        <pt x="123" y="563" on="0"/>
        <pt x="241" y="595" on="0"/>
        <pt x="290" y="595" on="1"/>
        <pt x="473" y="595" on="0"/>
        <pt x="473" y="383" on="1"/>
        <pt x="473" y="0" on="1"/>
        <pt x="419" y="0" on="1"/>
        <pt x="407" y="61" on="1"/>
        <pt x="401" y="61" on="1"/>
        <pt x="391" y="53" on="0"/>
        <pt x="355" y="28" on="0"/>
        <pt x="255" y="-13" on="0"/>
        <pt x="211" y="-13" on="1"/>
        <pt x="140" y="-13" on="0"/>
        <pt x="54" y="84" on="0"/>
        <pt x="54" y="273" on="0"/>
        <pt x="172" y="358" on="0"/>
      </contour>
      <contour>
        <pt x="390" y="281" on="1"/>
        <pt x="347" y="288" on="0"/>
        <pt x="190" y="288" on="0"/>
        <pt x="168" y="269" on="1"/>
        <pt x="141" y="248" on="0"/>
        <pt x="141" y="113" on="0"/>
        <pt x="180" y="61" on="0"/>
        <pt x="259" y="61" on="0"/>
        <pt x="341" y="88" on="0"/>
        <pt x="390" y="115" on="1"/>
      </contour>
      <contour>
        <pt x="236" y="814" on="0"/>
        <pt x="308" y="814" on="0"/>
        <pt x="356" y="775" on="0"/>
        <pt x="356" y="686" on="0"/>
        <pt x="308" y="647" on="0"/>
        <pt x="236" y="647" on="0"/>
        <pt x="188" y="686" on="0"/>
        <pt x="188" y="775" on="0"/>
      </contour>
      <contour>
        <pt x="291" y="768" on="0"/>
        <pt x="253" y="768" on="0"/>
        <pt x="236" y="753" on="0"/>
        <pt x="236" y="708" on="0"/>
        <pt x="253" y="693" on="0"/>
        <pt x="291" y="693" on="0"/>
        <pt x="306" y="708" on="0"/>
        <pt x="306" y="753" on="0"/>
      </contour>
    </TTGlyph>
    <TTGlyph name="asciicircum" xMin="58" yMin="316" xMax="448" yMax="695">
      <contour>
        <pt x="133" y="316" on="1"/>
        <pt x="58" y="325" on="1"/>
        <pt x="204" y="695" on="1"/>
        <pt x="302" y="695" on="1"/>
        <pt x="448" y="325" on="1"/>
        <pt x="374" y="316" on="1"/>
        <pt x="257" y="630" on="1"/>
        <pt x="250" y="630" on="1"/>
      </contour>
    </TTGlyph>
    <TTGlyph name="asciitilde" xMin="27" yMin="215" xMax="490" yMax="363">
      <contour>
        <pt x="380" y="215" on="1"/>
        <pt x="358" y="215" on="0"/>
        <pt x="171" y="289" on="0"/>
        <pt x="109" y="289" on="0"/>
        <pt x="57" y="247" on="1"/>
        <pt x="27" y="289" on="1"/>
        <pt x="97" y="363" on="0"/>
        <pt x="145" y="363" on="1"/>
        <pt x="182" y="363" on="0"/>
        <pt x="358" y="290" on="0"/>
        <pt x="416" y="290" on="0"/>
        <pt x="464" y="319" on="1"/>
        <pt x="490" y="278" on="1"/>
        <pt x="443" y="215" on="0"/>
      </contour>
    </TTGlyph>
    <TTGlyph name="asterisk" xMin="36" yMin="374" xMax="378" yMax="707">
      <contour>
        <pt x="164" y="707" on="1"/>
        <pt x="250" y="707" on="1"/>
        <pt x="250" y="688" on="1"/>
        <pt x="233" y="578" on="1"/>
        <pt x="333" y="628" on="1"/>
        <pt x="351" y="635" on="1"/>
        <pt x="378" y="552" on="1"/>
        <pt x="359" y="546" on="1"/>
        <pt x="245" y="527" on="1"/>
        <pt x="347" y="429" on="1"/>
        <pt x="282" y="374" on="1"/>
        <pt x="271" y="389" on="1"/>
        <pt x="206" y="493" on="1"/>
        <pt x="140" y="389" on="1"/>
        <pt x="129" y="374" on="1"/>
        <pt x="65" y="429" on="1"/>
        <pt x="78" y="443" on="1"/>
        <pt x="167" y="527" on="1"/>
        <pt x="54" y="546" on="1"/>
        <pt x="36" y="552" on="1"/>
        <pt x="62" y="635" on="1"/>
        <pt x="81" y="628" on="1"/>
        <pt x="180" y="578" on="1"/>
        <pt x="164" y="688" on="1"/>
      </contour>
    </TTGlyph>
    <TTGlyph name="at" xMin="66" yMin="-38" xMax="765" yMax="702">
      <contour>
        <pt x="574" y="124" on="1"/>
        <pt x="533" y="124" on="0"/>
        <pt x="499" y="185" on="0"/>
        <pt x="497" y="243" on="1"/>
        <pt x="493" y="243" on="1"/>
        <pt x="435" y="124" on="0"/>
        <pt x="366" y="124" on="1"/>
        <pt x="322" y="124" on="0"/>
        <pt x="253" y="223" on="0"/>
        <pt x="253" y="455" on="0"/>
        <pt x="331" y="551" on="0"/>
        <pt x="411" y="551" on="1"/>
        <pt x="470" y="551" on="0"/>
        <pt x="568" y="526" on="1"/>
        <pt x="566" y="393" on="0"/>
        <pt x="566" y="266" on="0"/>
        <pt x="567" y="223" on="0"/>
        <pt x="571" y="198" on="0"/>
        <pt x="577" y="192" on="0"/>
        <pt x="583" y="192" on="1"/>
        <pt x="617" y="192" on="0"/>
        <pt x="692" y="304" on="0"/>
        <pt x="692" y="389" on="1"/>
        <pt x="692" y="499" on="0"/>
        <pt x="553" y="628" on="0"/>
        <pt x="302" y="628" on="0"/>
        <pt x="141" y="478" on="0"/>
        <pt x="141" y="196" on="0"/>
        <pt x="301" y="34" on="0"/>
        <pt x="416" y="34" on="1"/>
        <pt x="458" y="34" on="0"/>
        <pt x="503" y="43" on="1"/>
        <pt x="511" y="-24" on="1"/>
        <pt x="471" y="-38" on="0"/>
        <pt x="413" y="-38" on="1"/>
        <pt x="325" y="-38" on="0"/>
        <pt x="170" y="41" on="0"/>
        <pt x="66" y="213" on="0"/>
        <pt x="66" y="422" on="0"/>
        <pt x="130" y="568" on="0"/>
        <pt x="183" y="612" on="1"/>
        <pt x="291" y="702" on="0"/>
        <pt x="567" y="702" on="0"/>
        <pt x="765" y="534" on="0"/>
        <pt x="765" y="392" on="1"/>
        <pt x="765" y="280" on="0"/>
        <pt x="645" y="124" on="0"/>
      </contour>
      <contour>
        <pt x="488" y="466" on="1"/>
        <pt x="455" y="475" on="0"/>
        <pt x="370" y="475" on="0"/>
        <pt x="359" y="465" on="1"/>
        <pt x="338" y="447" on="0"/>
        <pt x="338" y="204" on="0"/>
        <pt x="377" y="204" on="1"/>
        <pt x="412" y="204" on="0"/>
        <pt x="488" y="387" on="0"/>
      </contour>
    </TTGlyph>
    <TTGlyph name="atilde" xMin="54" yMin="-13" xMax="473" yMax="776">
      <contour>
        <pt x="390" y="358" on="1"/>
        <pt x="390" y="475" on="0"/>
        <pt x="355" y="523" on="0"/>
        <pt x="307" y="523" on="1"/>
        <pt x="204" y="523" on="0"/>
        <pt x="96" y="473" on="1"/>
        <pt x="67" y="538" on="1"/>
        <pt x="98" y="552" on="1"/>
        <pt x="129" y="566" on="0"/>
        <pt x="241" y="595" on="0"/>
        <pt x="290" y="595" on="1"/>
        <pt x="473" y="595" on="0"/>
        <pt x="473" y="383" on="1"/>
        <pt x="473" y="0" on="1"/>
        <pt x="419" y="0" on="1"/>
        <pt x="407" y="61" on="1"/>
        <pt x="401" y="61" on="1"/>
        <pt x="376" y="42" on="1"/>
        <pt x="350" y="24" on="0"/>
        <pt x="255" y="-13" on="0"/>
        <pt x="211" y="-13" on="1"/>
        <pt x="140" y="-13" on="0"/>
        <pt x="54" y="84" on="0"/>
        <pt x="54" y="273" on="0"/>
        <pt x="172" y="358" on="0"/>
        <pt x="284" y="358" on="1"/>
      </contour>
      <contour>
        <pt x="225" y="61" on="1"/>
        <pt x="301" y="61" on="0"/>
        <pt x="390" y="115" on="1"/>
        <pt x="390" y="281" on="1"/>
        <pt x="332" y="288" on="0"/>
        <pt x="283" y="288" on="1"/>
        <pt x="190" y="288" on="0"/>
        <pt x="168" y="269" on="1"/>
        <pt x="141" y="248" on="0"/>
        <pt x="141" y="113" on="0"/>
        <pt x="180" y="61" on="0"/>
      </contour>
      <contour>
        <pt x="85" y="675" on="1"/>
        <pt x="85" y="776" on="0"/>
        <pt x="153" y="776" on="1"/>
        <pt x="184" y="776" on="0"/>
        <pt x="345" y="728" on="0"/>
        <pt x="352" y="728" on="1"/>
        <pt x="364" y="728" on="0"/>
        <pt x="378" y="773" on="1"/>
        <pt x="431" y="766" on="1"/>
        <pt x="431" y="712" on="0"/>
        <pt x="395" y="665" on="0"/>
        <pt x="334" y="665" on="0"/>
        <pt x="170" y="715" on="0"/>
        <pt x="164" y="715" on="1"/>
        <pt x="153" y="715" on="0"/>
        <pt x="137" y="669" on="1"/>
      </contour>
    </TTGlyph>
    <TTGlyph name="b" xMin="90" yMin="-13" xMax="506" yMax="753">
      <contour>
        <pt x="90" y="753" on="1"/>
        <pt x="173" y="753" on="1"/>
        <pt x="173" y="573" on="1"/>
        <pt x="266" y="595" on="0"/>
        <pt x="324" y="595" on="1"/>
        <pt x="506" y="595" on="0"/>
        <pt x="506" y="301" on="1"/>
        <pt x="506" y="-13" on="0"/>
        <pt x="305" y="-13" on="1"/>
        <pt x="264" y="-13" on="0"/>
        <pt x="133" y="10" on="0"/>
        <pt x="90" y="25" on="1"/>
      </contour>
      <contour>
        <pt x="173" y="77" on="1"/>
        <pt x="236" y="60" on="0"/>
        <pt x="354" y="60" on="0"/>
        <pt x="373" y="76" on="1"/>
        <pt x="419" y="119" on="0"/>
        <pt x="419" y="479" on="0"/>
        <pt x="387" y="505" on="1"/>
        <pt x="366" y="521" on="0"/>
        <pt x="326" y="521" on="1"/>
        <pt x="255" y="521" on="0"/>
        <pt x="173" y="495" on="1"/>
      </contour>
    </TTGlyph>
    <TTGlyph name="backslash" xMin="22" yMin="-98" xMax="426" yMax="695">
      <contour>
        <pt x="426" y="-98" on="1"/>
        <pt x="338" y="-98" on="1"/>
        <pt x="188" y="288" on="1"/>
        <pt x="22" y="695" on="1"/>
        <pt x="111" y="695" on="1"/>
        <pt x="256" y="319" on="1"/>
      </contour>
    </TTGlyph>
    <TTGlyph name="bar" xMin="103" yMin="-81" xMax="177" yMax="753">
      <contour>
        <pt x="177" y="-81" on="1"/>
        <pt x="103" y="-81" on="1"/>
        <pt x="103" y="753" on="1"/>
        <pt x="177" y="753" on="1"/>
      </contour>
    </TTGlyph>
    <TTGlyph name="braceleft" xMin="56" yMin="-124" xMax="383" yMax="784">
      <contour>
        <pt x="176" y="493" on="1"/>
        <pt x="176" y="592" on="1"/>
        <pt x="176" y="784" on="0"/>
        <pt x="330" y="784" on="1"/>
        <pt x="383" y="781" on="1"/>
        <pt x="379" y="716" on="1"/>
        <pt x="339" y="719" on="0"/>
        <pt x="319" y="719" on="1"/>
        <pt x="285" y="719" on="0"/>
        <pt x="259" y="671" on="0"/>
        <pt x="259" y="590" on="1"/>
        <pt x="259" y="492" on="1"/>
        <pt x="259" y="447" on="0"/>
        <pt x="236" y="383" on="0"/>
        <pt x="218" y="368" on="1"/>
        <pt x="186" y="343" on="0"/>
        <pt x="166" y="341" on="1"/>
        <pt x="165" y="341" on="1"/>
        <pt x="165" y="335" on="1"/>
        <pt x="185" y="333" on="0"/>
        <pt x="216" y="308" on="1"/>
        <pt x="235" y="294" on="0"/>
        <pt x="259" y="228" on="0"/>
        <pt x="259" y="182" on="1"/>
        <pt x="259" y="77" on="1"/>
        <pt x="259" y="-7" on="0"/>
        <pt x="287" y="-59" on="0"/>
        <pt x="321" y="-59" on="1"/>
        <pt x="379" y="-56" on="1"/>
        <pt x="383" y="-122" on="1"/>
        <pt x="351" y="-124" on="0"/>
        <pt x="333" y="-124" on="1"/>
        <pt x="176" y="-124" on="0"/>
        <pt x="176" y="77" on="1"/>
        <pt x="176" y="186" on="1"/>
        <pt x="176" y="251" on="0"/>
        <pt x="132" y="290" on="0"/>
        <pt x="56" y="302" on="1"/>
        <pt x="56" y="376" on="1"/>
        <pt x="130" y="387" on="0"/>
        <pt x="176" y="429" on="0"/>
      </contour>
    </TTGlyph>
    <TTGlyph name="braceright" xMin="34" yMin="-124" xMax="361" yMax="784">
      <contour>
        <pt x="241" y="186" on="1"/>
        <pt x="241" y="77" on="1"/>
        <pt x="241" y="-124" on="0"/>
        <pt x="84" y="-124" on="1"/>
        <pt x="34" y="-122" on="1"/>
        <pt x="38" y="-56" on="1"/>
        <pt x="78" y="-59" on="0"/>
        <pt x="96" y="-59" on="1"/>
        <pt x="130" y="-59" on="0"/>
        <pt x="158" y="-7" on="0"/>
        <pt x="158" y="77" on="1"/>
        <pt x="158" y="182" on="1"/>
        <pt x="158" y="228" on="0"/>
        <pt x="182" y="294" on="0"/>
        <pt x="200" y="308" on="1"/>
        <pt x="232" y="333" on="0"/>
        <pt x="252" y="335" on="1"/>
        <pt x="252" y="341" on="1"/>
        <pt x="251" y="341" on="1"/>
        <pt x="231" y="343" on="0"/>
        <pt x="199" y="368" on="1"/>
        <pt x="181" y="383" on="0"/>
        <pt x="158" y="447" on="0"/>
        <pt x="158" y="492" on="1"/>
        <pt x="158" y="589" on="1"/>
        <pt x="158" y="670" on="0"/>
        <pt x="132" y="719" on="0"/>
        <pt x="98" y="719" on="1"/>
        <pt x="38" y="716" on="1"/>
        <pt x="34" y="781" on="1"/>
        <pt x="65" y="784" on="0"/>
        <pt x="87" y="784" on="1"/>
        <pt x="241" y="784" on="0"/>
        <pt x="241" y="591" on="1"/>
        <pt x="241" y="493" on="1"/>
        <pt x="241" y="429" on="0"/>
        <pt x="287" y="387" on="0"/>
        <pt x="361" y="376" on="1"/>
        <pt x="361" y="302" on="1"/>
        <pt x="285" y="290" on="0"/>
        <pt x="241" y="251" on="0"/>
      </contour>
    </TTGlyph>
    <TTGlyph name="bracketleft" xMin="106" yMin="-124" xMax="270" yMax="783">
      <contour>
        <pt x="270" y="-124" on="1"/>
        <pt x="106" y="-124" on="1"/>
        <pt x="106" y="783" on="1"/>
        <pt x="270" y="783" on="1"/>
        <pt x="270" y="715" on="1"/>
        <pt x="181" y="718" on="1"/>
        <pt x="181" y="-59" on="1"/>
        <pt x="270" y="-56" on="1"/>
      </contour>
    </TTGlyph>
    <TTGlyph name="bracketright" xMin="41" yMin="-124" xMax="205" yMax="783">
      <contour>
        <pt x="205" y="783" on="1"/>
        <pt x="205" y="-124" on="1"/>
        <pt x="41" y="-124" on="1"/>
        <pt x="41" y="-56" on="1"/>
        <pt x="131" y="-59" on="1"/>
        <pt x="131" y="718" on="1"/>
        <pt x="41" y="715" on="1"/>
        <pt x="41" y="783" on="1"/>
      </contour>
    </TTGlyph>
    <TTGlyph name="brokenbar" xMin="103" yMin="-81" xMax="177" yMax="753">
      <contour>
        <pt x="177" y="403" on="1"/>
        <pt x="103" y="403" on="1"/>
        <pt x="103" y="753" on="1"/>
        <pt x="177" y="753" on="1"/>
      </contour>
      <contour>
        <pt x="177" y="-81" on="1"/>
        <pt x="103" y="-81" on="1"/>
        <pt x="103" y="269" on="1"/>
        <pt x="177" y="269" on="1"/>
      </contour>
    </TTGlyph>
    <TTGlyph name="bullet" xMin="70" yMin="324" xMax="302" yMax="558">
      <contour>
        <pt x="70" y="502" on="0"/>
        <pt x="137" y="558" on="0"/>
        <pt x="235" y="558" on="0"/>
        <pt x="302" y="501" on="0"/>
        <pt x="302" y="381" on="0"/>
        <pt x="235" y="324" on="0"/>
        <pt x="137" y="324" on="0"/>
        <pt x="70" y="381" on="0"/>
      </contour>
    </TTGlyph>
    <TTGlyph name="c" xMin="70" yMin="-13" xMax="477" yMax="595">
      <contour>
        <pt x="305" y="522" on="1"/>
        <pt x="229" y="522" on="0"/>
        <pt x="203" y="496" on="1"/>
        <pt x="183" y="474" on="0"/>
        <pt x="157" y="361" on="0"/>
        <pt x="157" y="287" on="1"/>
        <pt x="157" y="119" on="0"/>
        <pt x="221" y="75" on="1"/>
        <pt x="243" y="59" on="0"/>
        <pt x="316" y="59" on="0"/>
        <pt x="401" y="82" on="0"/>
        <pt x="451" y="105" on="1"/>
        <pt x="477" y="40" on="1"/>
        <pt x="469" y="34" on="0"/>
        <pt x="440" y="16" on="0"/>
        <pt x="347" y="-13" on="0"/>
        <pt x="300" y="-13" on="1"/>
        <pt x="192" y="-13" on="0"/>
        <pt x="70" y="136" on="0"/>
        <pt x="70" y="459" on="0"/>
        <pt x="204" y="595" on="0"/>
        <pt x="321" y="595" on="1"/>
        <pt x="397" y="595" on="0"/>
        <pt x="463" y="579" on="1"/>
        <pt x="453" y="509" on="1"/>
        <pt x="345" y="522" on="0"/>
      </contour>
    </TTGlyph>
    <TTGlyph name="caron" xMin="13" yMin="663" xMax="306" yMax="806">
      <contour>
        <pt x="277" y="806" on="1"/>
        <pt x="306" y="772" on="1"/>
        <pt x="185" y="663" on="1"/>
        <pt x="134" y="663" on="1"/>
        <pt x="13" y="772" on="1"/>
        <pt x="42" y="806" on="1"/>
        <pt x="156" y="735" on="1"/>
        <pt x="163" y="735" on="1"/>
      </contour>
    </TTGlyph>
    <TTGlyph name="caron.cap" xMin="12" yMin="746" xMax="305" yMax="879">
      <contour>
        <pt x="277" y="879" on="1"/>
        <pt x="305" y="841" on="1"/>
        <pt x="184" y="746" on="1"/>
        <pt x="133" y="746" on="1"/>
        <pt x="12" y="841" on="1"/>
        <pt x="40" y="879" on="1"/>
        <pt x="155" y="818" on="1"/>
        <pt x="162" y="818" on="1"/>
      </contour>
    </TTGlyph>
    <TTGlyph name="ccedilla" xMin="70" yMin="-179" xMax="477" yMax="595">
      <contour>
        <pt x="305" y="522" on="1"/>
        <pt x="229" y="522" on="0"/>
        <pt x="203" y="496" on="1"/>
        <pt x="183" y="474" on="0"/>
        <pt x="157" y="361" on="0"/>
        <pt x="157" y="287" on="1"/>
        <pt x="157" y="119" on="0"/>
        <pt x="221" y="75" on="1"/>
        <pt x="243" y="59" on="0"/>
        <pt x="316" y="59" on="0"/>
        <pt x="401" y="82" on="0"/>
        <pt x="451" y="105" on="1"/>
        <pt x="477" y="40" on="1"/>
        <pt x="435" y="9" on="0"/>
        <pt x="367" y="-5" on="1"/>
        <pt x="381" y="-45" on="0"/>
        <pt x="381" y="-125" on="0"/>
        <pt x="320" y="-179" on="0"/>
        <pt x="272" y="-179" on="1"/>
        <pt x="244" y="-179" on="0"/>
        <pt x="199" y="-170" on="1"/>
        <pt x="199" y="-108" on="1"/>
        <pt x="243" y="-113" on="0"/>
        <pt x="295" y="-113" on="0"/>
        <pt x="317" y="-101" on="0"/>
        <pt x="317" y="-45" on="0"/>
        <pt x="309" y="-13" on="1"/>
        <pt x="300" y="-13" on="1"/>
        <pt x="192" y="-13" on="0"/>
        <pt x="70" y="136" on="0"/>
        <pt x="70" y="459" on="0"/>
        <pt x="204" y="595" on="0"/>
        <pt x="321" y="595" on="1"/>
        <pt x="397" y="595" on="0"/>
        <pt x="463" y="579" on="1"/>
        <pt x="453" y="509" on="1"/>
        <pt x="345" y="522" on="0"/>
      </contour>
    </TTGlyph>
    <TTGlyph name="cedilla" xMin="199" yMin="-179" xMax="381" yMax="10">
      <contour>
        <pt x="362" y="10" on="1"/>
        <pt x="381" y="-39" on="0"/>
        <pt x="381" y="-125" on="0"/>
        <pt x="320" y="-179" on="0"/>
        <pt x="272" y="-179" on="1"/>
        <pt x="244" y="-179" on="0"/>
        <pt x="199" y="-170" on="1"/>
        <pt x="199" y="-108" on="1"/>
        <pt x="243" y="-113" on="0"/>
        <pt x="295" y="-113" on="0"/>
        <pt x="317" y="-101" on="0"/>
        <pt x="317" y="-47" on="0"/>
        <pt x="303" y="6" on="1"/>
      </contour>
    </TTGlyph>
    <TTGlyph name="cent" xMin="70" yMin="-118" xMax="477" yMax="694">
      <contour>
        <pt x="305" y="522" on="1"/>
        <pt x="229" y="522" on="0"/>
        <pt x="203" y="496" on="1"/>
        <pt x="183" y="474" on="0"/>
        <pt x="157" y="361" on="0"/>
        <pt x="157" y="287" on="1"/>
        <pt x="157" y="119" on="0"/>
        <pt x="221" y="75" on="1"/>
        <pt x="243" y="59" on="0"/>
        <pt x="316" y="59" on="0"/>
        <pt x="401" y="82" on="0"/>
        <pt x="451" y="105" on="1"/>
        <pt x="477" y="40" on="1"/>
        <pt x="424" y="0" on="0"/>
        <pt x="342" y="-10" on="1"/>
        <pt x="342" y="-118" on="1"/>
        <pt x="269" y="-118" on="1"/>
        <pt x="269" y="-11" on="1"/>
        <pt x="175" y="-2" on="0"/>
        <pt x="70" y="148" on="0"/>
        <pt x="70" y="293" on="1"/>
        <pt x="70" y="564" on="0"/>
        <pt x="269" y="592" on="1"/>
        <pt x="269" y="694" on="1"/>
        <pt x="342" y="694" on="1"/>
        <pt x="342" y="595" on="1"/>
        <pt x="409" y="592" on="0"/>
        <pt x="463" y="579" on="1"/>
        <pt x="453" y="509" on="1"/>
        <pt x="345" y="522" on="0"/>
      </contour>
    </TTGlyph>
    <TTGlyph name="circumflex" xMin="105" yMin="659" xMax="398" yMax="802">
      <contour>
        <pt x="398" y="693" on="1"/>
        <pt x="369" y="659" on="1"/>
        <pt x="255" y="730" on="1"/>
        <pt x="248" y="730" on="1"/>
        <pt x="134" y="659" on="1"/>
        <pt x="105" y="693" on="1"/>
        <pt x="226" y="802" on="1"/>
        <pt x="277" y="802" on="1"/>
      </contour>
    </TTGlyph>
    <TTGlyph name="circumflex.cap" xMin="2" yMin="733" xMax="295" yMax="866">
      <contour>
        <pt x="295" y="771" on="1"/>
        <pt x="267" y="733" on="1"/>
        <pt x="152" y="794" on="1"/>
        <pt x="145" y="794" on="1"/>
        <pt x="30" y="733" on="1"/>
        <pt x="2" y="771" on="1"/>
        <pt x="123" y="866" on="1"/>
        <pt x="174" y="866" on="1"/>
      </contour>
    </TTGlyph>
    <TTGlyph name="colon" xMin="103" yMin="0" xMax="211" yMax="548">
      <contour>
        <pt x="103" y="0" on="1"/>
        <pt x="103" y="89" on="1"/>
        <pt x="211" y="89" on="1"/>
        <pt x="211" y="0" on="1"/>
      </contour>
      <contour>
        <pt x="103" y="459" on="1"/>
        <pt x="103" y="548" on="1"/>
        <pt x="211" y="548" on="1"/>
        <pt x="211" y="459" on="1"/>
      </contour>
    </TTGlyph>
    <TTGlyph name="comma" xMin="62" yMin="-166" xMax="176" yMax="84">
      <contour>
        <pt x="94" y="-36" on="1"/>
        <pt x="94" y="84" on="1"/>
        <pt x="176" y="84" on="1"/>
        <pt x="176" y="14" on="1"/>
        <pt x="175" y="-106" on="0"/>
        <pt x="102" y="-166" on="1"/>
        <pt x="62" y="-137" on="1"/>
        <pt x="94" y="-98" on="0"/>
      </contour>
    </TTGlyph>
    <TTGlyph name="commaaccent" xMin="60" yMin="-53" xMax="174" yMax="197">
      <contour>
        <pt x="92" y="77" on="1"/>
        <pt x="92" y="197" on="1"/>
        <pt x="174" y="197" on="1"/>
        <pt x="174" y="127" on="1"/>
        <pt x="173" y="7" on="0"/>
        <pt x="100" y="-53" on="1"/>
        <pt x="60" y="-24" on="1"/>
        <pt x="92" y="15" on="0"/>
      </contour>
    </TTGlyph>
    <TTGlyph name="copyright" xMin="72" yMin="-27" xMax="764" yMax="671">
      <contour>
        <pt x="512" y="460" on="1"/>
        <pt x="456" y="468" on="0"/>
        <pt x="367" y="468" on="0"/>
        <pt x="355" y="453" on="1"/>
        <pt x="327" y="421" on="0"/>
        <pt x="327" y="215" on="0"/>
        <pt x="358" y="188" on="1"/>
        <pt x="371" y="175" on="0"/>
        <pt x="399" y="175" on="1"/>
        <pt x="454" y="175" on="0"/>
        <pt x="502" y="195" on="1"/>
        <pt x="518" y="202" on="1"/>
        <pt x="536" y="141" on="1"/>
        <pt x="484" y="104" on="0"/>
        <pt x="335" y="104" on="0"/>
        <pt x="248" y="207" on="0"/>
        <pt x="248" y="316" on="1"/>
        <pt x="248" y="449" on="0"/>
        <pt x="299" y="496" on="1"/>
        <pt x="344" y="537" on="0"/>
        <pt x="484" y="537" on="0"/>
        <pt x="517" y="525" on="1"/>
      </contour>
      <contour>
        <pt x="265" y="-27" on="0"/>
        <pt x="72" y="169" on="0"/>
        <pt x="72" y="473" on="0"/>
        <pt x="271" y="671" on="0"/>
        <pt x="569" y="671" on="0"/>
        <pt x="764" y="474" on="0"/>
        <pt x="764" y="170" on="0"/>
        <pt x="569" y="-27" on="0"/>
      </contour>
      <contour>
        <pt x="294" y="601" on="0"/>
        <pt x="144" y="450" on="0"/>
        <pt x="144" y="192" on="0"/>
        <pt x="289" y="43" on="0"/>
        <pt x="546" y="43" on="0"/>
        <pt x="692" y="193" on="0"/>
        <pt x="692" y="451" on="0"/>
        <pt x="546" y="601" on="0"/>
      </contour>
    </TTGlyph>
    <TTGlyph name="currency" xMin="75" yMin="100" xMax="580" yMax="603">
      <contour>
        <pt x="191" y="544" on="1"/>
        <pt x="256" y="586" on="0"/>
        <pt x="401" y="586" on="0"/>
        <pt x="463" y="546" on="1"/>
        <pt x="521" y="603" on="1"/>
        <pt x="577" y="548" on="1"/>
        <pt x="520" y="492" on="1"/>
        <pt x="565" y="431" on="0"/>
        <pt x="565" y="272" on="0"/>
        <pt x="523" y="211" on="1"/>
        <pt x="580" y="154" on="1"/>
        <pt x="524" y="100" on="1"/>
        <pt x="467" y="155" on="1"/>
        <pt x="402" y="113" on="0"/>
        <pt x="253" y="113" on="0"/>
        <pt x="186" y="158" on="1"/>
        <pt x="129" y="101" on="1"/>
        <pt x="75" y="157" on="1"/>
        <pt x="132" y="214" on="1"/>
        <pt x="92" y="273" on="0"/>
        <pt x="92" y="428" on="0"/>
        <pt x="134" y="489" on="1"/>
        <pt x="78" y="546" on="1"/>
        <pt x="133" y="602" on="1"/>
      </contour>
      <contour>
        <pt x="402" y="512" on="0"/>
        <pt x="256" y="512" on="0"/>
        <pt x="172" y="433" on="0"/>
        <pt x="172" y="266" on="0"/>
        <pt x="256" y="187" on="0"/>
        <pt x="411" y="187" on="0"/>
        <pt x="485" y="263" on="0"/>
        <pt x="485" y="433" on="0"/>
      </contour>
    </TTGlyph>
    <TTGlyph name="d" xMin="70" yMin="-13" xMax="491" yMax="753">
      <contour>
        <pt x="491" y="753" on="1"/>
        <pt x="491" y="0" on="1"/>
        <pt x="436" y="0" on="1"/>
        <pt x="425" y="60" on="1"/>
        <pt x="419" y="60" on="1"/>
        <pt x="411" y="52" on="0"/>
        <pt x="381" y="28" on="0"/>
        <pt x="294" y="-13" on="0"/>
        <pt x="254" y="-13" on="1"/>
        <pt x="169" y="-13" on="0"/>
        <pt x="70" y="134" on="0"/>
        <pt x="70" y="280" on="1"/>
        <pt x="70" y="595" on="0"/>
        <pt x="277" y="595" on="1"/>
        <pt x="330" y="595" on="0"/>
        <pt x="408" y="574" on="1"/>
        <pt x="408" y="753" on="1"/>
      </contour>
      <contour>
        <pt x="408" y="494" on="1"/>
        <pt x="344" y="521" on="0"/>
        <pt x="213" y="521" on="0"/>
        <pt x="193" y="497" on="1"/>
        <pt x="157" y="450" on="0"/>
        <pt x="157" y="109" on="0"/>
        <pt x="202" y="74" on="1"/>
        <pt x="215" y="62" on="0"/>
        <pt x="290" y="62" on="0"/>
        <pt x="365" y="88" on="0"/>
        <pt x="408" y="114" on="1"/>
      </contour>
    </TTGlyph>
    <TTGlyph name="degree" xMin="23" yMin="407" xMax="324" yMax="707">
      <contour>
        <pt x="111" y="707" on="0"/>
        <pt x="237" y="707" on="0"/>
        <pt x="324" y="634" on="0"/>
        <pt x="324" y="481" on="0"/>
        <pt x="236" y="407" on="0"/>
        <pt x="111" y="407" on="0"/>
        <pt x="23" y="481" on="0"/>
        <pt x="23" y="634" on="0"/>
      </contour>
      <contour>
        <pt x="253" y="640" on="0"/>
        <pt x="94" y="640" on="0"/>
        <pt x="94" y="474" on="0"/>
        <pt x="253" y="474" on="0"/>
      </contour>
    </TTGlyph>
    <TTGlyph name="dieresis" xMin="135" yMin="684" xMax="420" yMax="766">
      <contour>
        <pt x="234" y="684" on="1"/>
        <pt x="135" y="684" on="1"/>
        <pt x="135" y="766" on="1"/>
        <pt x="234" y="766" on="1"/>
      </contour>
      <contour>
        <pt x="420" y="684" on="1"/>
        <pt x="322" y="684" on="1"/>
        <pt x="322" y="766" on="1"/>
        <pt x="420" y="766" on="1"/>
      </contour>
    </TTGlyph>
    <TTGlyph name="dieresis.cap" xMin="70" yMin="762" xMax="355" yMax="844">
      <contour>
        <pt x="169" y="762" on="1"/>
        <pt x="70" y="762" on="1"/>
        <pt x="70" y="844" on="1"/>
        <pt x="169" y="844" on="1"/>
      </contour>
      <contour>
        <pt x="355" y="762" on="1"/>
        <pt x="257" y="762" on="1"/>
        <pt x="257" y="844" on="1"/>
        <pt x="355" y="844" on="1"/>
      </contour>
    </TTGlyph>
    <TTGlyph name="divide" xMin="52" yMin="50" xMax="567" yMax="535">
      <contour>
        <pt x="256" y="445" on="1"/>
        <pt x="256" y="535" on="1"/>
        <pt x="364" y="535" on="1"/>
        <pt x="364" y="445" on="1"/>
      </contour>
      <contour>
        <pt x="256" y="50" on="1"/>
        <pt x="256" y="140" on="1"/>
        <pt x="364" y="140" on="1"/>
        <pt x="364" y="50" on="1"/>
      </contour>
      <contour>
        <pt x="52" y="257" on="1"/>
        <pt x="52" y="328" on="1"/>
        <pt x="567" y="328" on="1"/>
        <pt x="567" y="257" on="1"/>
      </contour>
    </TTGlyph>
    <TTGlyph name="dollar" xMin="36" yMin="-117" xMax="455" yMax="802">
      <contour>
        <pt x="36" y="51" on="1"/>
        <pt x="66" y="119" on="1"/>
        <pt x="105" y="98" on="0"/>
        <pt x="220" y="64" on="0"/>
        <pt x="305" y="64" on="0"/>
        <pt x="326" y="77" on="1"/>
        <pt x="368" y="106" on="0"/>
        <pt x="368" y="179" on="1"/>
        <pt x="368" y="229" on="0"/>
        <pt x="308" y="289" on="0"/>
        <pt x="155" y="356" on="0"/>
        <pt x="125" y="380" on="1"/>
        <pt x="58" y="431" on="0"/>
        <pt x="58" y="525" on="1"/>
        <pt x="58" y="595" on="0"/>
        <pt x="142" y="693" on="0"/>
        <pt x="220" y="705" on="1"/>
        <pt x="220" y="802" on="1"/>
        <pt x="294" y="802" on="1"/>
        <pt x="294" y="707" on="1"/>
        <pt x="364" y="703" on="0"/>
        <pt x="427" y="686" on="1"/>
        <pt x="413" y="614" on="1"/>
        <pt x="329" y="632" on="0"/>
        <pt x="204" y="632" on="0"/>
        <pt x="182" y="619" on="1"/>
        <pt x="146" y="599" on="0"/>
        <pt x="146" y="533" on="1"/>
        <pt x="146" y="489" on="0"/>
        <pt x="175" y="456" on="1"/>
        <pt x="196" y="433" on="0"/>
        <pt x="248" y="410" on="1"/>
        <pt x="261" y="404" on="0"/>
        <pt x="330" y="376" on="0"/>
        <pt x="376" y="350" on="0"/>
        <pt x="402" y="327" on="1"/>
        <pt x="455" y="281" on="0"/>
        <pt x="455" y="110" on="0"/>
        <pt x="366" y="4" on="0"/>
        <pt x="291" y="-9" on="1"/>
        <pt x="291" y="-117" on="1"/>
        <pt x="218" y="-117" on="1"/>
        <pt x="218" y="-11" on="1"/>
        <pt x="174" y="-7" on="0"/>
        <pt x="83" y="24" on="0"/>
      </contour>
    </TTGlyph>
    <TTGlyph name="dotaccentcmb" xMin="136" yMin="682" xMax="234" yMax="766">
      <contour>
        <pt x="136" y="682" on="1"/>
        <pt x="136" y="766" on="1"/>
        <pt x="234" y="766" on="1"/>
        <pt x="234" y="682" on="1"/>
      </contour>
    </TTGlyph>
    <TTGlyph name="dotaccentcmb.cap" xMin="136" yMin="762" xMax="234" yMax="846">
      <contour>
        <pt x="136" y="762" on="1"/>
        <pt x="136" y="846" on="1"/>
        <pt x="234" y="846" on="1"/>
        <pt x="234" y="762" on="1"/>
      </contour>
    </TTGlyph>
    <TTGlyph name="dotlessi" xMin="106" yMin="0" xMax="189" yMax="582">
      <contour>
        <pt x="189" y="0" on="1"/>
        <pt x="106" y="0" on="1"/>
        <pt x="106" y="582" on="1"/>
        <pt x="189" y="582" on="1"/>
      </contour>
    </TTGlyph>
    <TTGlyph name="dotlessj" xMin="-17" yMin="-178" xMax="201" yMax="582">
      <contour>
        <pt x="201" y="582" on="1"/>
        <pt x="201" y="55" on="1"/>
        <pt x="201" y="-178" on="0"/>
        <pt x="43" y="-178" on="1"/>
        <pt x="-17" y="-173" on="1"/>
        <pt x="-8" y="-99" on="1"/>
        <pt x="20" y="-103" on="0"/>
        <pt x="82" y="-103" on="0"/>
        <pt x="94" y="-94" on="1"/>
        <pt x="118" y="-78" on="0"/>
        <pt x="118" y="52" on="1"/>
        <pt x="118" y="582" on="1"/>
      </contour>
    </TTGlyph>
    <TTGlyph name="e" xMin="70" yMin="-13" xMax="504" yMax="595">
      <contour>
        <pt x="302" y="-13" on="1"/>
        <pt x="70" y="-13" on="0"/>
        <pt x="70" y="595" on="0"/>
        <pt x="300" y="595" on="1"/>
        <pt x="402" y="595" on="0"/>
        <pt x="504" y="468" on="0"/>
        <pt x="504" y="321" on="1"/>
        <pt x="504" y="259" on="1"/>
        <pt x="158" y="259" on="1"/>
        <pt x="158" y="124" on="0"/>
        <pt x="201" y="84" on="1"/>
        <pt x="228" y="60" on="0"/>
        <pt x="275" y="60" on="1"/>
        <pt x="359" y="60" on="0"/>
        <pt x="440" y="88" on="1"/>
        <pt x="467" y="98" on="1"/>
        <pt x="488" y="30" on="1"/>
        <pt x="404" y="-13" on="0"/>
      </contour>
      <contour>
        <pt x="396" y="493" on="1"/>
        <pt x="376" y="523" on="0"/>
        <pt x="220" y="523" on="0"/>
        <pt x="158" y="441" on="0"/>
        <pt x="158" y="325" on="1"/>
        <pt x="419" y="330" on="1"/>
        <pt x="419" y="455" on="0"/>
      </contour>
    </TTGlyph>
    <TTGlyph name="eacute" xMin="70" yMin="-13" xMax="504" yMax="802">
      <contour>
        <pt x="302" y="-13" on="1"/>
        <pt x="70" y="-13" on="0"/>
        <pt x="70" y="595" on="0"/>
        <pt x="300" y="595" on="1"/>
        <pt x="402" y="595" on="0"/>
        <pt x="504" y="468" on="0"/>
        <pt x="504" y="321" on="1"/>
        <pt x="504" y="259" on="1"/>
        <pt x="158" y="259" on="1"/>
        <pt x="158" y="124" on="0"/>
        <pt x="201" y="84" on="1"/>
        <pt x="228" y="60" on="0"/>
        <pt x="284" y="60" on="1"/>
        <pt x="369" y="60" on="0"/>
        <pt x="467" y="98" on="1"/>
        <pt x="488" y="30" on="1"/>
        <pt x="440" y="8" on="0"/>
        <pt x="347" y="-13" on="0"/>
      </contour>
      <contour>
        <pt x="158" y="325" on="1"/>
        <pt x="419" y="330" on="1"/>
        <pt x="419" y="455" on="0"/>
        <pt x="396" y="493" on="1"/>
        <pt x="376" y="523" on="0"/>
        <pt x="220" y="523" on="0"/>
        <pt x="158" y="441" on="0"/>
      </contour>
      <contour>
        <pt x="438" y="802" on="1"/>
        <pt x="469" y="735" on="1"/>
        <pt x="236" y="657" on="1"/>
        <pt x="216" y="707" on="1"/>
      </contour>
    </TTGlyph>
    <TTGlyph name="ecircumflex" xMin="70" yMin="-13" xMax="504" yMax="802">
      <contour>
        <pt x="302" y="-13" on="1"/>
        <pt x="70" y="-13" on="0"/>
        <pt x="70" y="595" on="0"/>
        <pt x="300" y="595" on="1"/>
        <pt x="402" y="595" on="0"/>
        <pt x="504" y="468" on="0"/>
        <pt x="504" y="321" on="1"/>
        <pt x="504" y="259" on="1"/>
        <pt x="158" y="259" on="1"/>
        <pt x="158" y="124" on="0"/>
        <pt x="201" y="84" on="1"/>
        <pt x="228" y="60" on="0"/>
        <pt x="284" y="60" on="1"/>
        <pt x="369" y="60" on="0"/>
        <pt x="467" y="98" on="1"/>
        <pt x="488" y="30" on="1"/>
        <pt x="440" y="8" on="0"/>
        <pt x="347" y="-13" on="0"/>
      </contour>
      <contour>
        <pt x="158" y="325" on="1"/>
        <pt x="419" y="330" on="1"/>
        <pt x="419" y="455" on="0"/>
        <pt x="396" y="493" on="1"/>
        <pt x="376" y="523" on="0"/>
        <pt x="220" y="523" on="0"/>
        <pt x="158" y="441" on="0"/>
      </contour>
      <contour>
        <pt x="431" y="693" on="1"/>
        <pt x="402" y="659" on="1"/>
        <pt x="288" y="730" on="1"/>
        <pt x="281" y="730" on="1"/>
        <pt x="167" y="659" on="1"/>
        <pt x="138" y="693" on="1"/>
        <pt x="259" y="802" on="1"/>
        <pt x="310" y="802" on="1"/>
      </contour>
    </TTGlyph>
    <TTGlyph name="edieresis" xMin="70" yMin="-13" xMax="504" yMax="766">
      <contour>
        <pt x="302" y="-13" on="1"/>
        <pt x="70" y="-13" on="0"/>
        <pt x="70" y="595" on="0"/>
        <pt x="300" y="595" on="1"/>
        <pt x="402" y="595" on="0"/>
        <pt x="504" y="468" on="0"/>
        <pt x="504" y="321" on="1"/>
        <pt x="504" y="259" on="1"/>
        <pt x="158" y="259" on="1"/>
        <pt x="158" y="124" on="0"/>
        <pt x="201" y="84" on="1"/>
        <pt x="228" y="60" on="0"/>
        <pt x="275" y="60" on="1"/>
        <pt x="359" y="60" on="0"/>
        <pt x="440" y="88" on="1"/>
        <pt x="467" y="98" on="1"/>
        <pt x="488" y="30" on="1"/>
        <pt x="404" y="-13" on="0"/>
      </contour>
      <contour>
        <pt x="396" y="493" on="1"/>
        <pt x="376" y="523" on="0"/>
        <pt x="220" y="523" on="0"/>
        <pt x="158" y="441" on="0"/>
        <pt x="158" y="325" on="1"/>
        <pt x="419" y="330" on="1"/>
        <pt x="419" y="455" on="0"/>
      </contour>
      <contour>
        <pt x="244" y="684" on="1"/>
        <pt x="145" y="684" on="1"/>
        <pt x="145" y="766" on="1"/>
        <pt x="244" y="766" on="1"/>
      </contour>
      <contour>
        <pt x="430" y="684" on="1"/>
        <pt x="332" y="684" on="1"/>
        <pt x="332" y="766" on="1"/>
        <pt x="430" y="766" on="1"/>
      </contour>
    </TTGlyph>
    <TTGlyph name="egrave" xMin="70" yMin="-13" xMax="504" yMax="802">
      <contour>
        <pt x="302" y="-13" on="1"/>
        <pt x="70" y="-13" on="0"/>
        <pt x="70" y="595" on="0"/>
        <pt x="300" y="595" on="1"/>
        <pt x="402" y="595" on="0"/>
        <pt x="504" y="468" on="0"/>
        <pt x="504" y="321" on="1"/>
        <pt x="504" y="259" on="1"/>
        <pt x="158" y="259" on="1"/>
        <pt x="158" y="124" on="0"/>
        <pt x="201" y="84" on="1"/>
        <pt x="228" y="60" on="0"/>
        <pt x="275" y="60" on="1"/>
        <pt x="359" y="60" on="0"/>
        <pt x="440" y="88" on="1"/>
        <pt x="467" y="98" on="1"/>
        <pt x="488" y="30" on="1"/>
        <pt x="404" y="-13" on="0"/>
      </contour>
      <contour>
        <pt x="396" y="493" on="1"/>
        <pt x="376" y="523" on="0"/>
        <pt x="220" y="523" on="0"/>
        <pt x="158" y="441" on="0"/>
        <pt x="158" y="325" on="1"/>
        <pt x="419" y="330" on="1"/>
        <pt x="419" y="455" on="0"/>
      </contour>
      <contour>
        <pt x="157" y="735" on="1"/>
        <pt x="187" y="802" on="1"/>
        <pt x="409" y="707" on="1"/>
        <pt x="389" y="657" on="1"/>
      </contour>
    </TTGlyph>
    <TTGlyph name="eight" xMin="47" yMin="-13" xMax="492" yMax="708">
      <contour>
        <pt x="68" y="612" on="0"/>
        <pt x="173" y="708" on="0"/>
        <pt x="367" y="708" on="0"/>
        <pt x="471" y="610" on="0"/>
        <pt x="471" y="533" on="1"/>
        <pt x="471" y="419" on="0"/>
        <pt x="366" y="359" on="1"/>
        <pt x="457" y="307" on="0"/>
        <pt x="480" y="247" on="1"/>
        <pt x="492" y="218" on="0"/>
        <pt x="492" y="182" on="1"/>
        <pt x="492" y="102" on="0"/>
        <pt x="369" y="-13" on="0"/>
        <pt x="164" y="-13" on="0"/>
        <pt x="47" y="108" on="0"/>
        <pt x="47" y="190" on="1"/>
        <pt x="47" y="251" on="0"/>
        <pt x="117" y="347" on="0"/>
        <pt x="163" y="366" on="1"/>
        <pt x="68" y="434" on="0"/>
        <pt x="68" y="534" on="1"/>
      </contour>
      <contour>
        <pt x="401" y="170" on="1"/>
        <pt x="401" y="229" on="0"/>
        <pt x="331" y="295" on="0"/>
        <pt x="241" y="326" on="1"/>
        <pt x="187" y="306" on="0"/>
        <pt x="138" y="244" on="0"/>
        <pt x="138" y="182" on="1"/>
        <pt x="138" y="59" on="0"/>
        <pt x="401" y="59" on="0"/>
      </contour>
      <contour>
        <pt x="270" y="639" on="1"/>
        <pt x="205" y="639" on="0"/>
        <pt x="152" y="589" on="0"/>
        <pt x="152" y="491" on="0"/>
        <pt x="214" y="422" on="0"/>
        <pt x="287" y="393" on="1"/>
        <pt x="386" y="428" on="0"/>
        <pt x="386" y="532" on="1"/>
        <pt x="386" y="639" on="0"/>
      </contour>
    </TTGlyph>
    <TTGlyph name="emdash" xMin="70" yMin="292" xMax="731" yMax="363">
      <contour>
        <pt x="70" y="292" on="1"/>
        <pt x="70" y="363" on="1"/>
        <pt x="731" y="363" on="1"/>
        <pt x="731" y="292" on="1"/>
      </contour>
    </TTGlyph>
    <TTGlyph name="endash" xMin="50" yMin="292" xMax="527" yMax="363">
      <contour>
        <pt x="50" y="292" on="1"/>
        <pt x="50" y="363" on="1"/>
        <pt x="527" y="363" on="1"/>
        <pt x="527" y="292" on="1"/>
      </contour>
    </TTGlyph>
    <TTGlyph name="equal" xMin="52" yMin="179" xMax="566" yMax="407">
      <contour>
        <pt x="52" y="335" on="1"/>
        <pt x="52" y="407" on="1"/>
        <pt x="566" y="407" on="1"/>
        <pt x="566" y="335" on="1"/>
      </contour>
      <contour>
        <pt x="52" y="179" on="1"/>
        <pt x="52" y="251" on="1"/>
        <pt x="566" y="251" on="1"/>
        <pt x="566" y="179" on="1"/>
      </contour>
    </TTGlyph>
    <TTGlyph name="eth" xMin="70" yMin="-13" xMax="506" yMax="775">
      <contour>
        <pt x="506" y="286" on="1"/>
        <pt x="506" y="139" on="0"/>
        <pt x="406" y="-13" on="0"/>
        <pt x="169" y="-13" on="0"/>
        <pt x="70" y="134" on="0"/>
        <pt x="70" y="276" on="1"/>
        <pt x="70" y="520" on="0"/>
        <pt x="286" y="520" on="1"/>
        <pt x="362" y="520" on="0"/>
        <pt x="415" y="479" on="1"/>
        <pt x="420" y="482" on="1"/>
        <pt x="397" y="555" on="0"/>
        <pt x="329" y="617" on="1"/>
        <pt x="234" y="556" on="1"/>
        <pt x="226" y="626" on="1"/>
        <pt x="280" y="658" on="1"/>
        <pt x="252" y="678" on="0"/>
        <pt x="210" y="706" on="1"/>
        <pt x="247" y="766" on="1"/>
        <pt x="302" y="737" on="0"/>
        <pt x="345" y="704" on="1"/>
        <pt x="453" y="775" on="1"/>
        <pt x="460" y="704" on="1"/>
        <pt x="391" y="662" on="1"/>
        <pt x="506" y="545" on="0"/>
      </contour>
      <contour>
        <pt x="421" y="379" on="0"/>
        <pt x="363" y="448" on="0"/>
        <pt x="212" y="448" on="0"/>
        <pt x="154" y="379" on="0"/>
        <pt x="154" y="182" on="0"/>
        <pt x="181" y="90" on="0"/>
        <pt x="234" y="58" on="0"/>
        <pt x="342" y="58" on="0"/>
        <pt x="395" y="90" on="0"/>
        <pt x="421" y="182" on="0"/>
      </contour>
    </TTGlyph>
    <TTGlyph name="exclam" xMin="80" yMin="0" xMax="188" yMax="695">
      <contour>
        <pt x="166" y="190" on="1"/>
        <pt x="102" y="190" on="1"/>
        <pt x="88" y="695" on="1"/>
        <pt x="181" y="695" on="1"/>
      </contour>
      <contour>
        <pt x="80" y="0" on="1"/>
        <pt x="80" y="89" on="1"/>
        <pt x="188" y="89" on="1"/>
        <pt x="188" y="0" on="1"/>
      </contour>
    </TTGlyph>
    <TTGlyph name="exclamdown" xMin="80" yMin="-112" xMax="188" yMax="582">
      <contour>
        <pt x="103" y="393" on="1"/>
        <pt x="168" y="393" on="1"/>
        <pt x="182" y="-112" on="1"/>
        <pt x="89" y="-112" on="1"/>
      </contour>
      <contour>
        <pt x="80" y="493" on="1"/>
        <pt x="80" y="582" on="1"/>
        <pt x="188" y="582" on="1"/>
        <pt x="188" y="493" on="1"/>
      </contour>
    </TTGlyph>
    <TTGlyph name="f" xMin="50" yMin="0" xMax="343" yMax="766">
      <contour>
        <pt x="198" y="548" on="1"/>
        <pt x="325" y="548" on="1"/>
        <pt x="325" y="481" on="1"/>
        <pt x="198" y="481" on="1"/>
        <pt x="198" y="0" on="1"/>
        <pt x="115" y="0" on="1"/>
        <pt x="115" y="484" on="1"/>
        <pt x="50" y="484" on="1"/>
        <pt x="50" y="535" on="1"/>
        <pt x="115" y="548" on="1"/>
        <pt x="119" y="668" on="0"/>
        <pt x="207" y="766" on="0"/>
        <pt x="287" y="766" on="1"/>
        <pt x="343" y="764" on="1"/>
        <pt x="337" y="694" on="1"/>
        <pt x="286" y="696" on="0"/>
        <pt x="240" y="696" on="0"/>
        <pt x="226" y="688" on="1"/>
        <pt x="198" y="670" on="0"/>
      </contour>
    </TTGlyph>
    <TTGlyph name="five" xMin="27" yMin="-13" xMax="452" yMax="695">
      <contour>
        <pt x="421" y="695" on="1"/>
        <pt x="421" y="622" on="1"/>
        <pt x="196" y="626" on="1"/>
        <pt x="167" y="413" on="1"/>
        <pt x="337" y="407" on="0"/>
        <pt x="399" y="350" on="1"/>
        <pt x="452" y="301" on="0"/>
        <pt x="452" y="102" on="0"/>
        <pt x="340" y="-13" on="0"/>
        <pt x="243" y="-13" on="1"/>
        <pt x="188" y="-13" on="0"/>
        <pt x="80" y="24" on="0"/>
        <pt x="54" y="42" on="1"/>
        <pt x="27" y="60" on="1"/>
        <pt x="59" y="123" on="1"/>
        <pt x="99" y="99" on="0"/>
        <pt x="215" y="62" on="0"/>
        <pt x="303" y="62" on="0"/>
        <pt x="344" y="89" on="0"/>
        <pt x="364" y="159" on="0"/>
        <pt x="364" y="197" on="1"/>
        <pt x="364" y="281" on="0"/>
        <pt x="305" y="338" on="0"/>
        <pt x="154" y="338" on="1"/>
        <pt x="75" y="336" on="1"/>
        <pt x="126" y="695" on="1"/>
      </contour>
    </TTGlyph>
    <TTGlyph name="four" xMin="29" yMin="0" xMax="488" yMax="706">
      <contour>
        <pt x="424" y="505" on="1"/>
        <pt x="424" y="236" on="1"/>
        <pt x="488" y="238" on="1"/>
        <pt x="488" y="162" on="1"/>
        <pt x="424" y="162" on="1"/>
        <pt x="425" y="0" on="1"/>
        <pt x="340" y="0" on="1"/>
        <pt x="343" y="162" on="1"/>
        <pt x="29" y="162" on="1"/>
        <pt x="29" y="225" on="1"/>
        <pt x="187" y="706" on="1"/>
        <pt x="269" y="695" on="1"/>
        <pt x="118" y="237" on="1"/>
        <pt x="118" y="232" on="1"/>
        <pt x="343" y="236" on="1"/>
        <pt x="362" y="505" on="1"/>
      </contour>
    </TTGlyph>
    <TTGlyph name="g" xMin="47" yMin="-179" xMax="488" yMax="595">
      <contour>
        <pt x="456" y="385" on="1"/>
        <pt x="456" y="297" on="0"/>
        <pt x="343" y="188" on="0"/>
        <pt x="245" y="188" on="1"/>
        <pt x="235" y="129" on="0"/>
        <pt x="235" y="122" on="0"/>
        <pt x="278" y="104" on="0"/>
        <pt x="284" y="102" on="1"/>
        <pt x="314" y="89" on="0"/>
        <pt x="325" y="84" on="1"/>
        <pt x="406" y="50" on="0"/>
        <pt x="469" y="-16" on="0"/>
        <pt x="469" y="-52" on="1"/>
        <pt x="469" y="-112" on="0"/>
        <pt x="351" y="-179" on="0"/>
        <pt x="253" y="-179" on="1"/>
        <pt x="205" y="-179" on="0"/>
        <pt x="109" y="-166" on="0"/>
        <pt x="61" y="-152" on="1"/>
        <pt x="71" y="-77" on="1"/>
        <pt x="215" y="-102" on="0"/>
        <pt x="354" y="-102" on="0"/>
        <pt x="394" y="-85" on="0"/>
        <pt x="394" y="-43" on="0"/>
        <pt x="371" y="-27" on="1"/>
        <pt x="339" y="-5" on="0"/>
        <pt x="146" y="74" on="0"/>
        <pt x="146" y="79" on="1"/>
        <pt x="193" y="194" on="1"/>
        <pt x="125" y="210" on="0"/>
        <pt x="47" y="312" on="0"/>
        <pt x="47" y="382" on="1"/>
        <pt x="47" y="496" on="0"/>
        <pt x="174" y="595" on="0"/>
        <pt x="277" y="595" on="1"/>
        <pt x="338" y="595" on="0"/>
        <pt x="488" y="583" on="1"/>
        <pt x="488" y="530" on="1"/>
        <pt x="422" y="520" on="1"/>
        <pt x="456" y="445" on="0"/>
      </contour>
      <contour>
        <pt x="188" y="521" on="0"/>
        <pt x="128" y="466" on="0"/>
        <pt x="128" y="316" on="0"/>
        <pt x="183" y="262" on="0"/>
        <pt x="320" y="262" on="0"/>
        <pt x="376" y="315" on="0"/>
        <pt x="376" y="387" on="1"/>
        <pt x="376" y="457" on="0"/>
        <pt x="360" y="512" on="0"/>
        <pt x="356" y="514" on="1"/>
        <pt x="350" y="519" on="0"/>
        <pt x="261" y="521" on="1"/>
      </contour>
    </TTGlyph>
    <TTGlyph name="germandbls" xMin="105" yMin="-13" xMax="539" yMax="708">
      <contour>
        <pt x="189" y="491" on="1"/>
        <pt x="189" y="0" on="1"/>
        <pt x="105" y="0" on="1"/>
        <pt x="105" y="490" on="1"/>
        <pt x="105" y="598" on="0"/>
        <pt x="216" y="708" on="0"/>
        <pt x="384" y="708" on="0"/>
        <pt x="498" y="613" on="0"/>
        <pt x="498" y="530" on="1"/>
        <pt x="498" y="493" on="0"/>
        <pt x="474" y="431" on="0"/>
        <pt x="457" y="414" on="1"/>
        <pt x="422" y="377" on="0"/>
        <pt x="401" y="377" on="1"/>
        <pt x="447" y="371" on="0"/>
        <pt x="488" y="337" on="1"/>
        <pt x="511" y="318" on="0"/>
        <pt x="539" y="244" on="0"/>
        <pt x="539" y="195" on="1"/>
        <pt x="539" y="100" on="0"/>
        <pt x="435" y="-13" on="0"/>
        <pt x="340" y="-13" on="1"/>
        <pt x="304" y="-13" on="0"/>
        <pt x="257" y="-3" on="1"/>
        <pt x="267" y="60" on="1"/>
        <pt x="299" y="53" on="0"/>
        <pt x="335" y="53" on="1"/>
        <pt x="396" y="53" on="0"/>
        <pt x="451" y="115" on="0"/>
        <pt x="451" y="266" on="0"/>
        <pt x="390" y="339" on="0"/>
        <pt x="311" y="339" on="1"/>
        <pt x="285" y="339" on="1"/>
        <pt x="285" y="398" on="1"/>
        <pt x="352" y="405" on="0"/>
        <pt x="412" y="463" on="0"/>
        <pt x="412" y="525" on="1"/>
        <pt x="412" y="645" on="0"/>
        <pt x="302" y="645" on="1"/>
        <pt x="239" y="645" on="0"/>
        <pt x="189" y="572" on="0"/>
      </contour>
    </TTGlyph>
    <TTGlyph name="grave" xMin="170" yMin="657" xMax="422" yMax="802">
      <contour>
        <pt x="170" y="735" on="1"/>
        <pt x="200" y="802" on="1"/>
        <pt x="422" y="707" on="1"/>
        <pt x="402" y="657" on="1"/>
      </contour>
    </TTGlyph>
    <TTGlyph name="grave.cap" xMin="124" yMin="736" xMax="376" yMax="868">
      <contour>
        <pt x="124" y="797" on="1"/>
        <pt x="150" y="868" on="1"/>
        <pt x="376" y="787" on="1"/>
        <pt x="356" y="736" on="1"/>
      </contour>
    </TTGlyph>
    <TTGlyph name="greater" xMin="56" yMin="16" xMax="560" yMax="568">
      <contour>
        <pt x="560" y="328" on="1"/>
        <pt x="560" y="257" on="1"/>
        <pt x="56" y="16" on="1"/>
        <pt x="56" y="99" on="1"/>
        <pt x="475" y="290" on="1"/>
        <pt x="475" y="296" on="1"/>
        <pt x="56" y="484" on="1"/>
        <pt x="56" y="568" on="1"/>
      </contour>
    </TTGlyph>
    <TTGlyph name="guillemotleft" xMin="40" yMin="88" xMax="421" yMax="572">
      <contour>
        <pt x="243" y="127" on="1"/>
        <pt x="181" y="88" on="1"/>
        <pt x="40" y="330" on="1"/>
        <pt x="181" y="572" on="1"/>
        <pt x="243" y="534" on="1"/>
        <pt x="121" y="334" on="1"/>
        <pt x="121" y="327" on="1"/>
      </contour>
      <contour>
        <pt x="421" y="127" on="1"/>
        <pt x="360" y="88" on="1"/>
        <pt x="219" y="330" on="1"/>
        <pt x="360" y="572" on="1"/>
        <pt x="421" y="534" on="1"/>
        <pt x="300" y="334" on="1"/>
        <pt x="300" y="327" on="1"/>
      </contour>
    </TTGlyph>
    <TTGlyph name="guillemotright" xMin="39" yMin="88" xMax="420" yMax="572">
      <contour>
        <pt x="279" y="88" on="1"/>
        <pt x="218" y="127" on="1"/>
        <pt x="339" y="327" on="1"/>
        <pt x="339" y="334" on="1"/>
        <pt x="218" y="534" on="1"/>
        <pt x="279" y="572" on="1"/>
        <pt x="420" y="330" on="1"/>
      </contour>
      <contour>
        <pt x="101" y="88" on="1"/>
        <pt x="39" y="127" on="1"/>
        <pt x="161" y="327" on="1"/>
        <pt x="161" y="334" on="1"/>
        <pt x="39" y="534" on="1"/>
        <pt x="101" y="572" on="1"/>
        <pt x="242" y="330" on="1"/>
      </contour>
    </TTGlyph>
    <TTGlyph name="guilsinglleft" xMin="40" yMin="88" xMax="243" yMax="572">
      <contour>
        <pt x="243" y="127" on="1"/>
        <pt x="181" y="88" on="1"/>
        <pt x="40" y="330" on="1"/>
        <pt x="181" y="572" on="1"/>
        <pt x="243" y="534" on="1"/>
        <pt x="121" y="334" on="1"/>
        <pt x="121" y="327" on="1"/>
      </contour>
    </TTGlyph>
    <TTGlyph name="guilsinglright" xMin="39" yMin="88" xMax="242" yMax="572">
      <contour>
        <pt x="101" y="88" on="1"/>
        <pt x="39" y="127" on="1"/>
        <pt x="161" y="327" on="1"/>
        <pt x="161" y="334" on="1"/>
        <pt x="39" y="534" on="1"/>
        <pt x="101" y="572" on="1"/>
        <pt x="242" y="330" on="1"/>
      </contour>
    </TTGlyph>
    <TTGlyph name="h" xMin="85" yMin="0" xMax="496" yMax="753">
      <contour>
        <pt x="168" y="0" on="1"/>
        <pt x="85" y="0" on="1"/>
        <pt x="85" y="753" on="1"/>
        <pt x="168" y="753" on="1"/>
        <pt x="168" y="546" on="1"/>
        <pt x="281" y="595" on="0"/>
        <pt x="344" y="595" on="1"/>
        <pt x="429" y="595" on="0"/>
        <pt x="496" y="494" on="0"/>
        <pt x="496" y="387" on="1"/>
        <pt x="496" y="0" on="1"/>
        <pt x="413" y="0" on="1"/>
        <pt x="413" y="358" on="1"/>
        <pt x="413" y="467" on="0"/>
        <pt x="393" y="496" on="1"/>
        <pt x="378" y="517" on="0"/>
        <pt x="340" y="517" on="1"/>
        <pt x="268" y="517" on="0"/>
        <pt x="193" y="486" on="1"/>
        <pt x="168" y="475" on="1"/>
      </contour>
    </TTGlyph>
    <TTGlyph name="hbar" xMin="16" yMin="0" xMax="508" yMax="753">
      <contour>
        <pt x="404" y="496" on="1"/>
        <pt x="389" y="517" on="0"/>
        <pt x="277" y="517" on="0"/>
        <pt x="179" y="475" on="1"/>
        <pt x="179" y="0" on="1"/>
        <pt x="96" y="0" on="1"/>
        <pt x="96" y="650" on="1"/>
        <pt x="16" y="650" on="1"/>
        <pt x="16" y="715" on="1"/>
        <pt x="96" y="715" on="1"/>
        <pt x="96" y="753" on="1"/>
        <pt x="179" y="753" on="1"/>
        <pt x="179" y="715" on="1"/>
        <pt x="350" y="715" on="1"/>
        <pt x="350" y="650" on="1"/>
        <pt x="179" y="650" on="1"/>
        <pt x="179" y="546" on="1"/>
        <pt x="292" y="595" on="0"/>
        <pt x="355" y="595" on="1"/>
        <pt x="441" y="595" on="0"/>
        <pt x="508" y="494" on="0"/>
        <pt x="508" y="387" on="1"/>
        <pt x="508" y="0" on="1"/>
        <pt x="424" y="0" on="1"/>
        <pt x="424" y="358" on="1"/>
        <pt x="424" y="467" on="0"/>
      </contour>
    </TTGlyph>
    <TTGlyph name="hyphen" xMin="46" yMin="292" xMax="275" yMax="363">
      <contour>
        <pt x="46" y="292" on="1"/>
        <pt x="46" y="363" on="1"/>
        <pt x="275" y="363" on="1"/>
        <pt x="275" y="292" on="1"/>
      </contour>
    </TTGlyph>
    <TTGlyph name="i" xMin="97" yMin="0" xMax="199" yMax="753">
      <contour>
        <pt x="189" y="0" on="1"/>
        <pt x="106" y="0" on="1"/>
        <pt x="106" y="582" on="1"/>
        <pt x="189" y="582" on="1"/>
      </contour>
      <contour>
        <pt x="199" y="668" on="1"/>
        <pt x="97" y="668" on="1"/>
        <pt x="97" y="753" on="1"/>
        <pt x="199" y="753" on="1"/>
      </contour>
    </TTGlyph>
    <TTGlyph name="iacute" xMin="56" yMin="0" xMax="302" yMax="802">
      <contour>
        <pt x="275" y="802" on="1"/>
        <pt x="302" y="734" on="1"/>
        <pt x="76" y="657" on="1"/>
        <pt x="56" y="707" on="1"/>
      </contour>
      <contour>
        <pt x="106" y="0" on="1"/>
        <pt x="106" y="582" on="1"/>
        <pt x="189" y="582" on="1"/>
        <pt x="189" y="0" on="1"/>
      </contour>
    </TTGlyph>
    <TTGlyph name="icircumflex" xMin="7" yMin="0" xMax="288" yMax="802">
      <contour>
        <pt x="288" y="693" on="1"/>
        <pt x="256" y="660" on="1"/>
        <pt x="152" y="730" on="1"/>
        <pt x="144" y="730" on="1"/>
        <pt x="40" y="660" on="1"/>
        <pt x="7" y="693" on="1"/>
        <pt x="121" y="802" on="1"/>
        <pt x="174" y="802" on="1"/>
      </contour>
      <contour>
        <pt x="106" y="0" on="1"/>
        <pt x="106" y="582" on="1"/>
        <pt x="189" y="582" on="1"/>
        <pt x="189" y="0" on="1"/>
      </contour>
    </TTGlyph>
    <TTGlyph name="idieresis" xMin="7" yMin="0" xMax="288" yMax="766">
      <contour>
        <pt x="106" y="684" on="1"/>
        <pt x="7" y="684" on="1"/>
        <pt x="7" y="766" on="1"/>
        <pt x="106" y="766" on="1"/>
      </contour>
      <contour>
        <pt x="288" y="684" on="1"/>
        <pt x="190" y="684" on="1"/>
        <pt x="190" y="766" on="1"/>
        <pt x="288" y="766" on="1"/>
      </contour>
      <contour>
        <pt x="189" y="0" on="1"/>
        <pt x="106" y="0" on="1"/>
        <pt x="106" y="582" on="1"/>
        <pt x="189" y="582" on="1"/>
      </contour>
    </TTGlyph>
    <TTGlyph name="igrave" xMin="-31" yMin="0" xMax="215" yMax="802">
      <contour>
        <pt x="-31" y="734" on="1"/>
        <pt x="-3" y="802" on="1"/>
        <pt x="215" y="707" on="1"/>
        <pt x="195" y="657" on="1"/>
      </contour>
      <contour>
        <pt x="189" y="0" on="1"/>
        <pt x="106" y="0" on="1"/>
        <pt x="106" y="582" on="1"/>
        <pt x="189" y="582" on="1"/>
      </contour>
    </TTGlyph>
    <TTGlyph name="ij" xMin="97" yMin="-178" xMax="472" yMax="753">
      <contour>
        <pt x="189" y="0" on="1"/>
        <pt x="106" y="0" on="1"/>
        <pt x="106" y="582" on="1"/>
        <pt x="189" y="582" on="1"/>
      </contour>
      <contour>
        <pt x="199" y="668" on="1"/>
        <pt x="97" y="668" on="1"/>
        <pt x="97" y="753" on="1"/>
        <pt x="199" y="753" on="1"/>
      </contour>
      <contour>
        <pt x="463" y="582" on="1"/>
        <pt x="463" y="55" on="1"/>
        <pt x="463" y="-178" on="0"/>
        <pt x="305" y="-178" on="1"/>
        <pt x="245" y="-173" on="1"/>
        <pt x="254" y="-99" on="1"/>
        <pt x="282" y="-103" on="0"/>
        <pt x="344" y="-103" on="0"/>
        <pt x="356" y="-94" on="1"/>
        <pt x="380" y="-78" on="0"/>
        <pt x="380" y="52" on="1"/>
        <pt x="380" y="582" on="1"/>
      </contour>
      <contour>
        <pt x="472" y="668" on="1"/>
        <pt x="370" y="668" on="1"/>
        <pt x="370" y="753" on="1"/>
        <pt x="472" y="753" on="1"/>
      </contour>
    </TTGlyph>
    <TTGlyph name="itilde" xMin="0" yMin="0" xMax="295" yMax="776">
      <contour>
        <pt x="0" y="676" on="1"/>
        <pt x="0" y="776" on="0"/>
        <pt x="58" y="776" on="1"/>
        <pt x="84" y="776" on="0"/>
        <pt x="214" y="728" on="0"/>
        <pt x="221" y="728" on="1"/>
        <pt x="229" y="728" on="0"/>
        <pt x="243" y="773" on="1"/>
        <pt x="295" y="766" on="1"/>
        <pt x="295" y="712" on="0"/>
        <pt x="265" y="666" on="0"/>
        <pt x="212" y="666" on="0"/>
        <pt x="81" y="716" on="0"/>
        <pt x="75" y="716" on="1"/>
        <pt x="66" y="716" on="0"/>
        <pt x="52" y="670" on="1"/>
      </contour>
      <contour>
        <pt x="106" y="0" on="1"/>
        <pt x="106" y="582" on="1"/>
        <pt x="189" y="582" on="1"/>
        <pt x="189" y="0" on="1"/>
      </contour>
    </TTGlyph>
    <TTGlyph name="j" xMin="-17" yMin="-178" xMax="211" yMax="753">
      <contour>
        <pt x="201" y="582" on="1"/>
        <pt x="201" y="55" on="1"/>
        <pt x="201" y="-178" on="0"/>
        <pt x="43" y="-178" on="1"/>
        <pt x="-17" y="-173" on="1"/>
        <pt x="-8" y="-99" on="1"/>
        <pt x="20" y="-103" on="0"/>
        <pt x="82" y="-103" on="0"/>
        <pt x="94" y="-94" on="1"/>
        <pt x="118" y="-78" on="0"/>
        <pt x="118" y="52" on="1"/>
        <pt x="118" y="582" on="1"/>
      </contour>
      <contour>
        <pt x="211" y="668" on="1"/>
        <pt x="109" y="668" on="1"/>
        <pt x="109" y="753" on="1"/>
        <pt x="211" y="753" on="1"/>
      </contour>
    </TTGlyph>
    <TTGlyph name="jcircumflex" xMin="-4" yMin="-178" xMax="313" yMax="802">
      <contour>
        <pt x="214" y="55" on="1"/>
        <pt x="214" y="-178" on="0"/>
        <pt x="56" y="-178" on="1"/>
        <pt x="30" y="-178" on="0"/>
        <pt x="-4" y="-173" on="1"/>
        <pt x="5" y="-99" on="1"/>
        <pt x="66" y="-103" on="1"/>
        <pt x="95" y="-103" on="0"/>
        <pt x="107" y="-94" on="1"/>
        <pt x="131" y="-78" on="0"/>
        <pt x="131" y="52" on="1"/>
        <pt x="131" y="582" on="1"/>
        <pt x="214" y="582" on="1"/>
      </contour>
      <contour>
        <pt x="313" y="693" on="1"/>
        <pt x="281" y="660" on="1"/>
        <pt x="177" y="730" on="1"/>
        <pt x="169" y="730" on="1"/>
        <pt x="65" y="660" on="1"/>
        <pt x="32" y="693" on="1"/>
        <pt x="146" y="802" on="1"/>
        <pt x="199" y="802" on="1"/>
      </contour>
    </TTGlyph>
    <TTGlyph name="k" xMin="90" yMin="0" xMax="531" yMax="753">
      <contour>
        <pt x="173" y="753" on="1"/>
        <pt x="173" y="0" on="1"/>
        <pt x="90" y="0" on="1"/>
        <pt x="95" y="321" on="1"/>
        <pt x="90" y="753" on="1"/>
      </contour>
      <contour>
        <pt x="174" y="314" on="1"/>
        <pt x="406" y="582" on="1"/>
        <pt x="513" y="582" on="1"/>
        <pt x="266" y="319" on="1"/>
        <pt x="266" y="314" on="1"/>
        <pt x="531" y="0" on="1"/>
        <pt x="423" y="0" on="1"/>
      </contour>
    </TTGlyph>
    <TTGlyph name="kcommaaccent" xMin="90" yMin="-233" xMax="531" yMax="753">
      <contour>
        <pt x="233" y="-55" on="1"/>
        <pt x="317" y="-55" on="1"/>
        <pt x="315" y="-141" on="0"/>
        <pt x="256" y="-216" on="0"/>
        <pt x="208" y="-233" on="1"/>
        <pt x="186" y="-192" on="1"/>
        <pt x="218" y="-176" on="0"/>
        <pt x="233" y="-126" on="0"/>
      </contour>
      <contour>
        <pt x="173" y="753" on="1"/>
        <pt x="173" y="0" on="1"/>
        <pt x="90" y="0" on="1"/>
        <pt x="95" y="321" on="1"/>
        <pt x="90" y="753" on="1"/>
      </contour>
      <contour>
        <pt x="174" y="314" on="1"/>
        <pt x="406" y="582" on="1"/>
        <pt x="513" y="582" on="1"/>
        <pt x="266" y="319" on="1"/>
        <pt x="266" y="314" on="1"/>
        <pt x="531" y="0" on="1"/>
        <pt x="423" y="0" on="1"/>
      </contour>
    </TTGlyph>
    <TTGlyph name="kgreenlandic" xMin="101" yMin="0" xMax="542" yMax="582">
      <contour>
        <pt x="185" y="314" on="1"/>
        <pt x="417" y="582" on="1"/>
        <pt x="524" y="582" on="1"/>
        <pt x="277" y="319" on="1"/>
        <pt x="277" y="314" on="1"/>
        <pt x="542" y="0" on="1"/>
        <pt x="434" y="0" on="1"/>
      </contour>
      <contour>
        <pt x="101" y="582" on="1"/>
        <pt x="158" y="582" on="1"/>
        <pt x="184" y="506" on="1"/>
        <pt x="184" y="0" on="1"/>
        <pt x="101" y="0" on="1"/>
      </contour>
    </TTGlyph>
    <TTGlyph name="l" xMin="90" yMin="0" xMax="173" yMax="753">
      <contour>
        <pt x="173" y="0" on="1"/>
        <pt x="90" y="0" on="1"/>
        <pt x="90" y="753" on="1"/>
        <pt x="173" y="753" on="1"/>
      </contour>
    </TTGlyph>
    <TTGlyph name="ldot" xMin="90" yMin="0" xMax="342" yMax="753">
      <contour>
        <pt x="244" y="361" on="1"/>
        <pt x="244" y="447" on="1"/>
        <pt x="342" y="447" on="1"/>
        <pt x="342" y="361" on="1"/>
      </contour>
      <contour>
        <pt x="172" y="0" on="1"/>
        <pt x="90" y="0" on="1"/>
        <pt x="90" y="753" on="1"/>
        <pt x="172" y="753" on="1"/>
      </contour>
    </TTGlyph>
    <TTGlyph name="less" xMin="75" yMin="16" xMax="580" yMax="568">
      <contour>
        <pt x="75" y="257" on="1"/>
        <pt x="75" y="328" on="1"/>
        <pt x="580" y="568" on="1"/>
        <pt x="580" y="484" on="1"/>
        <pt x="160" y="296" on="1"/>
        <pt x="160" y="290" on="1"/>
        <pt x="580" y="99" on="1"/>
        <pt x="580" y="16" on="1"/>
      </contour>
    </TTGlyph>
    <TTGlyph name="logicalnot" xMin="28" yMin="117" xMax="543" yMax="330">
      <contour>
        <pt x="543" y="117" on="1"/>
        <pt x="470" y="117" on="1"/>
        <pt x="470" y="257" on="1"/>
        <pt x="28" y="257" on="1"/>
        <pt x="28" y="330" on="1"/>
        <pt x="543" y="330" on="1"/>
      </contour>
    </TTGlyph>
    <TTGlyph name="lslash" xMin="29" yMin="0" xMax="257" yMax="753">
      <contour>
        <pt x="189" y="0" on="1"/>
        <pt x="106" y="0" on="1"/>
        <pt x="106" y="320" on="1"/>
        <pt x="29" y="270" on="1"/>
        <pt x="29" y="349" on="1"/>
        <pt x="106" y="400" on="1"/>
        <pt x="106" y="753" on="1"/>
        <pt x="189" y="753" on="1"/>
        <pt x="189" y="456" on="1"/>
        <pt x="257" y="502" on="1"/>
        <pt x="257" y="420" on="1"/>
        <pt x="189" y="375" on="1"/>
      </contour>
    </TTGlyph>
    <TTGlyph name="m" xMin="101" yMin="0" xMax="829" yMax="595">
      <contour>
        <pt x="354" y="516" on="1"/>
        <pt x="288" y="516" on="0"/>
        <pt x="184" y="464" on="1"/>
        <pt x="184" y="0" on="1"/>
        <pt x="101" y="0" on="1"/>
        <pt x="101" y="582" on="1"/>
        <pt x="157" y="582" on="1"/>
        <pt x="166" y="525" on="1"/>
        <pt x="171" y="525" on="1"/>
        <pt x="288" y="595" on="0"/>
        <pt x="369" y="595" on="1"/>
        <pt x="412" y="595" on="0"/>
        <pt x="474" y="555" on="0"/>
        <pt x="488" y="520" on="1"/>
        <pt x="526" y="543" on="0"/>
        <pt x="574" y="569" on="0"/>
        <pt x="655" y="595" on="0"/>
        <pt x="691" y="595" on="1"/>
        <pt x="768" y="595" on="0"/>
        <pt x="829" y="488" on="0"/>
        <pt x="829" y="383" on="1"/>
        <pt x="829" y="0" on="1"/>
        <pt x="746" y="0" on="1"/>
        <pt x="746" y="355" on="1"/>
        <pt x="746" y="470" on="0"/>
        <pt x="717" y="516" on="0"/>
        <pt x="675" y="516" on="1"/>
        <pt x="603" y="516" on="0"/>
        <pt x="503" y="459" on="1"/>
        <pt x="507" y="415" on="0"/>
        <pt x="507" y="387" on="1"/>
        <pt x="507" y="0" on="1"/>
        <pt x="424" y="0" on="1"/>
        <pt x="424" y="358" on="1"/>
        <pt x="424" y="422" on="0"/>
        <pt x="418" y="478" on="0"/>
        <pt x="393" y="516" on="0"/>
      </contour>
    </TTGlyph>
    <TTGlyph name="macron" xMin="145" yMin="693" xMax="425" yMax="753">
      <contour>
        <pt x="145" y="693" on="1"/>
        <pt x="145" y="753" on="1"/>
        <pt x="425" y="753" on="1"/>
        <pt x="425" y="693" on="1"/>
      </contour>
    </TTGlyph>
    <TTGlyph name="mu" xMin="88" yMin="-166" xMax="500" yMax="582">
      <contour>
        <pt x="88" y="-166" on="1"/>
        <pt x="88" y="582" on="1"/>
        <pt x="172" y="582" on="1"/>
        <pt x="172" y="225" on="1"/>
        <pt x="172" y="113" on="0"/>
        <pt x="185" y="89" on="1"/>
        <pt x="201" y="64" on="0"/>
        <pt x="310" y="64" on="0"/>
        <pt x="416" y="117" on="1"/>
        <pt x="416" y="582" on="1"/>
        <pt x="500" y="582" on="1"/>
        <pt x="500" y="0" on="1"/>
        <pt x="444" y="0" on="1"/>
        <pt x="434" y="56" on="1"/>
        <pt x="428" y="56" on="1"/>
        <pt x="311" y="-13" on="0"/>
        <pt x="244" y="-13" on="1"/>
        <pt x="200" y="-13" on="0"/>
        <pt x="168" y="5" on="1"/>
        <pt x="164" y="2" on="1"/>
        <pt x="172" y="-166" on="1"/>
      </contour>
    </TTGlyph>
    <TTGlyph name="multiply" xMin="54" yMin="63" xMax="521" yMax="531">
      <contour>
        <pt x="106" y="63" on="1"/>
        <pt x="54" y="116" on="1"/>
        <pt x="236" y="298" on="1"/>
        <pt x="56" y="478" on="1"/>
        <pt x="106" y="529" on="1"/>
        <pt x="286" y="348" on="1"/>
        <pt x="469" y="531" on="1"/>
        <pt x="521" y="478" on="1"/>
        <pt x="339" y="296" on="1"/>
        <pt x="519" y="116" on="1"/>
        <pt x="469" y="65" on="1"/>
        <pt x="288" y="245" on="1"/>
      </contour>
    </TTGlyph>
    <TTGlyph name="n" xMin="101" yMin="0" xMax="513" yMax="595">
      <contour>
        <pt x="184" y="0" on="1"/>
        <pt x="101" y="0" on="1"/>
        <pt x="101" y="582" on="1"/>
        <pt x="157" y="582" on="1"/>
        <pt x="166" y="525" on="1"/>
        <pt x="171" y="525" on="1"/>
        <pt x="291" y="595" on="0"/>
        <pt x="379" y="595" on="1"/>
        <pt x="458" y="595" on="0"/>
        <pt x="488" y="534" on="1"/>
        <pt x="513" y="483" on="0"/>
        <pt x="513" y="387" on="1"/>
        <pt x="513" y="0" on="1"/>
        <pt x="429" y="0" on="1"/>
        <pt x="429" y="358" on="1"/>
        <pt x="429" y="472" on="0"/>
        <pt x="400" y="516" on="0"/>
        <pt x="360" y="516" on="1"/>
        <pt x="284" y="516" on="0"/>
        <pt x="184" y="463" on="1"/>
      </contour>
    </TTGlyph>
    <TTGlyph name="nacute" xMin="101" yMin="0" xMax="513" yMax="802">
      <contour>
        <pt x="184" y="0" on="1"/>
        <pt x="101" y="0" on="1"/>
        <pt x="101" y="582" on="1"/>
        <pt x="157" y="582" on="1"/>
        <pt x="166" y="525" on="1"/>
        <pt x="171" y="525" on="1"/>
        <pt x="291" y="595" on="0"/>
        <pt x="379" y="595" on="1"/>
        <pt x="419" y="595" on="0"/>
        <pt x="446" y="580" on="1"/>
        <pt x="513" y="541" on="0"/>
        <pt x="513" y="387" on="1"/>
        <pt x="513" y="0" on="1"/>
        <pt x="429" y="0" on="1"/>
        <pt x="429" y="358" on="1"/>
        <pt x="429" y="472" on="0"/>
        <pt x="400" y="516" on="0"/>
        <pt x="360" y="516" on="1"/>
        <pt x="284" y="516" on="0"/>
        <pt x="184" y="463" on="1"/>
      </contour>
      <contour>
        <pt x="444" y="802" on="1"/>
        <pt x="475" y="735" on="1"/>
        <pt x="242" y="657" on="1"/>
        <pt x="222" y="707" on="1"/>
      </contour>
    </TTGlyph>
    <TTGlyph name="nine" xMin="60" yMin="-13" xMax="490" yMax="708">
      <contour>
        <pt x="267" y="280" on="1"/>
        <pt x="170" y="280" on="0"/>
        <pt x="60" y="381" on="0"/>
        <pt x="60" y="591" on="0"/>
        <pt x="170" y="708" on="0"/>
        <pt x="376" y="708" on="0"/>
        <pt x="490" y="547" on="0"/>
        <pt x="490" y="354" on="1"/>
        <pt x="490" y="-13" on="0"/>
        <pt x="269" y="-13" on="1"/>
        <pt x="223" y="-13" on="0"/>
        <pt x="128" y="17" on="0"/>
        <pt x="104" y="32" on="1"/>
        <pt x="79" y="48" on="1"/>
        <pt x="110" y="111" on="1"/>
        <pt x="140" y="91" on="0"/>
        <pt x="240" y="58" on="0"/>
        <pt x="324" y="58" on="0"/>
        <pt x="370" y="108" on="0"/>
        <pt x="401" y="221" on="0"/>
        <pt x="401" y="295" on="1"/>
        <pt x="328" y="280" on="0"/>
      </contour>
      <contour>
        <pt x="349" y="620" on="1"/>
        <pt x="320" y="636" on="0"/>
        <pt x="192" y="636" on="0"/>
        <pt x="143" y="566" on="0"/>
        <pt x="143" y="417" on="0"/>
        <pt x="187" y="356" on="0"/>
        <pt x="263" y="356" on="1"/>
        <pt x="329" y="356" on="0"/>
        <pt x="401" y="380" on="1"/>
        <pt x="401" y="591" on="0"/>
      </contour>
    </TTGlyph>
    <TTGlyph name="ntilde" xMin="101" yMin="0" xMax="513" yMax="776">
      <contour>
        <pt x="184" y="0" on="1"/>
        <pt x="101" y="0" on="1"/>
        <pt x="101" y="582" on="1"/>
        <pt x="157" y="582" on="1"/>
        <pt x="166" y="525" on="1"/>
        <pt x="171" y="525" on="1"/>
        <pt x="291" y="595" on="0"/>
        <pt x="379" y="595" on="1"/>
        <pt x="419" y="595" on="0"/>
        <pt x="446" y="580" on="1"/>
        <pt x="513" y="541" on="0"/>
        <pt x="513" y="387" on="1"/>
        <pt x="513" y="0" on="1"/>
        <pt x="429" y="0" on="1"/>
        <pt x="429" y="358" on="1"/>
        <pt x="429" y="472" on="0"/>
        <pt x="400" y="516" on="0"/>
        <pt x="360" y="516" on="1"/>
        <pt x="284" y="516" on="0"/>
        <pt x="184" y="463" on="1"/>
      </contour>
      <contour>
        <pt x="130" y="675" on="1"/>
        <pt x="130" y="776" on="0"/>
        <pt x="198" y="776" on="1"/>
        <pt x="229" y="776" on="0"/>
        <pt x="390" y="728" on="0"/>
        <pt x="396" y="728" on="1"/>
        <pt x="409" y="728" on="0"/>
        <pt x="423" y="773" on="1"/>
        <pt x="476" y="766" on="1"/>
        <pt x="476" y="712" on="0"/>
        <pt x="440" y="665" on="0"/>
        <pt x="379" y="665" on="0"/>
        <pt x="215" y="715" on="0"/>
        <pt x="209" y="715" on="1"/>
        <pt x="198" y="715" on="0"/>
        <pt x="182" y="669" on="1"/>
      </contour>
    </TTGlyph>
    <TTGlyph name="numbersign" xMin="25" yMin="0" xMax="509" yMax="695">
      <contour>
        <pt x="25" y="199" on="1"/>
        <pt x="25" y="270" on="1"/>
        <pt x="118" y="270" on="1"/>
        <pt x="142" y="421" on="1"/>
        <pt x="59" y="421" on="1"/>
        <pt x="59" y="493" on="1"/>
        <pt x="153" y="493" on="1"/>
        <pt x="185" y="695" on="1"/>
        <pt x="257" y="695" on="1"/>
        <pt x="225" y="493" on="1"/>
        <pt x="353" y="493" on="1"/>
        <pt x="385" y="695" on="1"/>
        <pt x="458" y="695" on="1"/>
        <pt x="426" y="493" on="1"/>
        <pt x="509" y="493" on="1"/>
        <pt x="509" y="421" on="1"/>
        <pt x="415" y="421" on="1"/>
        <pt x="391" y="270" on="1"/>
        <pt x="474" y="270" on="1"/>
        <pt x="474" y="199" on="1"/>
        <pt x="380" y="199" on="1"/>
        <pt x="349" y="0" on="1"/>
        <pt x="277" y="0" on="1"/>
        <pt x="308" y="199" on="1"/>
        <pt x="180" y="199" on="1"/>
        <pt x="149" y="0" on="1"/>
        <pt x="76" y="0" on="1"/>
        <pt x="107" y="199" on="1"/>
      </contour>
      <contour>
        <pt x="214" y="421" on="1"/>
        <pt x="191" y="270" on="1"/>
        <pt x="319" y="270" on="1"/>
        <pt x="342" y="421" on="1"/>
      </contour>
    </TTGlyph>
    <TTGlyph name="o" xMin="70" yMin="-13" xMax="506" yMax="595">
      <contour>
        <pt x="70" y="440" on="0"/>
        <pt x="169" y="595" on="0"/>
        <pt x="406" y="595" on="0"/>
        <pt x="506" y="440" on="0"/>
        <pt x="506" y="142" on="0"/>
        <pt x="406" y="-13" on="0"/>
        <pt x="169" y="-13" on="0"/>
        <pt x="70" y="141" on="0"/>
      </contour>
      <contour>
        <pt x="342" y="523" on="0"/>
        <pt x="234" y="523" on="0"/>
        <pt x="181" y="489" on="0"/>
        <pt x="154" y="390" on="0"/>
        <pt x="154" y="192" on="0"/>
        <pt x="180" y="92" on="0"/>
        <pt x="234" y="58" on="0"/>
        <pt x="342" y="58" on="0"/>
        <pt x="395" y="92" on="0"/>
        <pt x="421" y="192" on="0"/>
        <pt x="421" y="390" on="0"/>
        <pt x="395" y="489" on="0"/>
      </contour>
    </TTGlyph>
    <TTGlyph name="oacute" xMin="70" yMin="-13" xMax="506" yMax="802">
      <contour>
        <pt x="406" y="595" on="0"/>
        <pt x="506" y="440" on="0"/>
        <pt x="506" y="142" on="0"/>
        <pt x="406" y="-13" on="0"/>
        <pt x="169" y="-13" on="0"/>
        <pt x="70" y="141" on="0"/>
        <pt x="70" y="440" on="0"/>
        <pt x="169" y="595" on="0"/>
      </contour>
      <contour>
        <pt x="342" y="523" on="0"/>
        <pt x="234" y="523" on="0"/>
        <pt x="181" y="489" on="0"/>
        <pt x="154" y="390" on="0"/>
        <pt x="154" y="192" on="0"/>
        <pt x="180" y="92" on="0"/>
        <pt x="234" y="58" on="0"/>
        <pt x="342" y="58" on="0"/>
        <pt x="395" y="92" on="0"/>
        <pt x="421" y="192" on="0"/>
        <pt x="421" y="390" on="0"/>
        <pt x="395" y="489" on="0"/>
      </contour>
      <contour>
        <pt x="424" y="802" on="1"/>
        <pt x="455" y="735" on="1"/>
        <pt x="222" y="657" on="1"/>
        <pt x="202" y="707" on="1"/>
      </contour>
    </TTGlyph>
    <TTGlyph name="ocircumflex" xMin="70" yMin="-13" xMax="506" yMax="802">
      <contour>
        <pt x="406" y="595" on="0"/>
        <pt x="506" y="440" on="0"/>
        <pt x="506" y="142" on="0"/>
        <pt x="406" y="-13" on="0"/>
        <pt x="169" y="-13" on="0"/>
        <pt x="70" y="141" on="0"/>
        <pt x="70" y="440" on="0"/>
        <pt x="169" y="595" on="0"/>
      </contour>
      <contour>
        <pt x="342" y="523" on="0"/>
        <pt x="234" y="523" on="0"/>
        <pt x="181" y="489" on="0"/>
        <pt x="154" y="390" on="0"/>
        <pt x="154" y="192" on="0"/>
        <pt x="180" y="92" on="0"/>
        <pt x="234" y="58" on="0"/>
        <pt x="342" y="58" on="0"/>
        <pt x="395" y="92" on="0"/>
        <pt x="421" y="192" on="0"/>
        <pt x="421" y="390" on="0"/>
        <pt x="395" y="489" on="0"/>
      </contour>
      <contour>
        <pt x="434" y="693" on="1"/>
        <pt x="405" y="659" on="1"/>
        <pt x="291" y="730" on="1"/>
        <pt x="284" y="730" on="1"/>
        <pt x="170" y="659" on="1"/>
        <pt x="141" y="693" on="1"/>
        <pt x="262" y="802" on="1"/>
        <pt x="313" y="802" on="1"/>
      </contour>
    </TTGlyph>
    <TTGlyph name="odieresis" xMin="70" yMin="-13" xMax="506" yMax="766">
      <contour>
        <pt x="70" y="440" on="0"/>
        <pt x="169" y="595" on="0"/>
        <pt x="406" y="595" on="0"/>
        <pt x="506" y="440" on="0"/>
        <pt x="506" y="142" on="0"/>
        <pt x="406" y="-13" on="0"/>
        <pt x="169" y="-13" on="0"/>
        <pt x="70" y="141" on="0"/>
      </contour>
      <contour>
        <pt x="342" y="523" on="0"/>
        <pt x="234" y="523" on="0"/>
        <pt x="181" y="489" on="0"/>
        <pt x="154" y="390" on="0"/>
        <pt x="154" y="192" on="0"/>
        <pt x="180" y="92" on="0"/>
        <pt x="234" y="58" on="0"/>
        <pt x="342" y="58" on="0"/>
        <pt x="395" y="92" on="0"/>
        <pt x="421" y="192" on="0"/>
        <pt x="421" y="390" on="0"/>
        <pt x="395" y="489" on="0"/>
      </contour>
      <contour>
        <pt x="245" y="684" on="1"/>
        <pt x="146" y="684" on="1"/>
        <pt x="146" y="766" on="1"/>
        <pt x="245" y="766" on="1"/>
      </contour>
      <contour>
        <pt x="431" y="684" on="1"/>
        <pt x="333" y="684" on="1"/>
        <pt x="333" y="766" on="1"/>
        <pt x="431" y="766" on="1"/>
      </contour>
    </TTGlyph>
    <TTGlyph name="oe" xMin="70" yMin="-13" xMax="851" yMax="595">
      <contour>
        <pt x="70" y="440" on="0"/>
        <pt x="169" y="595" on="0"/>
        <pt x="411" y="595" on="0"/>
        <pt x="463" y="502" on="1"/>
        <pt x="467" y="502" on="1"/>
        <pt x="522" y="595" on="0"/>
        <pt x="649" y="595" on="1"/>
        <pt x="749" y="595" on="0"/>
        <pt x="851" y="467" on="0"/>
        <pt x="851" y="321" on="1"/>
        <pt x="851" y="259" on="1"/>
        <pt x="507" y="259" on="1"/>
        <pt x="507" y="225" on="1"/>
        <pt x="510" y="118" on="0"/>
        <pt x="550" y="84" on="1"/>
        <pt x="577" y="60" on="0"/>
        <pt x="638" y="60" on="1"/>
        <pt x="671" y="60" on="0"/>
        <pt x="759" y="79" on="0"/>
        <pt x="814" y="98" on="1"/>
        <pt x="835" y="30" on="1"/>
        <pt x="752" y="-13" on="0"/>
        <pt x="648" y="-13" on="1"/>
        <pt x="526" y="-13" on="0"/>
        <pt x="470" y="80" on="1"/>
        <pt x="466" y="80" on="1"/>
        <pt x="415" y="-13" on="0"/>
        <pt x="169" y="-13" on="0"/>
        <pt x="70" y="141" on="0"/>
      </contour>
      <contour>
        <pt x="342" y="523" on="0"/>
        <pt x="234" y="523" on="0"/>
        <pt x="181" y="489" on="0"/>
        <pt x="154" y="390" on="0"/>
        <pt x="154" y="192" on="0"/>
        <pt x="180" y="92" on="0"/>
        <pt x="234" y="58" on="0"/>
        <pt x="342" y="58" on="0"/>
        <pt x="395" y="92" on="0"/>
        <pt x="421" y="192" on="0"/>
        <pt x="421" y="390" on="0"/>
        <pt x="395" y="489" on="0"/>
      </contour>
      <contour>
        <pt x="743" y="493" on="1"/>
        <pt x="726" y="523" on="0"/>
        <pt x="570" y="523" on="0"/>
        <pt x="507" y="441" on="0"/>
        <pt x="507" y="325" on="1"/>
        <pt x="766" y="330" on="1"/>
        <pt x="766" y="455" on="0"/>
      </contour>
    </TTGlyph>
    <TTGlyph name="ograve" xMin="70" yMin="-13" xMax="506" yMax="802">
      <contour>
        <pt x="70" y="440" on="0"/>
        <pt x="169" y="595" on="0"/>
        <pt x="406" y="595" on="0"/>
        <pt x="506" y="440" on="0"/>
        <pt x="506" y="142" on="0"/>
        <pt x="406" y="-13" on="0"/>
        <pt x="169" y="-13" on="0"/>
        <pt x="70" y="141" on="0"/>
      </contour>
      <contour>
        <pt x="342" y="523" on="0"/>
        <pt x="234" y="523" on="0"/>
        <pt x="181" y="489" on="0"/>
        <pt x="154" y="390" on="0"/>
        <pt x="154" y="192" on="0"/>
        <pt x="180" y="92" on="0"/>
        <pt x="234" y="58" on="0"/>
        <pt x="342" y="58" on="0"/>
        <pt x="395" y="92" on="0"/>
        <pt x="421" y="192" on="0"/>
        <pt x="421" y="390" on="0"/>
        <pt x="395" y="489" on="0"/>
      </contour>
      <contour>
        <pt x="151" y="735" on="1"/>
        <pt x="181" y="802" on="1"/>
        <pt x="403" y="707" on="1"/>
        <pt x="383" y="657" on="1"/>
      </contour>
    </TTGlyph>
    <TTGlyph name="one" xMin="43" yMin="0" xMax="476" yMax="702">
      <contour>
        <pt x="77" y="0" on="1"/>
        <pt x="77" y="72" on="1"/>
        <pt x="244" y="70" on="1"/>
        <pt x="251" y="619" on="1"/>
        <pt x="246" y="619" on="1"/>
        <pt x="99" y="464" on="1"/>
        <pt x="43" y="518" on="1"/>
        <pt x="239" y="702" on="1"/>
        <pt x="329" y="695" on="1"/>
        <pt x="329" y="70" on="1"/>
        <pt x="476" y="72" on="1"/>
        <pt x="476" y="0" on="1"/>
      </contour>
    </TTGlyph>
    <TTGlyph name="onehalf" xMin="39" yMin="-9" xMax="844" yMax="733">
      <contour>
        <pt x="327" y="-9" on="1"/>
        <pt x="252" y="-9" on="1"/>
        <pt x="438" y="382" on="1"/>
        <pt x="594" y="733" on="1"/>
        <pt x="668" y="733" on="1"/>
        <pt x="491" y="351" on="1"/>
      </contour>
      <contour>
        <pt x="607" y="375" on="0"/>
        <pt x="682" y="405" on="0"/>
        <pt x="771" y="405" on="0"/>
        <pt x="837" y="352" on="0"/>
        <pt x="837" y="252" on="0"/>
        <pt x="773" y="167" on="1"/>
        <pt x="683" y="59" on="1"/>
        <pt x="683" y="55" on="1"/>
        <pt x="844" y="59" on="1"/>
        <pt x="844" y="0" on="1"/>
        <pt x="594" y="0" on="1"/>
        <pt x="594" y="51" on="1"/>
        <pt x="727" y="194" on="0"/>
        <pt x="760" y="258" on="1"/>
        <pt x="773" y="285" on="0"/>
        <pt x="773" y="304" on="1"/>
        <pt x="773" y="345" on="0"/>
        <pt x="731" y="345" on="1"/>
        <pt x="676" y="345" on="0"/>
        <pt x="615" y="308" on="1"/>
        <pt x="589" y="360" on="1"/>
      </contour>
      <contour>
        <pt x="64" y="298" on="1"/>
        <pt x="64" y="356" on="1"/>
        <pt x="165" y="356" on="1"/>
        <pt x="165" y="636" on="1"/>
        <pt x="161" y="636" on="1"/>
        <pt x="75" y="563" on="1"/>
        <pt x="39" y="609" on="1"/>
        <pt x="161" y="702" on="1"/>
        <pt x="233" y="697" on="1"/>
        <pt x="233" y="356" on="1"/>
        <pt x="321" y="356" on="1"/>
        <pt x="321" y="298" on="1"/>
      </contour>
    </TTGlyph>
    <TTGlyph name="onequarter" xMin="39" yMin="-9" xMax="824" yMax="733">
      <contour>
        <pt x="323" y="-9" on="1"/>
        <pt x="248" y="-9" on="1"/>
        <pt x="434" y="382" on="1"/>
        <pt x="590" y="733" on="1"/>
        <pt x="664" y="733" on="1"/>
        <pt x="487" y="351" on="1"/>
      </contour>
      <contour>
        <pt x="787" y="293" on="1"/>
        <pt x="787" y="141" on="1"/>
        <pt x="824" y="142" on="1"/>
        <pt x="824" y="82" on="1"/>
        <pt x="787" y="82" on="1"/>
        <pt x="787" y="0" on="1"/>
        <pt x="722" y="0" on="1"/>
        <pt x="724" y="82" on="1"/>
        <pt x="546" y="82" on="1"/>
        <pt x="546" y="134" on="1"/>
        <pt x="641" y="406" on="1"/>
        <pt x="702" y="399" on="1"/>
        <pt x="608" y="140" on="1"/>
        <pt x="608" y="136" on="1"/>
        <pt x="724" y="141" on="1"/>
        <pt x="735" y="293" on="1"/>
      </contour>
      <contour>
        <pt x="64" y="298" on="1"/>
        <pt x="64" y="356" on="1"/>
        <pt x="165" y="356" on="1"/>
        <pt x="165" y="636" on="1"/>
        <pt x="161" y="636" on="1"/>
        <pt x="75" y="563" on="1"/>
        <pt x="39" y="609" on="1"/>
        <pt x="161" y="702" on="1"/>
        <pt x="233" y="697" on="1"/>
        <pt x="233" y="356" on="1"/>
        <pt x="321" y="356" on="1"/>
        <pt x="321" y="298" on="1"/>
      </contour>
    </TTGlyph>
    <TTGlyph name="onesuperior" xMin="39" yMin="298" xMax="321" yMax="702">
      <contour>
        <pt x="64" y="298" on="1"/>
        <pt x="64" y="356" on="1"/>
        <pt x="165" y="356" on="1"/>
        <pt x="165" y="636" on="1"/>
        <pt x="161" y="636" on="1"/>
        <pt x="75" y="563" on="1"/>
        <pt x="39" y="609" on="1"/>
        <pt x="161" y="702" on="1"/>
        <pt x="233" y="697" on="1"/>
        <pt x="233" y="356" on="1"/>
        <pt x="321" y="356" on="1"/>
        <pt x="321" y="298" on="1"/>
      </contour>
    </TTGlyph>
    <TTGlyph name="ordfeminine" xMin="50" yMin="289" xMax="346" yMax="702">
      <contour>
        <pt x="208" y="546" on="1"/>
        <pt x="278" y="546" on="1"/>
        <pt x="278" y="605" on="0"/>
        <pt x="255" y="640" on="0"/>
        <pt x="220" y="640" on="1"/>
        <pt x="155" y="640" on="0"/>
        <pt x="97" y="614" on="1"/>
        <pt x="77" y="605" on="1"/>
        <pt x="59" y="663" on="1"/>
        <pt x="144" y="702" on="0"/>
        <pt x="284" y="702" on="0"/>
        <pt x="346" y="630" on="0"/>
        <pt x="346" y="557" on="1"/>
        <pt x="346" y="298" on="1"/>
        <pt x="300" y="298" on="1"/>
        <pt x="290" y="336" on="1"/>
        <pt x="286" y="336" on="1"/>
        <pt x="220" y="289" on="0"/>
        <pt x="164" y="289" on="1"/>
        <pt x="50" y="289" on="0"/>
        <pt x="50" y="422" on="1"/>
        <pt x="50" y="546" on="0"/>
      </contour>
      <contour>
        <pt x="278" y="483" on="1"/>
        <pt x="251" y="486" on="0"/>
        <pt x="154" y="486" on="0"/>
        <pt x="141" y="473" on="1"/>
        <pt x="121" y="456" on="0"/>
        <pt x="121" y="381" on="0"/>
        <pt x="148" y="352" on="0"/>
        <pt x="172" y="352" on="1"/>
        <pt x="214" y="352" on="0"/>
        <pt x="262" y="378" on="1"/>
        <pt x="278" y="386" on="1"/>
      </contour>
    </TTGlyph>
    <TTGlyph name="ordmasculine" xMin="23" yMin="289" xMax="334" yMax="702">
      <contour>
        <pt x="23" y="597" on="0"/>
        <pt x="94" y="702" on="0"/>
        <pt x="263" y="702" on="0"/>
        <pt x="334" y="597" on="0"/>
        <pt x="334" y="394" on="0"/>
        <pt x="263" y="289" on="0"/>
        <pt x="94" y="289" on="0"/>
        <pt x="23" y="394" on="0"/>
      </contour>
      <contour>
        <pt x="227" y="641" on="0"/>
        <pt x="129" y="641" on="0"/>
        <pt x="93" y="584" on="0"/>
        <pt x="93" y="407" on="0"/>
        <pt x="130" y="350" on="0"/>
        <pt x="227" y="350" on="0"/>
        <pt x="265" y="407" on="0"/>
        <pt x="265" y="584" on="0"/>
      </contour>
    </TTGlyph>
    <TTGlyph name="oslash" xMin="71" yMin="-38" xMax="508" yMax="627">
      <contour>
        <pt x="124" y="60" on="1"/>
        <pt x="71" y="133" on="0"/>
        <pt x="71" y="440" on="0"/>
        <pt x="171" y="595" on="0"/>
        <pt x="290" y="595" on="1"/>
        <pt x="336" y="595" on="0"/>
        <pt x="370" y="583" on="1"/>
        <pt x="390" y="627" on="1"/>
        <pt x="466" y="627" on="1"/>
        <pt x="429" y="550" on="1"/>
        <pt x="508" y="479" on="0"/>
        <pt x="508" y="291" on="1"/>
        <pt x="508" y="142" on="0"/>
        <pt x="408" y="-13" on="0"/>
        <pt x="290" y="-13" on="1"/>
        <pt x="222" y="-13" on="0"/>
        <pt x="176" y="13" on="1"/>
        <pt x="153" y="-38" on="1"/>
        <pt x="77" y="-38" on="1"/>
      </contour>
      <contour>
        <pt x="206" y="77" on="1"/>
        <pt x="231" y="58" on="0"/>
        <pt x="344" y="58" on="0"/>
        <pt x="397" y="92" on="0"/>
        <pt x="423" y="192" on="0"/>
        <pt x="423" y="432" on="0"/>
        <pt x="395" y="480" on="1"/>
        <pt x="305" y="291" on="1"/>
      </contour>
      <contour>
        <pt x="340" y="518" on="1"/>
        <pt x="322" y="523" on="0"/>
        <pt x="236" y="523" on="0"/>
        <pt x="182" y="489" on="0"/>
        <pt x="156" y="390" on="0"/>
        <pt x="156" y="194" on="0"/>
        <pt x="167" y="147" on="1"/>
        <pt x="251" y="322" on="1"/>
      </contour>
    </TTGlyph>
    <TTGlyph name="otilde" xMin="70" yMin="-13" xMax="506" yMax="776">
      <contour>
        <pt x="406" y="595" on="0"/>
        <pt x="506" y="440" on="0"/>
        <pt x="506" y="142" on="0"/>
        <pt x="406" y="-13" on="0"/>
        <pt x="169" y="-13" on="0"/>
        <pt x="70" y="141" on="0"/>
        <pt x="70" y="440" on="0"/>
        <pt x="169" y="595" on="0"/>
      </contour>
      <contour>
        <pt x="342" y="523" on="0"/>
        <pt x="234" y="523" on="0"/>
        <pt x="181" y="489" on="0"/>
        <pt x="154" y="390" on="0"/>
        <pt x="154" y="192" on="0"/>
        <pt x="180" y="92" on="0"/>
        <pt x="234" y="58" on="0"/>
        <pt x="342" y="58" on="0"/>
        <pt x="395" y="92" on="0"/>
        <pt x="421" y="192" on="0"/>
        <pt x="421" y="390" on="0"/>
        <pt x="395" y="489" on="0"/>
      </contour>
      <contour>
        <pt x="115" y="675" on="1"/>
        <pt x="115" y="776" on="0"/>
        <pt x="183" y="776" on="1"/>
        <pt x="214" y="776" on="0"/>
        <pt x="375" y="728" on="0"/>
        <pt x="382" y="728" on="1"/>
        <pt x="394" y="728" on="0"/>
        <pt x="408" y="773" on="1"/>
        <pt x="461" y="766" on="1"/>
        <pt x="461" y="712" on="0"/>
        <pt x="425" y="665" on="0"/>
        <pt x="364" y="665" on="0"/>
        <pt x="200" y="715" on="0"/>
        <pt x="194" y="715" on="1"/>
        <pt x="183" y="715" on="0"/>
        <pt x="167" y="669" on="1"/>
      </contour>
    </TTGlyph>
    <TTGlyph name="p" xMin="85" yMin="-166" xMax="507" yMax="595">
      <contour>
        <pt x="168" y="-166" on="1"/>
        <pt x="85" y="-166" on="1"/>
        <pt x="85" y="582" on="1"/>
        <pt x="141" y="582" on="1"/>
        <pt x="152" y="523" on="1"/>
        <pt x="157" y="523" on="1"/>
        <pt x="159" y="524" on="0"/>
        <pt x="199" y="552" on="0"/>
        <pt x="236" y="574" on="0"/>
        <pt x="300" y="595" on="0"/>
        <pt x="331" y="595" on="1"/>
        <pt x="415" y="595" on="0"/>
        <pt x="507" y="451" on="0"/>
        <pt x="507" y="302" on="1"/>
        <pt x="507" y="-13" on="0"/>
        <pt x="296" y="-13" on="1"/>
        <pt x="250" y="-13" on="0"/>
        <pt x="168" y="1" on="1"/>
      </contour>
      <contour>
        <pt x="168" y="81" on="1"/>
        <pt x="253" y="60" on="0"/>
        <pt x="353" y="60" on="0"/>
        <pt x="372" y="76" on="1"/>
        <pt x="419" y="115" on="0"/>
        <pt x="419" y="318" on="1"/>
        <pt x="419" y="474" on="0"/>
        <pt x="390" y="503" on="1"/>
        <pt x="373" y="520" on="0"/>
        <pt x="299" y="520" on="0"/>
        <pt x="216" y="493" on="0"/>
        <pt x="168" y="466" on="1"/>
      </contour>
    </TTGlyph>
    <TTGlyph name="paragraph" xMin="49" yMin="-154" xMax="560" yMax="695">
      <contour>
        <pt x="560" y="-154" on="1"/>
        <pt x="476" y="-154" on="1"/>
        <pt x="476" y="621" on="1"/>
        <pt x="349" y="621" on="1"/>
        <pt x="349" y="-154" on="1"/>
        <pt x="265" y="-154" on="1"/>
        <pt x="265" y="194" on="1"/>
        <pt x="159" y="194" on="0"/>
        <pt x="49" y="308" on="0"/>
        <pt x="49" y="582" on="0"/>
        <pt x="158" y="695" on="0"/>
        <pt x="265" y="695" on="1"/>
        <pt x="560" y="695" on="1"/>
      </contour>
    </TTGlyph>
    <TTGlyph name="parenleft" xMin="69" yMin="-124" xMax="285" yMax="783">
      <contour>
        <pt x="285" y="730" on="1"/>
        <pt x="154" y="647" on="0"/>
        <pt x="154" y="12" on="0"/>
        <pt x="285" y="-72" on="1"/>
        <pt x="247" y="-124" on="1"/>
        <pt x="69" y="-17" on="0"/>
        <pt x="69" y="676" on="0"/>
        <pt x="247" y="783" on="1"/>
      </contour>
    </TTGlyph>
    <TTGlyph name="parenright" xMin="31" yMin="-124" xMax="247" yMax="783">
      <contour>
        <pt x="68" y="783" on="1"/>
        <pt x="247" y="676" on="0"/>
        <pt x="247" y="-17" on="0"/>
        <pt x="68" y="-124" on="1"/>
        <pt x="31" y="-72" on="1"/>
        <pt x="162" y="12" on="0"/>
        <pt x="162" y="647" on="0"/>
        <pt x="31" y="730" on="1"/>
      </contour>
    </TTGlyph>
    <TTGlyph name="percent" xMin="53" yMin="-9" xMax="746" yMax="733">
      <contour>
        <pt x="140" y="707" on="0"/>
        <pt x="266" y="707" on="0"/>
        <pt x="353" y="634" on="0"/>
        <pt x="353" y="481" on="0"/>
        <pt x="265" y="407" on="0"/>
        <pt x="140" y="407" on="0"/>
        <pt x="53" y="481" on="0"/>
        <pt x="53" y="634" on="0"/>
      </contour>
      <contour>
        <pt x="283" y="640" on="0"/>
        <pt x="123" y="640" on="0"/>
        <pt x="123" y="474" on="0"/>
        <pt x="283" y="474" on="0"/>
      </contour>
      <contour>
        <pt x="445" y="220" on="0"/>
        <pt x="532" y="293" on="0"/>
        <pt x="659" y="293" on="0"/>
        <pt x="746" y="220" on="0"/>
        <pt x="746" y="67" on="0"/>
        <pt x="658" y="-7" on="0"/>
        <pt x="532" y="-7" on="0"/>
        <pt x="445" y="67" on="0"/>
      </contour>
      <contour>
        <pt x="675" y="226" on="0"/>
        <pt x="516" y="226" on="0"/>
        <pt x="516" y="60" on="0"/>
        <pt x="675" y="60" on="0"/>
      </contour>
      <contour>
        <pt x="263" y="-9" on="1"/>
        <pt x="188" y="-9" on="1"/>
        <pt x="374" y="382" on="1"/>
        <pt x="530" y="733" on="1"/>
        <pt x="604" y="733" on="1"/>
        <pt x="427" y="351" on="1"/>
      </contour>
    </TTGlyph>
    <TTGlyph name="period" xMin="76" yMin="0" xMax="178" yMax="89">
      <contour>
        <pt x="76" y="0" on="1"/>
        <pt x="76" y="89" on="1"/>
        <pt x="178" y="89" on="1"/>
        <pt x="178" y="0" on="1"/>
      </contour>
    </TTGlyph>
    <TTGlyph name="periodcentered" xMin="97" yMin="274" xMax="210" yMax="387">
      <contour>
        <pt x="154" y="387" on="1"/>
        <pt x="177" y="387" on="0"/>
        <pt x="210" y="361" on="0"/>
        <pt x="210" y="302" on="0"/>
        <pt x="177" y="274" on="0"/>
        <pt x="130" y="274" on="0"/>
        <pt x="97" y="302" on="0"/>
        <pt x="97" y="331" on="1"/>
        <pt x="97" y="387" on="0"/>
      </contour>
    </TTGlyph>
    <TTGlyph name="plus" xMin="52" yMin="32" xMax="569" yMax="553">
      <contour>
        <pt x="52" y="257" on="1"/>
        <pt x="52" y="328" on="1"/>
        <pt x="273" y="328" on="1"/>
        <pt x="273" y="553" on="1"/>
        <pt x="347" y="553" on="1"/>
        <pt x="347" y="328" on="1"/>
        <pt x="569" y="328" on="1"/>
        <pt x="569" y="257" on="1"/>
        <pt x="347" y="257" on="1"/>
        <pt x="347" y="32" on="1"/>
        <pt x="273" y="32" on="1"/>
        <pt x="273" y="257" on="1"/>
      </contour>
    </TTGlyph>
    <TTGlyph name="plusminus" xMin="52" yMin="17" xMax="507" yMax="568">
      <contour>
        <pt x="52" y="327" on="1"/>
        <pt x="52" y="397" on="1"/>
        <pt x="242" y="397" on="1"/>
        <pt x="242" y="568" on="1"/>
        <pt x="316" y="568" on="1"/>
        <pt x="316" y="397" on="1"/>
        <pt x="507" y="397" on="1"/>
        <pt x="507" y="327" on="1"/>
        <pt x="316" y="327" on="1"/>
        <pt x="316" y="155" on="1"/>
        <pt x="242" y="155" on="1"/>
        <pt x="242" y="327" on="1"/>
      </contour>
      <contour>
        <pt x="52" y="17" on="1"/>
        <pt x="52" y="89" on="1"/>
        <pt x="507" y="89" on="1"/>
        <pt x="507" y="17" on="1"/>
      </contour>
    </TTGlyph>
    <TTGlyph name="q" xMin="70" yMin="-166" xMax="487" yMax="595">
      <contour>
        <pt x="487" y="-166" on="1"/>
        <pt x="404" y="-166" on="1"/>
        <pt x="404" y="20" on="1"/>
        <pt x="330" y="-13" on="0"/>
        <pt x="260" y="-13" on="1"/>
        <pt x="70" y="-13" on="0"/>
        <pt x="70" y="302" on="1"/>
        <pt x="70" y="463" on="0"/>
        <pt x="173" y="595" on="0"/>
        <pt x="281" y="595" on="1"/>
        <pt x="323" y="595" on="0"/>
        <pt x="426" y="578" on="0"/>
        <pt x="487" y="561" on="1"/>
      </contour>
      <contour>
        <pt x="404" y="506" on="1"/>
        <pt x="346" y="522" on="0"/>
        <pt x="208" y="522" on="0"/>
        <pt x="190" y="501" on="1"/>
        <pt x="157" y="463" on="0"/>
        <pt x="157" y="121" on="0"/>
        <pt x="197" y="79" on="1"/>
        <pt x="215" y="61" on="0"/>
        <pt x="250" y="61" on="1"/>
        <pt x="318" y="61" on="0"/>
        <pt x="382" y="85" on="1"/>
        <pt x="404" y="93" on="1"/>
      </contour>
    </TTGlyph>
    <TTGlyph name="question" xMin="31" yMin="0" xMax="432" yMax="708">
      <contour>
        <pt x="220" y="191" on="1"/>
        <pt x="150" y="191" on="1"/>
        <pt x="150" y="201" on="1"/>
        <pt x="150" y="256" on="0"/>
        <pt x="190" y="336" on="0"/>
        <pt x="247" y="382" on="0"/>
        <pt x="276" y="404" on="1"/>
        <pt x="345" y="456" on="0"/>
        <pt x="345" y="533" on="1"/>
        <pt x="345" y="593" on="0"/>
        <pt x="305" y="618" on="1"/>
        <pt x="289" y="631" on="0"/>
        <pt x="206" y="631" on="0"/>
        <pt x="112" y="604" on="0"/>
        <pt x="86" y="590" on="1"/>
        <pt x="61" y="577" on="1"/>
        <pt x="46" y="611" on="0"/>
        <pt x="31" y="645" on="1"/>
        <pt x="70" y="670" on="0"/>
        <pt x="186" y="708" on="0"/>
        <pt x="233" y="708" on="1"/>
        <pt x="321" y="708" on="0"/>
        <pt x="432" y="605" on="0"/>
        <pt x="432" y="525" on="1"/>
        <pt x="432" y="471" on="0"/>
        <pt x="388" y="390" on="0"/>
        <pt x="326" y="340" on="0"/>
        <pt x="295" y="318" on="1"/>
        <pt x="220" y="263" on="0"/>
      </contour>
      <contour>
        <pt x="132" y="0" on="1"/>
        <pt x="132" y="89" on="1"/>
        <pt x="240" y="89" on="1"/>
        <pt x="240" y="0" on="1"/>
      </contour>
    </TTGlyph>
    <TTGlyph name="questiondown" xMin="30" yMin="-126" xMax="432" yMax="582">
      <contour>
        <pt x="432" y="-63" on="1"/>
        <pt x="405" y="-79" on="1"/>
        <pt x="378" y="-95" on="0"/>
        <pt x="276" y="-126" on="0"/>
        <pt x="229" y="-126" on="1"/>
        <pt x="141" y="-126" on="0"/>
        <pt x="30" y="-23" on="0"/>
        <pt x="30" y="57" on="1"/>
        <pt x="30" y="111" on="0"/>
        <pt x="74" y="192" on="0"/>
        <pt x="136" y="242" on="0"/>
        <pt x="167" y="264" on="1"/>
        <pt x="242" y="319" on="0"/>
        <pt x="242" y="391" on="1"/>
        <pt x="313" y="391" on="1"/>
        <pt x="313" y="382" on="1"/>
        <pt x="313" y="301" on="0"/>
        <pt x="274" y="256" on="1"/>
        <pt x="257" y="235" on="0"/>
        <pt x="216" y="200" on="0"/>
        <pt x="174" y="169" on="0"/>
        <pt x="157" y="152" on="1"/>
        <pt x="118" y="111" on="0"/>
        <pt x="118" y="50" on="1"/>
        <pt x="118" y="-9" on="0"/>
        <pt x="157" y="-36" on="1"/>
        <pt x="176" y="-49" on="0"/>
        <pt x="257" y="-49" on="0"/>
        <pt x="367" y="-15" on="0"/>
        <pt x="401" y="5" on="1"/>
        <pt x="425" y="-49" on="0"/>
      </contour>
      <contour>
        <pt x="223" y="493" on="1"/>
        <pt x="223" y="582" on="1"/>
        <pt x="331" y="582" on="1"/>
        <pt x="331" y="493" on="1"/>
      </contour>
    </TTGlyph>
    <TTGlyph name="quotedbl" xMin="56" yMin="478" xMax="283" yMax="713">
      <contour>
        <pt x="56" y="713" on="1"/>
        <pt x="139" y="713" on="1"/>
        <pt x="139" y="694" on="1"/>
        <pt x="123" y="478" on="1"/>
        <pt x="70" y="478" on="1"/>
        <pt x="56" y="695" on="1"/>
      </contour>
      <contour>
        <pt x="199" y="713" on="1"/>
        <pt x="283" y="713" on="1"/>
        <pt x="283" y="694" on="1"/>
        <pt x="266" y="478" on="1"/>
        <pt x="213" y="478" on="1"/>
        <pt x="199" y="695" on="1"/>
      </contour>
    </TTGlyph>
    <TTGlyph name="quotedblbase" xMin="62" yMin="-115" xMax="310" yMax="132">
      <contour>
        <pt x="241" y="-115" on="1"/>
        <pt x="202" y="-83" on="1"/>
        <pt x="233" y="-43" on="0"/>
        <pt x="233" y="15" on="1"/>
        <pt x="227" y="132" on="1"/>
        <pt x="306" y="132" on="1"/>
        <pt x="310" y="99" on="0"/>
        <pt x="310" y="65" on="1"/>
        <pt x="309" y="-53" on="0"/>
      </contour>
      <contour>
        <pt x="101" y="-115" on="1"/>
        <pt x="62" y="-83" on="1"/>
        <pt x="93" y="-43" on="0"/>
        <pt x="93" y="15" on="1"/>
        <pt x="87" y="132" on="1"/>
        <pt x="166" y="132" on="1"/>
        <pt x="170" y="99" on="0"/>
        <pt x="170" y="65" on="1"/>
        <pt x="169" y="-53" on="0"/>
      </contour>
    </TTGlyph>
    <TTGlyph name="quotedblleft" xMin="59" yMin="481" xMax="307" yMax="728">
      <contour>
        <pt x="128" y="728" on="1"/>
        <pt x="167" y="696" on="1"/>
        <pt x="136" y="656" on="0"/>
        <pt x="136" y="598" on="1"/>
        <pt x="142" y="481" on="1"/>
        <pt x="63" y="481" on="1"/>
        <pt x="59" y="514" on="0"/>
        <pt x="59" y="548" on="1"/>
        <pt x="60" y="666" on="0"/>
      </contour>
      <contour>
        <pt x="268" y="728" on="1"/>
        <pt x="307" y="696" on="1"/>
        <pt x="276" y="656" on="0"/>
        <pt x="276" y="598" on="1"/>
        <pt x="282" y="481" on="1"/>
        <pt x="203" y="481" on="1"/>
        <pt x="199" y="514" on="0"/>
        <pt x="199" y="548" on="1"/>
        <pt x="200" y="666" on="0"/>
      </contour>
    </TTGlyph>
    <TTGlyph name="quotedblright" xMin="59" yMin="466" xMax="307" yMax="713">
      <contour>
        <pt x="238" y="466" on="1"/>
        <pt x="199" y="498" on="1"/>
        <pt x="230" y="538" on="0"/>
        <pt x="230" y="596" on="1"/>
        <pt x="224" y="713" on="1"/>
        <pt x="303" y="713" on="1"/>
        <pt x="307" y="680" on="0"/>
        <pt x="307" y="646" on="1"/>
        <pt x="306" y="528" on="0"/>
      </contour>
      <contour>
        <pt x="98" y="466" on="1"/>
        <pt x="59" y="498" on="1"/>
        <pt x="90" y="538" on="0"/>
        <pt x="90" y="596" on="1"/>
        <pt x="84" y="713" on="1"/>
        <pt x="163" y="713" on="1"/>
        <pt x="167" y="680" on="0"/>
        <pt x="167" y="646" on="1"/>
        <pt x="166" y="528" on="0"/>
      </contour>
    </TTGlyph>
    <TTGlyph name="quoteleft" xMin="59" yMin="481" xMax="167" yMax="728">
      <contour>
        <pt x="128" y="728" on="1"/>
        <pt x="167" y="696" on="1"/>
        <pt x="136" y="656" on="0"/>
        <pt x="136" y="598" on="1"/>
        <pt x="142" y="481" on="1"/>
        <pt x="63" y="481" on="1"/>
        <pt x="59" y="514" on="0"/>
        <pt x="59" y="548" on="1"/>
        <pt x="60" y="666" on="0"/>
      </contour>
    </TTGlyph>
    <TTGlyph name="quoteright" xMin="59" yMin="466" xMax="167" yMax="713">
      <contour>
        <pt x="98" y="466" on="1"/>
        <pt x="59" y="498" on="1"/>
        <pt x="91" y="537" on="0"/>
        <pt x="91" y="596" on="1"/>
        <pt x="84" y="713" on="1"/>
        <pt x="163" y="713" on="1"/>
        <pt x="167" y="680" on="0"/>
        <pt x="167" y="646" on="1"/>
        <pt x="166" y="526" on="0"/>
      </contour>
    </TTGlyph>
    <TTGlyph name="quotesinglbase" xMin="62" yMin="-114" xMax="170" yMax="133">
      <contour>
        <pt x="101" y="-114" on="1"/>
        <pt x="62" y="-82" on="1"/>
        <pt x="93" y="-42" on="0"/>
        <pt x="93" y="16" on="1"/>
        <pt x="87" y="133" on="1"/>
        <pt x="166" y="133" on="1"/>
        <pt x="170" y="100" on="0"/>
        <pt x="170" y="66" on="1"/>
        <pt x="169" y="-52" on="0"/>
      </contour>
    </TTGlyph>
    <TTGlyph name="quotesingle" xMin="56" yMin="478" xMax="139" yMax="713">
      <contour>
        <pt x="56" y="713" on="1"/>
        <pt x="139" y="713" on="1"/>
        <pt x="139" y="694" on="1"/>
        <pt x="123" y="478" on="1"/>
        <pt x="70" y="478" on="1"/>
        <pt x="56" y="695" on="1"/>
      </contour>
    </TTGlyph>
    <TTGlyph name="r" xMin="101" yMin="0" xMax="375" yMax="595">
      <contour>
        <pt x="368" y="510" on="1"/>
        <pt x="345" y="512" on="0"/>
        <pt x="292" y="512" on="0"/>
        <pt x="208" y="480" on="0"/>
        <pt x="184" y="461" on="1"/>
        <pt x="184" y="0" on="1"/>
        <pt x="101" y="0" on="1"/>
        <pt x="101" y="582" on="1"/>
        <pt x="154" y="582" on="1"/>
        <pt x="165" y="523" on="1"/>
        <pt x="171" y="523" on="1"/>
        <pt x="212" y="553" on="0"/>
        <pt x="304" y="595" on="0"/>
        <pt x="334" y="595" on="1"/>
        <pt x="375" y="590" on="1"/>
      </contour>
    </TTGlyph>
    <TTGlyph name="rcaron" xMin="81" yMin="0" xMax="375" yMax="806">
      <contour>
        <pt x="368" y="510" on="1"/>
        <pt x="345" y="512" on="0"/>
        <pt x="292" y="512" on="0"/>
        <pt x="208" y="480" on="0"/>
        <pt x="184" y="461" on="1"/>
        <pt x="184" y="0" on="1"/>
        <pt x="101" y="0" on="1"/>
        <pt x="101" y="582" on="1"/>
        <pt x="154" y="582" on="1"/>
        <pt x="165" y="523" on="1"/>
        <pt x="171" y="523" on="1"/>
        <pt x="212" y="553" on="0"/>
        <pt x="304" y="595" on="0"/>
        <pt x="334" y="595" on="1"/>
        <pt x="375" y="590" on="1"/>
      </contour>
      <contour>
        <pt x="345" y="806" on="1"/>
        <pt x="374" y="772" on="1"/>
        <pt x="253" y="663" on="1"/>
        <pt x="202" y="663" on="1"/>
        <pt x="81" y="772" on="1"/>
        <pt x="110" y="806" on="1"/>
        <pt x="224" y="735" on="1"/>
        <pt x="231" y="735" on="1"/>
      </contour>
    </TTGlyph>
    <TTGlyph name="rcommaaccent" xMin="54" yMin="-233" xMax="375" yMax="595">
      <contour>
        <pt x="368" y="510" on="1"/>
        <pt x="345" y="512" on="0"/>
        <pt x="292" y="512" on="0"/>
        <pt x="208" y="480" on="0"/>
        <pt x="184" y="461" on="1"/>
        <pt x="184" y="0" on="1"/>
        <pt x="101" y="0" on="1"/>
        <pt x="101" y="582" on="1"/>
        <pt x="154" y="582" on="1"/>
        <pt x="165" y="523" on="1"/>
        <pt x="171" y="523" on="1"/>
        <pt x="212" y="553" on="0"/>
        <pt x="304" y="595" on="0"/>
        <pt x="334" y="595" on="1"/>
        <pt x="375" y="590" on="1"/>
      </contour>
      <contour>
        <pt x="101" y="-55" on="1"/>
        <pt x="184" y="-55" on="1"/>
        <pt x="182" y="-147" on="0"/>
        <pt x="147" y="-186" on="1"/>
        <pt x="119" y="-217" on="0"/>
        <pt x="76" y="-233" on="1"/>
        <pt x="54" y="-192" on="1"/>
        <pt x="86" y="-176" on="0"/>
        <pt x="101" y="-126" on="0"/>
      </contour>
    </TTGlyph>
    <TTGlyph name="registered" xMin="72" yMin="-27" xMax="764" yMax="671">
      <contour>
        <pt x="265" y="-27" on="0"/>
        <pt x="72" y="169" on="0"/>
        <pt x="72" y="473" on="0"/>
        <pt x="271" y="671" on="0"/>
        <pt x="569" y="671" on="0"/>
        <pt x="764" y="474" on="0"/>
        <pt x="764" y="170" on="0"/>
        <pt x="569" y="-27" on="0"/>
      </contour>
      <contour>
        <pt x="294" y="601" on="0"/>
        <pt x="144" y="450" on="0"/>
        <pt x="144" y="192" on="0"/>
        <pt x="289" y="43" on="0"/>
        <pt x="546" y="43" on="0"/>
        <pt x="692" y="193" on="0"/>
        <pt x="692" y="451" on="0"/>
        <pt x="546" y="601" on="0"/>
      </contour>
      <contour>
        <pt x="353" y="118" on="1"/>
        <pt x="281" y="118" on="1"/>
        <pt x="284" y="311" on="1"/>
        <pt x="282" y="524" on="1"/>
        <pt x="358" y="532" on="0"/>
        <pt x="426" y="532" on="1"/>
        <pt x="564" y="532" on="0"/>
        <pt x="564" y="402" on="1"/>
        <pt x="564" y="348" on="0"/>
        <pt x="517" y="284" on="0"/>
        <pt x="485" y="276" on="1"/>
        <pt x="485" y="273" on="1"/>
        <pt x="565" y="118" on="1"/>
        <pt x="484" y="118" on="1"/>
        <pt x="413" y="267" on="1"/>
        <pt x="353" y="268" on="1"/>
      </contour>
      <contour>
        <pt x="352" y="335" on="1"/>
        <pt x="384" y="331" on="0"/>
        <pt x="463" y="331" on="0"/>
        <pt x="489" y="364" on="0"/>
        <pt x="489" y="440" on="0"/>
        <pt x="464" y="469" on="0"/>
        <pt x="427" y="469" on="1"/>
        <pt x="354" y="464" on="1"/>
      </contour>
    </TTGlyph>
    <TTGlyph name="ring" xMin="58" yMin="647" xMax="226" yMax="814">
      <contour>
        <pt x="106" y="814" on="0"/>
        <pt x="178" y="814" on="0"/>
        <pt x="226" y="775" on="0"/>
        <pt x="226" y="686" on="0"/>
        <pt x="178" y="647" on="0"/>
        <pt x="106" y="647" on="0"/>
        <pt x="58" y="686" on="0"/>
        <pt x="58" y="775" on="0"/>
      </contour>
      <contour>
        <pt x="161" y="768" on="0"/>
        <pt x="123" y="768" on="0"/>
        <pt x="106" y="753" on="0"/>
        <pt x="106" y="708" on="0"/>
        <pt x="123" y="693" on="0"/>
        <pt x="161" y="693" on="0"/>
        <pt x="176" y="708" on="0"/>
        <pt x="176" y="753" on="0"/>
      </contour>
    </TTGlyph>
    <TTGlyph name="ring.cap" xMin="58" yMin="722" xMax="226" yMax="887">
      <contour>
        <pt x="106" y="887" on="0"/>
        <pt x="178" y="887" on="0"/>
        <pt x="226" y="848" on="0"/>
        <pt x="226" y="761" on="0"/>
        <pt x="178" y="722" on="0"/>
        <pt x="106" y="722" on="0"/>
        <pt x="58" y="761" on="0"/>
        <pt x="58" y="848" on="0"/>
      </contour>
      <contour>
        <pt x="161" y="841" on="0"/>
        <pt x="123" y="841" on="0"/>
        <pt x="106" y="826" on="0"/>
        <pt x="106" y="783" on="0"/>
        <pt x="123" y="768" on="0"/>
        <pt x="161" y="768" on="0"/>
        <pt x="176" y="782" on="0"/>
        <pt x="176" y="826" on="0"/>
      </contour>
    </TTGlyph>
    <TTGlyph name="s" xMin="55" yMin="-13" xMax="434" yMax="595">
      <contour>
        <pt x="393" y="501" on="1"/>
        <pt x="314" y="523" on="0"/>
        <pt x="174" y="523" on="0"/>
        <pt x="134" y="493" on="0"/>
        <pt x="134" y="450" on="1"/>
        <pt x="134" y="412" on="0"/>
        <pt x="163" y="383" on="0"/>
        <pt x="179" y="369" on="0"/>
        <pt x="217" y="354" on="0"/>
        <pt x="226" y="351" on="1"/>
        <pt x="263" y="340" on="0"/>
        <pt x="293" y="332" on="1"/>
        <pt x="360" y="313" on="0"/>
        <pt x="434" y="243" on="0"/>
        <pt x="434" y="86" on="0"/>
        <pt x="335" y="-13" on="0"/>
        <pt x="245" y="-13" on="1"/>
        <pt x="201" y="-13" on="0"/>
        <pt x="106" y="11" on="0"/>
        <pt x="55" y="35" on="1"/>
        <pt x="76" y="106" on="1"/>
        <pt x="167" y="59" on="0"/>
        <pt x="260" y="59" on="1"/>
        <pt x="305" y="59" on="0"/>
        <pt x="324" y="75" on="1"/>
        <pt x="353" y="100" on="0"/>
        <pt x="353" y="153" on="1"/>
        <pt x="353" y="219" on="0"/>
        <pt x="292" y="246" on="1"/>
        <pt x="268" y="257" on="0"/>
        <pt x="182" y="282" on="0"/>
        <pt x="151" y="292" on="0"/>
        <pt x="100" y="319" on="0"/>
        <pt x="88" y="334" on="1"/>
        <pt x="56" y="374" on="0"/>
        <pt x="56" y="437" on="1"/>
        <pt x="56" y="595" on="0"/>
        <pt x="246" y="595" on="1"/>
        <pt x="334" y="595" on="0"/>
        <pt x="406" y="571" on="1"/>
      </contour>
    </TTGlyph>
    <TTGlyph name="section" xMin="59" yMin="-93" xMax="470" yMax="708">
      <contour>
        <pt x="470" y="302" on="1"/>
        <pt x="470" y="234" on="0"/>
        <pt x="402" y="170" on="1"/>
        <pt x="439" y="133" on="0"/>
        <pt x="439" y="-2" on="0"/>
        <pt x="340" y="-93" on="0"/>
        <pt x="259" y="-93" on="1"/>
        <pt x="209" y="-93" on="0"/>
        <pt x="109" y="-69" on="0"/>
        <pt x="84" y="-57" on="1"/>
        <pt x="60" y="-45" on="1"/>
        <pt x="81" y="26" on="1"/>
        <pt x="175" y="-21" on="0"/>
        <pt x="261" y="-21" on="1"/>
        <pt x="312" y="-21" on="0"/>
        <pt x="332" y="-6" on="1"/>
        <pt x="361" y="14" on="0"/>
        <pt x="361" y="70" on="1"/>
        <pt x="361" y="107" on="0"/>
        <pt x="299" y="151" on="0"/>
        <pt x="210" y="175" on="0"/>
        <pt x="121" y="204" on="0"/>
        <pt x="59" y="273" on="0"/>
        <pt x="59" y="328" on="1"/>
        <pt x="59" y="398" on="0"/>
        <pt x="121" y="447" on="1"/>
        <pt x="79" y="486" on="0"/>
        <pt x="79" y="624" on="0"/>
        <pt x="163" y="708" on="0"/>
        <pt x="335" y="708" on="0"/>
        <pt x="407" y="685" on="1"/>
        <pt x="394" y="615" on="1"/>
        <pt x="322" y="637" on="0"/>
        <pt x="238" y="637" on="1"/>
        <pt x="194" y="637" on="0"/>
        <pt x="157" y="606" on="0"/>
        <pt x="157" y="524" on="0"/>
        <pt x="221" y="476" on="0"/>
        <pt x="314" y="449" on="0"/>
        <pt x="406" y="418" on="0"/>
        <pt x="470" y="353" on="0"/>
      </contour>
      <contour>
        <pt x="343" y="208" on="1"/>
        <pt x="394" y="259" on="0"/>
        <pt x="394" y="326" on="0"/>
        <pt x="333" y="362" on="0"/>
        <pt x="207" y="397" on="0"/>
        <pt x="178" y="410" on="1"/>
        <pt x="137" y="374" on="0"/>
        <pt x="137" y="326" on="1"/>
        <pt x="137" y="298" on="0"/>
        <pt x="179" y="260" on="0"/>
        <pt x="231" y="244" on="0"/>
        <pt x="318" y="219" on="0"/>
      </contour>
    </TTGlyph>
    <TTGlyph name="semicolon" xMin="81" yMin="-166" xMax="209" yMax="548">
      <contour>
        <pt x="113" y="-36" on="1"/>
        <pt x="113" y="84" on="1"/>
        <pt x="195" y="84" on="1"/>
        <pt x="195" y="14" on="1"/>
        <pt x="194" y="-106" on="0"/>
        <pt x="121" y="-166" on="1"/>
        <pt x="81" y="-137" on="1"/>
        <pt x="113" y="-98" on="0"/>
      </contour>
      <contour>
        <pt x="101" y="459" on="1"/>
        <pt x="101" y="548" on="1"/>
        <pt x="209" y="548" on="1"/>
        <pt x="209" y="459" on="1"/>
      </contour>
    </TTGlyph>
    <TTGlyph name="seven" xMin="24" yMin="-7" xMax="448" yMax="695">
      <contour>
        <pt x="24" y="695" on="1"/>
        <pt x="448" y="695" on="1"/>
        <pt x="448" y="640" on="1"/>
        <pt x="164" y="-7" on="1"/>
        <pt x="75" y="1" on="1"/>
        <pt x="363" y="619" on="1"/>
        <pt x="363" y="625" on="1"/>
        <pt x="24" y="619" on="1"/>
      </contour>
    </TTGlyph>
    <TTGlyph name="six" xMin="60" yMin="-13" xMax="492" yMax="708">
      <contour>
        <pt x="492" y="103" on="0"/>
        <pt x="380" y="-13" on="0"/>
        <pt x="172" y="-13" on="0"/>
        <pt x="60" y="146" on="0"/>
        <pt x="60" y="330" on="1"/>
        <pt x="60" y="549" on="0"/>
        <pt x="137" y="634" on="1"/>
        <pt x="174" y="674" on="0"/>
        <pt x="262" y="708" on="0"/>
        <pt x="308" y="708" on="1"/>
        <pt x="391" y="708" on="0"/>
        <pt x="440" y="688" on="1"/>
        <pt x="457" y="682" on="1"/>
        <pt x="438" y="611" on="1"/>
        <pt x="368" y="632" on="0"/>
        <pt x="235" y="632" on="0"/>
        <pt x="202" y="599" on="1"/>
        <pt x="157" y="552" on="0"/>
        <pt x="150" y="409" on="1"/>
        <pt x="203" y="416" on="0"/>
        <pt x="256" y="416" on="1"/>
        <pt x="370" y="416" on="0"/>
        <pt x="492" y="320" on="0"/>
      </contour>
      <contour>
        <pt x="189" y="86" on="1"/>
        <pt x="219" y="58" on="0"/>
        <pt x="356" y="58" on="0"/>
        <pt x="409" y="124" on="0"/>
        <pt x="409" y="285" on="0"/>
        <pt x="355" y="344" on="0"/>
        <pt x="276" y="344" on="1"/>
        <pt x="216" y="344" on="0"/>
        <pt x="148" y="330" on="1"/>
        <pt x="148" y="250" on="1"/>
        <pt x="148" y="127" on="0"/>
      </contour>
    </TTGlyph>
    <TTGlyph name="slash" xMin="4" yMin="-98" xMax="408" yMax="695">
      <contour>
        <pt x="92" y="-98" on="1"/>
        <pt x="4" y="-98" on="1"/>
        <pt x="174" y="319" on="1"/>
        <pt x="319" y="695" on="1"/>
        <pt x="408" y="695" on="1"/>
        <pt x="242" y="288" on="1"/>
      </contour>
    </TTGlyph>
    <TTGlyph name="sterling" xMin="72" yMin="0" xMax="503" yMax="708">
      <contour>
        <pt x="72" y="346" on="1"/>
        <pt x="72" y="411" on="1"/>
        <pt x="160" y="411" on="1"/>
        <pt x="162" y="575" on="0"/>
        <pt x="281" y="708" on="0"/>
        <pt x="383" y="708" on="1"/>
        <pt x="447" y="708" on="0"/>
        <pt x="503" y="692" on="1"/>
        <pt x="494" y="622" on="1"/>
        <pt x="411" y="635" on="0"/>
        <pt x="372" y="635" on="1"/>
        <pt x="306" y="635" on="0"/>
        <pt x="284" y="609" on="1"/>
        <pt x="247" y="564" on="0"/>
        <pt x="244" y="411" on="1"/>
        <pt x="424" y="411" on="1"/>
        <pt x="424" y="346" on="1"/>
        <pt x="244" y="346" on="1"/>
        <pt x="244" y="75" on="1"/>
        <pt x="488" y="77" on="1"/>
        <pt x="488" y="0" on="1"/>
        <pt x="72" y="0" on="1"/>
        <pt x="72" y="74" on="1"/>
        <pt x="160" y="74" on="1"/>
        <pt x="160" y="346" on="1"/>
      </contour>
    </TTGlyph>
    <TTGlyph name="t" xMin="45" yMin="-9" xMax="310" yMax="685">
      <contour>
        <pt x="194" y="548" on="1"/>
        <pt x="310" y="548" on="1"/>
        <pt x="310" y="481" on="1"/>
        <pt x="194" y="481" on="1"/>
        <pt x="194" y="179" on="1"/>
        <pt x="194" y="95" on="0"/>
        <pt x="211" y="61" on="0"/>
        <pt x="255" y="61" on="1"/>
        <pt x="309" y="63" on="1"/>
        <pt x="309" y="-4" on="1"/>
        <pt x="288" y="-9" on="0"/>
        <pt x="253" y="-9" on="1"/>
        <pt x="181" y="-9" on="0"/>
        <pt x="111" y="70" on="0"/>
        <pt x="111" y="185" on="1"/>
        <pt x="111" y="483" on="1"/>
        <pt x="45" y="483" on="1"/>
        <pt x="45" y="535" on="1"/>
        <pt x="114" y="549" on="1"/>
        <pt x="136" y="685" on="1"/>
        <pt x="194" y="685" on="1"/>
      </contour>
    </TTGlyph>
    <TTGlyph name="thorn" xMin="105" yMin="-166" xMax="521" yMax="753">
      <contour>
        <pt x="188" y="-166" on="1"/>
        <pt x="105" y="-166" on="1"/>
        <pt x="105" y="753" on="1"/>
        <pt x="188" y="753" on="1"/>
        <pt x="188" y="573" on="1"/>
        <pt x="280" y="595" on="0"/>
        <pt x="341" y="595" on="1"/>
        <pt x="431" y="595" on="0"/>
        <pt x="521" y="450" on="0"/>
        <pt x="521" y="293" on="1"/>
        <pt x="521" y="-13" on="0"/>
        <pt x="316" y="-13" on="1"/>
        <pt x="273" y="-13" on="0"/>
        <pt x="188" y="3" on="1"/>
      </contour>
      <contour>
        <pt x="188" y="77" on="1"/>
        <pt x="254" y="60" on="0"/>
        <pt x="369" y="60" on="0"/>
        <pt x="388" y="76" on="1"/>
        <pt x="405" y="92" on="0"/>
        <pt x="434" y="202" on="0"/>
        <pt x="434" y="298" on="1"/>
        <pt x="434" y="479" on="0"/>
        <pt x="402" y="505" on="1"/>
        <pt x="381" y="521" on="0"/>
        <pt x="341" y="521" on="1"/>
        <pt x="270" y="521" on="0"/>
        <pt x="188" y="495" on="1"/>
      </contour>
    </TTGlyph>
</ttFont>
